<svg width="40" height="40" viewBox="0 0 40 40" fill="none" xmlns="http://www.w3.org/2000/svg">
<path d="M1.16858 19.9999C1.16844 15.6429 2.67906 11.4205 5.44305 8.05239C8.20704 4.68424 12.0534 2.37867 16.3267 1.52851C20.6 0.678359 25.0359 1.33623 28.8786 3.39002C32.7213 5.44382 35.7329 8.76647 37.4004 12.7918C39.0679 16.8172 39.2881 21.2962 38.0234 25.4657C36.7587 29.6352 34.0874 33.2372 30.4647 35.658C26.842 38.0787 22.492 39.1684 18.1559 38.7415C13.8198 38.3145 9.76588 36.3973 6.68489 33.3164C3.15302 29.7847 1.16874 24.9947 1.16858 19.9999V19.9999Z" stroke="black" stroke-width="0.5"/>
<path d="M31.0657 19.9989H20.0014V8.93451C22.9358 8.93451 25.7501 10.1002 27.8251 12.1752C29.9 14.2502 31.0657 17.0644 31.0657 19.9989ZM20.0014 19.9989V31.0632C17.0669 31.0632 14.2527 29.8975 12.1777 27.8225C10.1027 25.7476 8.93701 22.9333 8.93701 19.9989H20.0014Z" fill="black"/>
<path d="M11.3114 8.71698C11.1069 8.51592 10.8392 8.39178 10.5536 8.36565C10.268 8.33951 9.98216 8.41297 9.74457 8.57357C9.8308 8.33912 9.83328 8.08206 9.75162 7.84598C9.6338 7.58047 9.45061 7.34915 9.21915 7.17364C8.56561 6.62471 7.8768 7.09371 7.38547 7.68025L5.00757 10.5142L8.74545 13.6503L11.255 10.6623C11.8251 9.97704 11.9132 9.30235 11.3114 8.71698ZM20.6209 7.36993L21.9044 3.96117V7.36993H22.88V2.49776H21.4143L20.0813 5.98057H20.0954L18.7625 2.49188H17.2955V7.36523H18.2712V3.96823L19.5547 7.37698L20.6209 7.36993ZM33.7375 9.39755L31.9003 11.9988L34.7484 10.647L35.5018 11.578L31.0199 13.7502L30.1348 12.6488L31.898 10.0711L31.8874 10.0581L29.004 11.2465L28.1107 10.1522L31.1668 6.22036L31.9203 7.1513L30.0055 9.65498L32.9312 8.39844L33.7399 9.39755H33.7375Z" fill="black"/>
<path d="M7.90386 8.38321C8.01291 8.28979 8.15239 8.23952 8.29597 8.2419C8.43954 8.24428 8.57728 8.29914 8.68317 8.39613C8.74027 8.43779 8.78813 8.49082 8.82375 8.55188C8.85937 8.61293 8.88198 8.68069 8.89015 8.7509C8.89832 8.82111 8.89188 8.89225 8.87123 8.95985C8.85058 9.02745 8.81616 9.09005 8.77015 9.14371L7.35963 10.8269L6.47571 10.0852L7.90386 8.38321ZM10.4158 10.3685L8.92766 12.1446L7.99437 11.3618L9.4954 9.57274C9.60475 9.46389 9.75122 9.40043 9.90542 9.39508C10.0596 9.38973 10.2101 9.4429 10.3268 9.54391C10.4434 9.64492 10.5175 9.7863 10.5342 9.93968C10.5509 10.0931 10.5091 10.2471 10.4169 10.3709L10.4158 10.3685Z" fill="white"/>
<path d="M8.57959 20C8.57961 17.3576 9.49588 14.7969 11.1723 12.7542C12.8486 10.7116 15.1814 9.31339 17.7731 8.79789C20.3648 8.2824 23.0551 8.68148 25.3855 9.92715C27.7159 11.1728 29.5424 13.188 30.5536 15.6293C31.5648 18.0707 31.6982 20.7871 30.9311 23.3158C30.164 25.8444 28.5439 28.0289 26.3468 29.497C24.1496 30.965 21.5114 31.6258 18.8817 31.3668C16.2519 31.1078 13.7934 29.945 11.9249 28.0764C10.8643 27.0158 10.023 25.7567 9.44898 24.3709C8.875 22.9852 8.57958 21.5 8.57959 20V20Z" stroke="black" stroke-width="0.7"/>
</svg>
