<svg width="109" height="25" viewBox="0 0 109 25" fill="none" xmlns="http://www.w3.org/2000/svg">
<path d="M69.9936 8.57065C69.9936 8.57065 69.9567 7.87857 68.7582 7.15419C67.5598 6.42981 66.5793 5.77002 63.2008 5.77002C61.1465 5.64343 59.1004 6.12487 57.3181 7.15419C55.5436 8.43698 54.2311 10.2588 53.5763 12.3482C53.5763 12.3482 55.2477 13.0023 55.2834 14.0923C55.3055 15.6774 55.1593 17.2603 54.8474 18.8146C54.7021 19.6497 54.521 20.5944 54.521 20.5944C55.8639 22.3635 57.6945 23.7018 59.7877 24.4447C61.9908 25.0087 64.2989 25.021 66.5078 24.4804C69.1227 23.936 69.7375 23.064 70.2485 22.1919C70.5088 21.5857 70.6089 20.9228 70.5392 20.2668C70.5034 19.5401 70.4665 16.0174 70.4665 16.0174C70.4589 15.691 70.3847 15.3695 70.2485 15.0727C70.0359 14.6218 69.6952 14.2435 69.2689 13.9851C68.8427 13.7266 68.3497 13.5994 67.8516 13.6194C66.9438 13.5467 64.4004 13.5836 64.074 13.5836C63.8035 13.5977 63.5385 13.6662 63.2951 13.7851C63.0517 13.904 62.8349 14.0709 62.6575 14.2757C62.317 14.7488 62.1619 15.3303 62.2215 15.9102C62.1918 16.3008 62.2444 16.6934 62.3757 17.0625C62.507 17.4316 62.7142 17.7692 62.984 18.0533C63.2245 18.2974 63.5493 18.4402 63.8917 18.4524C63.9824 18.4921 64.0588 18.5586 64.1108 18.6429C64.1627 18.7272 64.1877 18.8253 64.1824 18.9242C64.1824 19.2148 64.2193 19.6162 63.5284 19.6162C62.6541 19.6409 61.793 19.3995 61.0588 18.9242C60.6409 18.5846 60.3009 18.159 60.062 17.6764C59.8232 17.1937 59.6911 16.6653 59.6747 16.127C59.4936 14.3472 60.474 12.0899 61.6356 11.5131C62.4742 11.0779 63.4423 10.9619 64.3601 11.1867C64.7592 11.3678 65.1594 11.5858 65.9218 11.9861C66.2861 12.1747 66.7035 12.2343 67.1059 12.1551C67.5084 12.0759 67.8721 11.8626 68.1377 11.5501C68.7917 11.0056 70.1712 9.18891 69.9901 8.57181" fill="black"/>
<path d="M77.7668 21.9381L77.6941 8.13575C77.6919 7.62537 77.5266 7.12907 77.2224 6.71929C77.0561 6.49523 76.8353 6.31749 76.5809 6.203C76.3264 6.08851 76.0469 6.0411 75.769 6.06529C75.0769 6.02838 73.6927 6.06529 73.3721 6.06529C73.0704 6.08252 72.7758 6.16251 72.5068 6.30016C72.2379 6.4378 72.0006 6.63006 71.8103 6.86464C71.4838 7.37332 71.3743 7.84507 71.3743 9.66178C71.3743 11.55 71.5553 21.6844 71.5553 21.6844C71.5496 22.1499 71.5984 22.6144 71.7007 23.0686C71.929 23.4999 72.2672 23.8632 72.6811 24.1217C73.2236 24.3821 73.8252 24.4947 74.4252 24.4481C75.2271 24.5338 76.0377 24.4217 76.7863 24.1217C77.11 23.8615 77.3675 23.5285 77.5379 23.1498C77.7083 22.7711 77.7867 22.3575 77.7668 21.9428" fill="black"/>
<path d="M90.3707 9.51533C90.4894 8.67139 90.4648 7.81346 90.298 6.97769C90.08 6.25101 89.2807 5.92459 86.5931 5.96035C83.9055 5.9961 81.6897 5.96033 81.1084 6.033C80.7588 6.04186 80.4161 6.1318 80.1072 6.29574C79.7983 6.45968 79.5318 6.69313 79.3286 6.97769C78.9295 7.52213 78.9295 8.53948 79.0379 10.3227C79.0737 12.1025 79.1832 18.3866 79.1832 19.3313C79.1832 20.276 79.1463 21.6198 79.1832 21.869C79.1415 22.1678 79.1654 22.4721 79.2532 22.7607C79.3411 23.0494 79.4908 23.3154 79.6919 23.5403C79.9886 23.9595 80.4277 24.2563 80.9273 24.3755C81.3858 24.4384 81.8488 24.4626 82.3114 24.4481H88.7766C89.0908 24.4616 89.4043 24.4105 89.698 24.298C89.9916 24.1855 90.259 24.014 90.4838 23.7941C90.7406 23.3132 90.8774 22.7774 90.8828 22.2323C90.9255 21.6544 90.8514 21.0738 90.6648 20.5252C90.4111 20.0892 90.0881 19.8331 88.9935 19.7985C88.7754 19.7627 85.2516 19.7627 85.2516 19.7627L85.2159 17.4016H87.5043C87.8788 17.3875 88.2375 17.2468 88.5217 17.0025C88.6978 16.8494 88.8379 16.6592 88.932 16.4457C89.0261 16.2321 89.0719 16.0004 89.0661 15.7671C89.0661 15.4407 89.0292 13.9504 89.0292 13.9504C89.0197 13.7799 88.976 13.613 88.9007 13.4598C88.8254 13.3065 88.72 13.1699 88.5909 13.0581C88.4618 12.9463 88.3116 12.8616 88.1491 12.809C87.9866 12.7564 87.8152 12.737 87.6451 12.752C87.1006 12.7162 85.1755 12.7162 85.1755 12.7162V10.5753H89.0615C89.2169 10.5941 89.3744 10.5815 89.5248 10.5384C89.6753 10.4953 89.8156 10.4226 89.9374 10.3244C90.0593 10.2263 90.1604 10.1048 90.2346 9.967C90.3088 9.82923 90.3547 9.67801 90.3696 9.52223" fill="black"/>
<path d="M97.6295 10.5315C97.7979 10.2165 98.0745 9.97291 98.4084 9.84572C98.7423 9.71854 99.1109 9.7163 99.4462 9.83946C100.344 9.95636 101.196 10.3072 101.916 10.8568C102.17 11.1106 102.642 11.5489 103.114 11.3655C103.325 11.3016 103.509 11.1719 103.64 10.9953C103.77 10.8188 103.841 10.6048 103.841 10.3851C103.879 9.63502 103.879 8.88353 103.841 8.13348C103.845 7.8898 103.798 7.648 103.704 7.42301C103.611 7.19802 103.472 6.99462 103.296 6.82544C101.909 5.89207 100.236 5.48016 98.5742 5.66275C95.814 5.73542 93.4159 6.09877 91.9637 9.11393C91.6427 9.8094 91.4695 10.5639 91.455 11.3298C91.3406 12.2216 91.4789 13.1276 91.8541 13.9447C92.212 14.5693 92.6811 15.1232 93.2383 15.5791C93.3836 15.6518 94.3641 16.3058 94.7274 16.5238C95.0907 16.7418 97.3804 17.7926 97.9237 18.1583C98.4681 18.4847 99.0863 18.9934 98.7588 19.7201C98.5408 20.1918 97.9594 20.4467 96.7979 20.0107C96.0647 19.7291 95.3789 19.337 94.7643 18.848C94.5444 18.6949 94.2962 18.5872 94.0341 18.5311C93.7721 18.4751 93.5015 18.4718 93.2383 18.5216C92.4758 18.7027 91.7122 20.5552 91.5669 20.8828C91.4414 21.1143 91.3639 21.3688 91.3389 21.631C91.3139 21.8932 91.3421 22.1577 91.4216 22.4088C91.8644 23.0071 92.4517 23.4834 93.1287 23.793C94.8025 24.6692 96.7005 25.0236 98.5777 24.8103C99.7145 24.7505 100.816 24.3936 101.772 23.7753C102.728 23.157 103.505 22.2988 104.026 21.2865C104.527 20.1332 104.715 18.8678 104.57 17.6185C104.42 16.8562 104.109 16.1348 103.658 15.5021C103.207 14.8694 102.626 14.3401 101.955 13.9493C100.571 13.1868 98.9041 12.5328 98.3597 12.2421C98.0931 12.0521 97.8841 11.7921 97.7559 11.4909C97.6277 11.1897 97.5851 10.8589 97.633 10.535" fill="black"/>
<path d="M14.8555 24.6984C14.3567 24.6868 13.8734 24.5221 13.4713 24.2266C13.1859 24.044 12.9459 23.7986 12.7696 23.5091C12.5933 23.2197 12.4853 22.8938 12.454 22.5564L12.4182 21.1723V20.9185C12.4182 20.9185 12.4182 17.4673 12.3813 15.3253C11.1829 15.3253 8.16771 15.3253 7.98661 15.3622C7.98661 15.7613 8.02237 22.5137 8.02237 22.5137C8.02215 23.095 7.79368 23.6529 7.38615 24.0673C6.97861 24.4818 6.42462 24.7196 5.84347 24.7295H2.61376C2.1149 24.718 1.63168 24.5533 1.2296 24.2578C0.943984 24.075 0.703866 23.8294 0.527558 23.5398C0.35125 23.2501 0.243402 22.924 0.212236 22.5864L0.175328 21.2022L0 4.50347C0.0726685 1.81589 -0.399094 0.144539 2.90559 0.0718708C4.12703 -0.0440501 5.35773 -0.0196818 6.57362 0.144526C6.84659 0.2117 7.09715 0.349324 7.3003 0.543635L7.44564 0.68898L7.59097 0.83429C7.85959 1.25479 7.97488 1.75513 7.9174 2.25078C7.9174 2.25078 7.91741 6.90039 7.95316 8.86129H12.2752V4.50347C12.3479 1.81589 11.8761 0.144539 15.1808 0.0718708H18.1233C18.3631 0.0525499 18.604 0.092033 18.8251 0.186908C19.0462 0.281783 19.2409 0.429166 19.3921 0.61629V0.61629C19.6111 0.813102 19.7859 1.054 19.9052 1.32316C20.0245 1.59233 20.0855 1.88368 20.0842 2.17809V5.30169L20.1199 19.6497V22.3742C20.1197 22.9554 19.8912 23.5133 19.4837 23.9278C19.0762 24.3422 18.5222 24.58 17.941 24.59L14.8555 24.6984Z" fill="black"/>
<path d="M36.505 7.48287C36.6511 8.49326 36.724 9.51288 36.723 10.5338C36.6873 11.7322 36.723 18.4154 36.723 18.4154C36.722 19.2257 36.5611 20.0278 36.2495 20.7758C35.938 21.5238 35.4819 22.2029 34.9075 22.7744C34.1167 23.5282 33.1809 24.1134 32.1569 24.4943C31.1329 24.8752 30.0422 25.044 28.951 24.9902C27.0237 24.9657 25.1444 24.3853 23.5389 23.3188C22.8216 22.8051 22.2465 22.1177 21.8675 21.321C21.583 20.4593 21.3897 19.5701 21.2908 18.668C21.2908 18.1963 21.1455 12.2755 21.2181 11.2951C21.255 10.3146 20.9643 8.09882 21.6541 7.15413C22.3462 6.24635 23.1802 6.24635 24.6693 6.20944C25.3885 6.1248 26.1157 6.27792 26.7398 6.64544H26.7767C26.7956 6.66618 26.8214 6.67931 26.8493 6.68237C26.8541 6.68221 26.8589 6.68303 26.8634 6.68476C26.8679 6.68649 26.8719 6.68906 26.8754 6.6924C26.8788 6.69573 26.8816 6.69974 26.8834 6.70415C26.8853 6.70857 26.8862 6.71334 26.8862 6.71813C27.1159 6.92196 27.2972 7.17443 27.4169 7.45718C27.5366 7.73992 27.5918 8.04583 27.5783 8.35258C27.5783 8.42525 27.6152 18.0867 27.6152 18.1236C27.6152 18.1236 27.6879 19.6497 29.0686 19.6497C29.2673 19.6615 29.4661 19.6292 29.6509 19.555C29.8356 19.4809 30.0016 19.3668 30.137 19.2209C30.2724 19.0751 30.3739 18.901 30.434 18.7113C30.4942 18.5216 30.5116 18.3209 30.4851 18.1236L30.4124 11.2951C30.4493 10.3146 30.1586 8.09882 30.8484 7.15413C31.5382 6.20944 32.3745 6.24635 33.8267 6.20944C34.5686 6.1361 35.3155 6.28803 35.9698 6.64544C35.8245 6.60968 36.4058 7.00878 36.5142 7.48055" fill="black"/>
<path d="M54.4115 15.3981C54.4115 15.3981 53.9754 18.885 53.6848 20.2657C53.6015 20.8104 53.3666 21.3207 53.007 21.7382C52.6474 22.1558 52.1775 22.4637 51.6512 22.6268C49.6872 23.2405 47.5988 23.3405 45.5851 22.9175C43.2969 22.6773 41.177 21.6041 39.6286 19.9023C38.7554 19.0013 38.0913 17.9192 37.6832 16.7327C37.2752 15.5462 37.1332 14.2844 37.2675 13.0369C37.293 10.608 38.2714 8.28629 39.992 6.57171C41.0289 5.65555 42.2364 4.95299 43.5454 4.50428C44.8543 4.05557 46.2389 3.86952 47.6198 3.9568C51.3248 4.13789 52.1184 4.93724 53.1046 5.48283C53.5486 5.69915 53.9368 6.01473 54.2392 6.40517C54.5417 6.79561 54.7502 7.25044 54.8486 7.7344C54.8486 8.53375 53.1415 10.272 53.0319 10.422C52.8635 10.6343 52.6476 10.8041 52.4016 10.9177C52.1555 11.0313 51.8863 11.0855 51.6155 11.076C51.4092 11.0759 51.206 11.0264 51.0228 10.9317C50.8395 10.837 50.6817 10.6998 50.5623 10.5315C50.0389 9.96761 49.3743 9.55385 48.6372 9.33309C48.0878 9.19764 47.514 9.19621 46.964 9.3289C46.4139 9.46159 45.9039 9.72452 45.4767 10.0955C44.3898 11.271 43.7921 12.8167 43.8053 14.4176C43.7643 14.9011 43.8459 15.3872 44.0427 15.8308C44.2395 16.2744 44.5451 16.6611 44.9311 16.9552C45.5662 17.4185 46.2996 17.7291 47.0743 17.863C47.6187 17.9357 47.651 17.5366 47.7663 17.1363C47.8032 16.7372 47.621 16.7372 47.621 16.7372C47.2904 16.6802 46.9787 16.5432 46.7132 16.3381C46.0211 15.8664 46.1688 14.7036 46.2414 14.2619C46.2934 13.5354 46.5587 12.8405 47.0039 12.2641C47.5483 11.8281 48.0212 11.9376 49.0375 12.083C51.2164 12.4821 52.8877 12.8823 52.8877 12.8823C53.153 12.9458 53.4032 13.0611 53.6237 13.2216C53.8443 13.3822 54.0308 13.5848 54.1727 13.8178C54.3146 14.0508 54.4089 14.3096 54.4503 14.5792C54.4916 14.8488 54.4792 15.124 54.4138 15.3888" fill="black"/>
<path d="M106.68 8.60756C106.478 8.61263 106.277 8.57661 106.09 8.50171C105.902 8.42682 105.732 8.31461 105.589 8.17188C105.447 8.02915 105.334 7.8589 105.259 7.67146C105.184 7.48403 105.148 7.28331 105.154 7.08153C105.157 6.78496 105.248 6.49607 105.415 6.251C105.582 6.00592 105.818 5.81557 106.093 5.70376C106.367 5.59195 106.669 5.56365 106.96 5.62241C107.25 5.68117 107.517 5.82437 107.727 6.03409C107.937 6.24381 108.08 6.51072 108.139 6.80143C108.197 7.09215 108.169 7.39373 108.057 7.66844C107.946 7.94314 107.755 8.17876 107.51 8.34581C107.265 8.51286 106.976 8.60391 106.68 8.60756ZM106.68 5.81042C106.515 5.80791 106.353 5.83957 106.201 5.90339C106.05 5.9672 105.914 6.06176 105.801 6.18109C105.688 6.30041 105.602 6.44188 105.547 6.59649C105.492 6.75111 105.469 6.91549 105.481 7.07921C105.471 7.24284 105.494 7.40685 105.55 7.56107C105.606 7.7153 105.692 7.85648 105.805 7.97595C105.917 8.09542 106.052 8.19065 106.203 8.25573C106.353 8.32081 106.516 8.35436 106.68 8.35436C106.844 8.35436 107.006 8.32081 107.156 8.25573C107.307 8.19065 107.442 8.09542 107.555 7.97595C107.667 7.85648 107.753 7.7153 107.809 7.56107C107.865 7.40685 107.888 7.24284 107.878 7.07921C107.884 6.91694 107.857 6.75516 107.8 6.60325C107.742 6.45134 107.656 6.31233 107.544 6.19429C107.433 6.07625 107.299 5.98154 107.15 5.91564C107.002 5.84973 106.842 5.81399 106.68 5.81042V5.81042ZM106.389 7.95356H106.098V6.24871H106.752C107.188 6.24871 107.406 6.39408 107.406 6.72051C107.409 6.78025 107.4 6.83997 107.38 6.8962C107.359 6.95242 107.328 7.00398 107.287 7.04791C107.247 7.09184 107.198 7.12725 107.143 7.15204C107.089 7.17682 107.03 7.1905 106.97 7.19227L107.442 7.95469H107.151L106.715 7.228H106.46V7.95469L106.389 7.95356ZM106.68 7.00887C106.898 7.00887 107.079 7.00887 107.079 6.75511C107.079 6.5371 106.861 6.53707 106.68 6.53707H106.353V7.04576L106.68 7.01V7.00887Z" fill="black"/>
</svg>
