<svg width="74" height="30" viewBox="0 0 74 30" fill="none" xmlns="http://www.w3.org/2000/svg">
<path d="M31.4492 11.5234C30.9479 11.8936 30.451 12.2671 29.9476 12.633C27.7496 14.2295 25.5509 15.8254 23.3515 17.4206C22.8809 17.7624 22.4102 18.1042 21.9526 18.4613C21.9133 18.4987 21.8835 18.545 21.8658 18.5963C21.8482 18.6476 21.8431 18.7024 21.8511 18.7561C22.0935 19.5337 22.36 20.3036 22.6089 21.0789C22.9104 22.0127 23.1976 22.9507 23.4979 23.8834C23.7982 24.816 24.1149 25.7464 24.4196 26.678C24.7617 27.7242 25.1003 28.7711 25.4352 29.8187C25.4422 29.8786 25.4422 29.939 25.4352 29.9989C25.172 29.8143 24.9394 29.656 24.7122 29.4922L19.1755 25.4843C18.1064 24.7079 17.035 23.9369 15.9736 23.1473C15.9392 23.1125 15.8982 23.085 15.853 23.0662C15.8078 23.0475 15.7593 23.0379 15.7104 23.0381C15.6618 23.0382 15.6138 23.0479 15.569 23.0666C15.5242 23.0854 15.4835 23.1128 15.4494 23.1473C13.6671 24.4527 11.8798 25.7519 10.0874 27.0449L6.15594 29.8842C6.11335 29.9137 6.06641 29.9367 5.95611 30C6.04129 29.7095 6.10134 29.4813 6.1745 29.2563C6.43332 28.4449 6.67029 27.6259 6.96842 26.8276C7.11391 26.5183 7.30702 26.2339 7.54068 25.9845C9.65546 23.4207 11.9655 21.0245 14.4501 18.8173C16.109 17.3288 17.8202 15.9015 19.6167 14.5801C19.6833 14.5108 19.7419 14.4343 19.7914 14.3519C19.3448 14.4545 18.9178 14.5222 18.5137 14.6565C17.2917 15.0584 16.0664 15.4538 14.8662 15.9124C13.169 16.5797 11.5334 17.3942 9.97815 18.3466C9.60139 18.5716 9.60794 18.5749 9.23773 18.3029L3.05996 13.7785L0.172534 11.6643C0.0950414 11.6098 0.0351 11.5339 0 11.4459H11.6567C11.8751 11.4459 11.9843 11.4055 12.0596 11.1805C12.5198 9.73462 12.9875 8.29091 13.4629 6.84939C13.831 5.72348 14.2077 4.60193 14.5757 3.47711C14.9295 2.40362 15.2757 1.33013 15.6252 0.256635C15.647 0.191111 15.6776 0.129955 15.7344 0C15.9364 0.617014 16.1122 1.16631 16.2935 1.71453C16.5567 2.51173 16.8243 3.30893 17.0864 4.10723C17.4373 5.18036 17.786 6.25386 18.1326 7.32772C18.4537 8.31058 18.7791 9.29999 19.1001 10.285C19.1941 10.5744 19.2934 10.8627 19.3699 11.1587C19.3742 11.2036 19.3878 11.2472 19.4098 11.2867C19.4318 11.3262 19.4617 11.3607 19.4977 11.388C19.5335 11.4153 19.5746 11.435 19.6184 11.4457C19.6622 11.4564 19.7077 11.4579 19.7521 11.4503C23.551 11.443 27.3496 11.443 31.1478 11.4503C31.2522 11.4449 31.3558 11.4703 31.4459 11.5234" fill="black"/>
<path d="M44.8084 14.3049C45.0846 14.0783 45.2769 13.7657 45.3544 13.417C45.4148 13.2185 45.4088 13.0057 45.3375 12.8109C45.2662 12.616 45.1333 12.4497 44.9591 12.337C44.757 12.1881 44.531 12.0748 44.2908 12.0017C43.8068 11.8577 43.3125 11.7511 42.8121 11.6828C41.7659 11.5387 40.7003 11.6431 39.7019 11.9875C39.1095 12.1706 38.5742 12.5033 38.1477 12.9533C37.7212 13.4034 37.4177 13.9557 37.2666 14.5571C37.1705 14.9321 37.1171 15.3168 37.1072 15.7038C37.0523 16.3688 37.1947 17.0351 37.5166 17.6196C37.8384 18.2041 38.3255 18.6807 38.9167 18.9898C39.2654 19.1848 39.6249 19.3598 39.9935 19.514C40.6258 19.7761 41.2745 20.0021 41.9046 20.2686C42.2188 20.4039 42.5203 20.5669 42.8056 20.7557C43.0076 20.9083 43.1674 21.11 43.2698 21.3416C43.3722 21.5732 43.4139 21.8271 43.3909 22.0792C43.3675 22.3318 43.28 22.5742 43.1366 22.7835C42.9933 22.9928 42.7989 23.162 42.5719 23.2751C42.2369 23.4227 41.8796 23.5135 41.5148 23.5437C40.7154 23.6068 39.9111 23.5449 39.1308 23.3602C38.5848 23.2379 38.0507 23.0894 37.4796 22.9431C37.2241 23.5983 36.9685 24.2656 36.7053 24.9437C36.8462 25.0027 36.9478 25.0529 37.0537 25.0879C38.5402 25.5942 40.111 25.8064 41.6786 25.7125C42.48 25.6763 43.2677 25.4912 44.0014 25.1665C44.503 24.9544 44.9485 24.6286 45.3027 24.2149C45.6569 23.8012 45.9102 23.3109 46.0424 22.7825C46.1024 22.5397 46.1459 22.293 46.1724 22.0443C46.2994 21.3705 46.2164 20.674 45.9345 20.049C45.6527 19.4239 45.1856 18.9006 44.5966 18.5497C44.4844 18.4702 44.3677 18.3972 44.2471 18.3313C43.6705 18.055 43.0972 17.7733 42.5129 17.5155C42.0116 17.2971 41.4907 17.118 40.9928 16.892C40.6885 16.7611 40.4029 16.5907 40.1431 16.3852C39.9848 16.2494 39.8598 16.079 39.7778 15.8872C39.6958 15.6954 39.659 15.4873 39.6703 15.279C39.6816 15.0707 39.7407 14.8679 39.843 14.6861C39.9452 14.5043 40.0879 14.3485 40.26 14.2306C40.4512 14.1067 40.66 14.0121 40.8792 13.9499C41.4454 13.8048 42.0343 13.771 42.6134 13.8506C43.3552 13.9159 44.0876 14.0624 44.7975 14.2874" fill="black"/>
<path d="M50.6007 15.1207V12.349L48.054 12.7858C48.0278 13.6213 48.0016 14.4239 47.9743 15.2626H46.6005C46.4782 15.872 46.3635 16.4464 46.2401 17.07H47.9874V21.8445C47.9874 22.2999 47.9798 22.7563 48.0049 23.2106C48.0031 23.8242 48.2309 24.4163 48.6436 24.8704C49.0563 25.3245 49.6239 25.6078 50.2349 25.6645C51.0741 25.7855 51.9286 25.7485 52.7543 25.5553C53.2417 25.4605 53.7176 25.3141 54.1739 25.1185C54.0047 24.5408 53.8398 23.9773 53.6683 23.3832C53.4597 23.4247 53.273 23.4607 53.0862 23.5022C52.6062 23.6107 52.1123 23.645 51.6218 23.6038C51.3778 23.608 51.1413 23.5193 50.9602 23.3556C50.7792 23.192 50.667 22.9657 50.6466 22.7225C50.6179 22.5544 50.6047 22.3841 50.6073 22.2136V17.3627C50.6073 17.2742 50.6215 17.1879 50.6324 17.0612H53.629C53.7469 16.406 53.8572 15.7781 53.9752 15.1141H50.6007V15.1207Z" fill="black"/>
<path d="M69.1243 16.2455C69.0342 15.9142 68.843 15.6193 68.5774 15.4018C68.3118 15.1844 67.9849 15.0552 67.6424 15.0322C67.1786 14.9509 66.7025 14.9744 66.2489 15.101C66.0088 15.1696 65.7828 15.2805 65.5817 15.4286C65.3938 15.572 65.2669 15.7809 65.2264 16.0138C65.1859 16.2466 65.2348 16.4861 65.3633 16.6845C65.5539 16.6613 65.7457 16.6497 65.9377 16.6495C66.0385 16.6447 66.1392 16.661 66.2332 16.6975C66.3273 16.734 66.4126 16.7898 66.4837 16.8614C66.5547 16.9328 66.6099 17.0183 66.6459 17.1123C66.6818 17.2064 66.6976 17.3069 66.6923 17.4074C66.7 17.5319 66.6923 17.6586 66.6923 17.7831V25.4275C67.5987 25.4275 68.4593 25.4406 69.3362 25.4155V18.0201C69.7942 17.6851 70.3318 17.4754 70.8957 17.4118C71.4417 17.3452 72.0041 17.3572 72.5796 17.3354C72.8188 16.6179 73.0667 15.8796 73.3233 15.113C72.585 14.9199 71.8092 14.9221 71.0721 15.1195C70.3349 15.3169 69.6618 15.7027 69.1189 16.2389" fill="black"/>
<path d="M65.016 24.0198C64.7866 24.0198 64.5791 24.0329 64.3782 24.0198C64.2101 24.022 64.0472 23.9609 63.922 23.8486C63.7968 23.7364 63.7184 23.5811 63.7022 23.4138C63.6766 23.2567 63.665 23.0978 63.6673 22.9387V15.3838C63.012 15.2615 62.3896 15.1272 61.7594 15.0322C60.6969 14.8517 59.6106 14.8632 58.5521 15.066C57.6243 15.2081 56.7612 15.6279 56.0766 16.27C55.392 16.9121 54.9179 17.7465 54.7167 18.6633C54.4571 19.7285 54.4051 20.8338 54.5638 21.9187C54.6391 22.5881 54.8364 23.2381 55.1459 23.8364C55.3769 24.2985 55.7112 24.7012 56.1229 25.0133C56.5347 25.3254 57.0127 25.5385 57.52 25.6361C58.7414 25.9028 60.0186 25.6805 61.078 25.0169L61.3739 24.8378C61.5064 25.0639 61.6922 25.2542 61.9151 25.392C62.138 25.5298 62.3913 25.611 62.6527 25.6284C63.073 25.6682 63.496 25.6682 63.9163 25.6284C64.2501 25.6035 64.5672 25.4726 64.8216 25.255C65.0059 25.1131 65.1288 24.9059 65.165 24.6762C65.2012 24.4464 65.1478 24.2115 65.016 24.0198V24.0198ZM61.0299 23.1844C60.5049 23.467 59.9117 23.5982 59.3165 23.5634C58.8765 23.5859 58.4428 23.4518 58.0924 23.1849C57.7419 22.918 57.4973 22.5356 57.4021 22.1055C57.0765 21.067 57.0387 19.9596 57.2929 18.9014C57.4007 18.3447 57.7035 17.8446 58.1468 17.4912C58.5902 17.1377 59.1451 16.9539 59.7118 16.9728C59.9968 16.9651 60.283 16.9793 60.568 16.9979C60.7228 17.0176 60.8763 17.0464 61.0278 17.0842L61.0299 23.1844Z" fill="black"/>
</svg>
