<svg width="40" height="35" viewBox="0 0 40 35" fill="none" xmlns="http://www.w3.org/2000/svg">
<path d="M0 25.0269H9.6251V27.9557H6.86394V35H2.85295V27.9557H0V25.0269Z" fill="black"/>
<path d="M14.5006 29.055L12.4727 34.9957H8.62073L12.398 25.0269H16.5808L20.4498 34.9957H16.5509L14.5006 29.055Z" fill="black"/>
<path d="M19.5255 25.0269H29.1506V27.9557H26.3905V35H22.3795V27.9557H19.5255V25.0269Z" fill="black"/>
<path d="M34.0325 29.055L32.0046 34.9957H28.1537L31.9331 25.0269H36.1148L39.9817 34.9957H36.0839L34.0325 29.055Z" fill="black"/>
<path fill-rule="evenodd" clip-rule="evenodd" d="M34.1746 6.71814C33.7966 5.98239 33.3181 5.30276 32.7529 4.69877C31.2435 3.15077 29.395 1.97462 27.3533 1.26306C22.5983 -0.421021 17.4092 -0.421021 12.6542 1.26306C10.6121 1.9744 8.76326 3.15057 7.25355 4.69877C6.68809 5.30277 6.20927 5.98239 5.83081 6.71814C9.8852 5.73808 14.0275 5.16599 18.1957 5.01043C18.3725 4.99308 18.5508 5.0191 18.7152 5.08624C18.8796 5.15338 19.0252 5.25962 19.1392 5.39573C19.3434 6.00653 19.4162 6.6536 19.3527 7.29449L19.2225 20.0042C19.4797 20.0127 19.738 20.018 19.9974 20.018C20.2567 20.018 20.5182 20.018 20.7754 20.0052L20.6516 7.29129C20.5874 6.65039 20.6601 6.00316 20.8651 5.39253C20.9791 5.25634 21.1247 5.15006 21.2891 5.08291C21.4535 5.01576 21.6318 4.98978 21.8086 5.00723C25.9758 5.1628 30.117 5.73488 34.1703 6.71494" fill="black"/>
<path fill-rule="evenodd" clip-rule="evenodd" d="M34.7893 8.37031C31.5712 7.64045 28.2921 7.21168 24.9945 7.08952C22.577 6.95504 22.5397 7.8185 22.7862 9.46858C22.8022 9.56891 22.8214 9.69592 22.8449 9.84107C23.6561 14.644 24.6658 18.7788 24.8398 19.4801C30.7346 18.1331 34.9857 14.3964 34.9857 10.0086C34.9852 9.45711 34.9196 8.90755 34.7904 8.37137" fill="black"/>
<path fill-rule="evenodd" clip-rule="evenodd" d="M17.2233 9.46754C17.4646 7.81746 17.4368 6.954 15.0161 7.08849C11.7174 7.21034 8.43728 7.63912 5.21811 8.36927C5.08855 8.90505 5.02263 9.45425 5.02173 10.0055C5.06036 11.9952 5.85888 13.8947 7.25349 15.3143C8.76321 16.8628 10.612 18.0393 12.6541 18.7511C13.4746 19.0516 14.3143 19.2966 15.1677 19.4844C15.331 18.8269 16.3641 14.6078 17.1838 9.7173C17.1988 9.62337 17.2127 9.53692 17.2223 9.46541" fill="black"/>
</svg>
