<svg width="114" height="20" viewBox="0 0 114 20" fill="none" xmlns="http://www.w3.org/2000/svg">
<path d="M40.4466 19.9887C36.6431 20.1207 32.9207 18.8702 29.9684 16.4685C29.0588 15.6514 28.334 14.6495 27.8424 13.53C27.3508 12.4104 27.1037 11.1988 27.1176 9.9761C27.1148 8.75868 27.3668 7.55414 27.8576 6.44002C28.3484 5.3259 29.067 4.32688 29.9672 3.50725C32.3337 1.35057 36.5127 0 40.4466 0C44.8 0 48.2849 1.09602 50.9483 3.51314C51.8453 4.33195 52.5594 5.33084 53.044 6.44453C53.5285 7.55822 53.7726 8.76163 53.7602 9.9761C53.7543 11.1919 53.502 12.3939 53.0187 13.5096C52.5355 14.6252 51.8311 15.6314 50.9483 16.4673C47.997 18.8874 44.2601 20.14 40.4466 19.9876V17.3524C42.5322 17.4033 44.5532 16.6266 46.0681 15.1922C46.7526 14.5121 47.2889 13.6977 47.6433 12.8002C47.9976 11.9027 48.1623 10.9416 48.1269 9.97728C48.1482 9.01317 47.977 8.05449 47.6235 7.15728C47.27 6.26006 46.7412 5.44229 46.0681 4.75176C44.5203 3.36881 42.5174 2.60435 40.4419 2.60435C38.3663 2.60435 36.3634 3.36881 34.8156 4.75176C34.1452 5.44371 33.6186 6.2617 33.2662 7.15842C32.9138 8.05515 32.7427 9.01283 32.7627 9.9761C32.7448 10.9377 32.917 11.8933 33.2693 12.7882C33.6216 13.6831 34.1471 14.4997 34.8156 15.191C36.3387 16.6185 38.3596 17.3937 40.4466 17.3512V19.9876V19.9887ZM10.3874 0.00942811C8.04415 -0.00549037 5.72238 0.457258 3.56386 1.36943C1.604 2.23917 4.1521e-05 3.65339 4.1521e-05 6.00334C-0.0050694 7.23422 0.46183 8.42024 1.30465 9.31732C2.37223 10.3474 3.72928 11.0263 5.19374 11.263C6.26737 11.4987 8.56311 11.8523 10.8506 12.0974C13.1381 12.3426 15.3537 12.5688 16.2623 12.7951C16.9848 12.979 18.1986 13.23 18.1986 14.5912C18.1765 15.0199 18.0193 15.4306 17.7496 15.7646C17.48 16.0986 17.1116 16.3388 16.6972 16.4508C15.2623 17.021 13.7256 17.2905 12.1823 17.2428C10.3549 17.1907 8.54443 16.8772 6.80595 16.3118C5.58604 15.9398 4.50296 15.2163 3.69232 14.2317C3.28757 13.6513 3.06405 12.964 3.05003 12.2565H0.553942V19.251H3.32816V18.3082C3.32817 18.2381 3.34678 18.1693 3.38209 18.1087C3.4174 18.0482 3.46814 17.9981 3.52914 17.9636C3.59014 17.9291 3.6592 17.9114 3.72928 17.9123C3.79936 17.9132 3.86794 17.9327 3.92802 17.9688C5.23541 18.5372 6.59519 18.9765 7.988 19.2805C9.36528 19.6267 10.7799 19.8024 12.2 19.8037C14.1123 19.8391 16.0181 19.5706 17.8462 19.0082C19.0592 18.6745 20.1972 18.1121 21.1991 17.3512C21.7626 16.9183 22.2181 16.3607 22.5297 15.7221C22.8414 15.0835 23.0007 14.3813 22.9952 13.6707C23.0046 12.3203 22.4832 11.0201 21.5432 10.0503C21.0186 9.54284 20.4101 9.12979 19.7448 8.82941C19.0333 8.50734 18.2946 8.24902 17.5375 8.05749C15.4847 7.63971 13.4122 7.32504 11.3279 7.11468C9.46249 6.98553 7.6075 6.73475 5.77475 6.36396C5.49046 6.298 5.23551 6.14094 5.04872 5.91671C4.86193 5.69247 4.75353 5.41334 4.74002 5.12181C4.75376 4.8178 4.84838 4.52296 5.01411 4.26773C5.17985 4.01249 5.4107 3.80611 5.68283 3.66989C7.27802 2.92428 9.03032 2.57689 10.7893 2.65754C12.8197 2.63246 14.8336 3.0256 16.7054 3.81249C17.2084 4.03164 17.6816 4.31358 18.1138 4.65159C18.8175 5.25304 19.3047 6.06855 19.5009 6.97326H21.7401V0.882705H19.2357V1.58981C19.2357 1.81844 19 2.11543 18.5534 1.8703C16.0032 0.650796 13.213 0.015474 10.3863 0.0106065M65.2224 1.11723L77.4283 12.1316L77.3034 4.71405C77.2916 3.74178 77.1113 3.33519 76.06 3.33519H73.7655V1.11723H84.2024V3.33637H81.9632C80.8907 3.33637 80.8224 3.67931 80.8094 4.71523L80.9992 18.8868H77.4283L63.3651 6.33922V15.2441C63.3769 16.2116 63.4228 16.6677 64.4258 16.6677H66.9324V18.8857H56.6794V16.6677H59.0753C59.9698 16.6677 59.9344 15.8145 59.9344 15.1934V4.7989C59.9344 4.12833 59.8402 3.33755 58.4354 3.33755H56.4908V1.11605L65.2224 1.11723ZM96.1277 16.6642C96.3342 16.6645 96.5405 16.6515 96.7453 16.6253C96.8514 16.5932 96.9492 16.5384 97.032 16.4647C97.1148 16.3911 97.1807 16.3003 97.2249 16.1986C97.2567 16.0403 97.2729 15.8793 97.2732 15.7178V12.2117C97.2732 12.1269 97.2732 12.0939 97.1236 11.903C96.9739 11.7121 90.7325 4.63155 90.4473 4.32042C90.2155 4.02899 89.924 3.79044 89.5925 3.62073C89.2611 3.45102 88.8971 3.35407 88.5251 3.33637H86.3567V1.11723H98.5955V3.33401H97.12C96.7783 3.33401 96.552 3.6581 96.8431 4.01755C96.8431 4.01755 100.961 8.94373 101 8.9944C101.039 9.04508 101.07 9.05922 101.118 9.01208C101.165 8.96494 105.339 4.06233 105.372 4.02344C105.422 3.95855 105.453 3.88053 105.46 3.79875C105.467 3.71696 105.45 3.63488 105.412 3.56235C105.373 3.48982 105.315 3.42992 105.243 3.38983C105.171 3.34975 105.09 3.33119 105.008 3.33637H103.501V1.11723H113.532V3.33637H111.293C110.952 3.30604 110.608 3.36817 110.299 3.51623C109.99 3.6643 109.727 3.89283 109.537 4.17783C109.258 4.49484 102.955 11.6885 102.783 11.8829C102.715 11.9785 102.686 12.0957 102.7 12.2117V15.7178C102.701 15.8789 102.717 16.0395 102.749 16.1975C102.793 16.2993 102.859 16.3902 102.942 16.4638C103.025 16.5375 103.123 16.5922 103.229 16.6241C103.432 16.6504 103.637 16.6634 103.841 16.663H106.133V18.8821H93.9557V16.6618H96.1289L96.1277 16.6642Z" fill="black"/>
</svg>
