<svg width="58" height="25" viewBox="0 0 58 25" fill="none" xmlns="http://www.w3.org/2000/svg">
<path d="M22.7709 24.9909C21.9147 24.9995 21.0709 24.7868 20.3211 24.3733C19.5713 23.9598 18.9411 23.3596 18.4916 22.6309C17.901 21.5447 17.7282 20.28 18.0057 19.0752C18.1927 18.301 18.5376 17.5737 19.0187 16.9389C19.4998 16.3041 20.1068 15.7755 20.8017 15.3862C21.7856 14.7937 22.8368 14.321 23.933 13.9783C24.3145 13.8438 24.6439 13.7208 24.6659 13.7034C24.6879 13.686 24.7007 13.5875 24.6856 13.3161C24.6622 12.3364 24.7671 11.3578 24.9976 10.4052C25.2793 9.06242 26.0038 7.85314 27.0549 6.97132C27.7915 6.42463 28.6424 6.05192 29.5436 5.88119C30.138 5.78749 30.7434 5.78749 31.3377 5.88119C31.768 5.91798 32.1854 6.04677 32.5616 6.25887C32.9379 6.47096 33.2641 6.76141 33.5184 7.11053C33.7726 7.45966 33.9489 7.85934 34.0352 8.2825C34.1216 8.70566 34.116 9.14244 34.019 9.56327C33.8778 10.0276 33.6628 10.4661 33.3823 10.8621C32.5804 11.8454 31.572 12.64 30.4285 13.1897C30.258 13.2801 29.7002 13.555 29.1888 13.7997C28.6773 14.0444 28.2436 14.2636 28.2239 14.281C28.2042 14.2984 28.203 14.3969 28.2575 14.6718C28.5057 15.9481 28.9839 17.1687 29.6689 18.2739C29.8937 18.6626 30.1399 19.0385 30.4065 19.3999C30.4726 19.4405 30.7428 19.0045 30.9191 18.5719C31.1331 18.0695 31.2299 17.525 31.202 16.9796C31.1536 16.7198 31.0293 16.4801 30.8448 16.2908C30.7892 16.2412 30.7398 16.1851 30.6975 16.1238C30.6975 16.1122 31.3771 16.1052 32.2052 16.1087L33.7128 16.1168L33.7047 16.3081C33.6669 16.7199 33.596 17.1279 33.4925 17.5282C33.1727 18.7025 32.5611 19.7768 31.7146 20.6513C31.6345 20.7305 31.5665 20.8212 31.5128 20.9203C31.6143 21.06 31.731 21.1879 31.8607 21.3019C33.3431 22.6402 35.0454 23.7124 36.8927 24.4714C37.0006 24.5055 37.1027 24.556 37.1954 24.621C37.1954 24.6407 36.2027 24.6534 34.2961 24.6581L31.3969 24.665L31.2322 24.5723C30.5916 24.1405 29.9898 23.6539 29.4335 23.118C29.3381 23.0201 29.231 22.9344 29.1145 22.8628C28.9831 22.9235 28.8576 22.9965 28.74 23.0809C27.8083 23.6947 26.8046 24.1914 25.7514 24.5595C24.7946 24.9003 23.7791 25.0458 22.7651 24.9874L22.7709 24.9909ZM25.2063 22.4801C25.7046 22.3839 26.1924 22.2398 26.6629 22.0499C27.0567 21.9061 27.4339 21.7202 27.7878 21.4955C27.7233 21.3451 27.6391 21.2039 27.5373 21.0757C26.7866 19.9716 26.1568 18.7901 25.6586 17.5514C25.48 17.1049 25.1472 16.1156 25.0788 15.8443C25.0699 15.7794 25.0416 15.7187 24.9976 15.6703C24.6045 15.8114 24.2341 16.0091 23.8982 16.2571C22.198 17.3844 21.3828 18.7598 21.5637 20.2001C21.6082 20.758 21.8371 21.2851 22.2143 21.6985C22.6059 22.0732 23.0867 22.3417 23.6111 22.4784C24.1355 22.6152 24.6862 22.6158 25.211 22.4801H25.2063ZM28.0928 12.4823C28.913 11.9415 29.6482 11.2818 30.2743 10.5247C30.889 9.86655 31.2732 9.02648 31.369 8.13103C31.3903 8.00292 31.3819 7.87164 31.3445 7.74728C31.3072 7.62291 31.2418 7.50876 31.1534 7.41358C31.0651 7.31841 30.9561 7.24474 30.8349 7.19823C30.7136 7.15172 30.5833 7.1336 30.454 7.14527C29.5483 7.14527 28.5683 8.22149 28.1346 9.68504C27.9294 10.3435 27.8384 11.0323 27.8655 11.7215C27.8655 12.4104 27.876 12.5634 27.927 12.5634C27.9829 12.5418 28.0366 12.5146 28.087 12.4823H28.0928ZM43.0844 24.9735C41.8549 24.884 40.6457 24.6103 39.4974 24.1617C38.16 23.6986 37.0166 22.8002 36.2502 21.6103C35.9469 21.1175 35.6873 20.5991 35.4744 20.061C34.763 17.8944 34.6146 15.5825 35.043 13.3428C35.4325 10.9114 36.3458 8.5938 37.7196 6.55034C38.6744 5.2221 39.8279 4.04866 41.1396 3.07121C43.9516 1.03153 47.3473 -0.0451852 50.8209 0.00145369C52.2097 -0.00829049 53.5957 0.130111 54.9552 0.414311C55.8104 0.572127 56.6513 0.79941 57.4695 1.0939C57.4846 1.13217 56.5174 4.23324 56.4768 4.27499C56.3558 4.21929 56.2446 4.1445 56.1474 4.05348C54.9483 3.04279 53.5045 2.36527 51.9609 2.08893C51.3777 2.01923 50.7882 2.01923 50.205 2.08893C49.0863 2.32786 48.0256 2.78494 47.0835 3.43405C46.1415 4.08316 45.3367 4.91156 44.715 5.87191C44.1204 6.6848 43.5922 7.54422 43.1355 8.44183C42.5232 9.63701 42.0272 10.8883 41.6545 12.1784C40.2814 16.7604 40.2118 19.9612 41.4481 21.688C41.7071 22.0461 42.0346 22.3492 42.4117 22.5797C42.7887 22.8103 43.2078 22.9637 43.6446 23.031C44.3069 23.1282 44.9817 23.0971 45.6323 22.9394C45.6532 22.9185 46.2957 20.9099 47.0588 18.4745C47.6052 16.9415 48.0743 15.382 48.4643 13.802C48.4861 13.5116 48.4254 13.221 48.2892 12.9635C48.1097 12.6707 47.8612 12.4263 47.5655 12.2515C47.4884 12.2146 47.4166 12.1674 47.3522 12.1112C47.3522 12.0996 49.457 12.0891 52.0316 12.0891C54.6062 12.0891 56.711 12.0996 56.711 12.1112C56.6327 12.168 56.5474 12.2144 56.4571 12.2492C55.7727 12.5404 55.2155 13.0676 54.8868 13.7348C54.8184 13.8762 54.2292 15.7063 53.3455 18.5232L51.9133 23.0797L51.4993 23.278C49.6657 24.1289 47.7084 24.6824 45.7007 24.9178C45.3227 24.9642 43.4045 25.0025 43.0891 24.97L43.0844 24.9735ZM0.00579855 24.6407C-0.00347913 24.6256 0.0591453 24.5734 0.143804 24.5247C0.701302 24.1808 1.15784 23.6954 1.46703 23.118C1.53662 22.9718 7.96142 2.52614 8.09826 1.99732C8.12883 1.85476 8.14438 1.70938 8.14465 1.56358C8.15301 1.36089 8.11566 1.15891 8.03535 0.972614C7.95505 0.786316 7.83387 0.620473 7.68077 0.487373C7.61912 0.434948 7.56524 0.374035 7.52073 0.306458C7.52073 0.265868 18.7305 0.269347 19.2442 0.306458C20.3125 0.380973 21.3571 0.65639 22.3233 1.11826C22.9944 1.42342 23.5812 1.88724 24.0332 2.4697C24.4851 3.05217 24.7886 3.73582 24.9176 4.4617C24.9938 5.05262 25.0012 5.65039 24.9396 6.24302C24.6657 8.10802 23.9129 9.87014 22.7547 11.3573C20.6091 13.7758 17.5913 15.2436 14.3642 15.4384C13.16 15.565 11.9474 15.5914 10.7389 15.5172C10.5551 15.4987 10.3705 15.4894 10.1857 15.4894C10.1498 15.5265 7.83501 22.9521 7.80833 23.118C7.77505 23.386 7.81684 23.6581 7.92905 23.9038C8.04125 24.1495 8.21948 24.3592 8.44386 24.5096C8.53315 24.5688 8.59926 24.6256 8.58998 24.6453C8.5807 24.665 0.0231942 24.6824 0 24.6453L0.00579855 24.6407ZM12.7301 13.6118C13.5619 13.4666 14.3501 13.1351 15.0357 12.6423C15.5392 12.2427 15.9956 11.7871 16.396 11.2843C17.1942 10.1643 17.7777 8.906 18.117 7.57321C18.3695 6.76013 18.5035 5.9149 18.5148 5.06359C18.5358 4.60422 18.4665 4.14518 18.3107 3.71253C18.2029 3.4207 18.0354 3.15456 17.819 2.93111C17.6025 2.70766 17.3418 2.53182 17.0536 2.41481C16.4345 2.19412 15.7746 2.11178 15.1203 2.17359L14.3549 2.18171L12.5782 7.8527C11.5994 10.9712 10.8039 13.5353 10.8097 13.5562C10.8952 13.5965 10.9878 13.6198 11.0822 13.6246C11.226 13.6443 11.3628 13.6652 11.3872 13.671C11.8357 13.6835 12.2845 13.6637 12.7301 13.6118V13.6118Z" fill="black"/>
</svg>
