<svg xmlns="http://www.w3.org/2000/svg" viewBox="0 0 900 900" width="100" height="100" preserveAspectRatio="xMidYMid meet" style="width: 100%; height: 100%; transform: translate3d(0px, 0px, 0px);"><defs><clipPath id="__lottie_element_1741"><rect width="900" height="900" x="0" y="0"></rect></clipPath><clipPath id="__lottie_element_1743"><path d="M0,0 L1000,0 L1000,1000 L0,1000z"></path></clipPath><clipPath id="__lottie_element_1885"><path d="M0,0 L444,0 L444,421 L0,421z"></path></clipPath><clipPath id="__lottie_element_1898"><path d="M0,0 L444,0 L444,421 L0,421z"></path></clipPath><clipPath id="__lottie_element_1899"><path fill="#ffffff" clip-rule="nonzero" d=" M814,-148 C814,-148 222,-148 222,-148 C222,-148 222,584 222,584 C222,584 814,584 814,584 C814,584 814,-148 814,-148"></path></clipPath><clipPath id="__lottie_element_1905"><path d="M0,0 L444,0 L444,421 L0,421z"></path></clipPath><clipPath id="__lottie_element_1906"><path fill="#ffffff" clip-rule="nonzero" d=" M814,-148 C814,-148 222,-148 222,-148 C222,-148 222,584 222,584 C222,584 814,584 814,584 C814,584 814,-148 814,-148"></path></clipPath><clipPath id="__lottie_element_1930"><path d="M0,0 L1000,0 L1000,1000 L0,1000z"></path></clipPath><clipPath id="__lottie_element_2072"><path d="M0,0 L444,0 L444,421 L0,421z"></path></clipPath><clipPath id="__lottie_element_2085"><path d="M0,0 L444,0 L444,421 L0,421z"></path></clipPath><clipPath id="__lottie_element_2086"><path fill="#ffffff" clip-rule="nonzero" d=" M814,-148 C814,-148 222,-148 222,-148 C222,-148 222,584 222,584 C222,584 814,584 814,584 C814,584 814,-148 814,-148" fill-opacity="1"></path></clipPath><clipPath id="__lottie_element_2092"><path d="M0,0 L444,0 L444,421 L0,421z"></path></clipPath><clipPath id="__lottie_element_2093"><path fill="#ffffff" clip-rule="nonzero" d=" M814,-148 C814,-148 222,-148 222,-148 C222,-148 222,584 222,584 C222,584 814,584 814,584 C814,584 814,-148 814,-148" fill-opacity="1"></path></clipPath></defs><g clip-path="url(#__lottie_element_1741)"><g clip-path="url(#__lottie_element_1930)" transform="matrix(1,0,0,1,-50,-50)" opacity="1" style="display: block;"><g clip-path="url(#__lottie_element_2072)" style="display: none;" transform="matrix(1.840000033378601,0,0,1.840000033378601,93.01998901367188,110.67999267578125)" opacity="1"><g style="display: block;" transform="matrix(1,0,0,1,58.59100341796875,53.11399841308594)" opacity="1"><g opacity="1" transform="matrix(1,0,0,1,0,0)"><path stroke-linecap="round" stroke-linejoin="round" fill-opacity="0" stroke-dasharray=" 0 8" stroke-dashoffset="0" stroke="rgb(8,0,0)" stroke-opacity="1" stroke-width="2" d="M0 0"></path></g></g><g style="display: block;" transform="matrix(1,0,0,1,1,2)" opacity="1"><g opacity="1" transform="matrix(1,0,0,1,0,0)"><path stroke-linecap="round" stroke-linejoin="round" fill-opacity="0" stroke-dasharray=" 0 8" stroke-dashoffset="0" stroke="rgb(8,0,0)" stroke-opacity="1" stroke-width="2" d="M0 0"></path></g></g><g style="display: block;" transform="matrix(1,0,0,1,97.03400421142578,151.72500610351562)" opacity="1"><g opacity="1" transform="matrix(1,0,0,1,0,0)"><path stroke-linecap="round" stroke-linejoin="round" fill-opacity="0" stroke-dasharray=" 0 8" stroke-dashoffset="0" stroke="rgb(8,0,0)" stroke-opacity="1" stroke-width="2" d=" M129.01600646972656,140.62100219726562 C126.3740005493164,142.03599548339844 124.7770004272461,142.89199829101562 124.7770004272461,142.89199829101562"></path></g></g><g style="display: block;" transform="matrix(1,0,0,1,97.03400421142578,151.72500610351562)" opacity="1"><g opacity="1" transform="matrix(1,0,0,1,0,0)"><path stroke-linecap="round" stroke-linejoin="round" fill-opacity="0" stroke-dasharray=" 0 8" stroke-dashoffset="0" stroke="rgb(8,0,0)" stroke-opacity="1" stroke-width="2" d=" M124.7770004272461,142.89199829101562 C124.7770004272461,142.89199829101562 123.177001953125,142.03900146484375 120.52899932861328,140.6280059814453"></path></g></g><g style="display: block;" transform="matrix(1,0,0,1,221.81300354003906,318.0639953613281)" opacity="1"><g opacity="1" transform="matrix(1,0,0,1,0,0)"><path stroke-linecap="round" stroke-linejoin="round" fill-opacity="0" stroke-dasharray=" 0 8" stroke-dashoffset="0" stroke="rgb(8,0,0)" stroke-opacity="1" stroke-width="2" d=" M0,-22.520999908447266 C0,-23.121000289916992 0,-23.447999954223633 0,-23.447999954223633"></path></g></g><g style="display: block;" transform="matrix(1,0,0,1,221.6490020751953,264.31201171875)" opacity="1"><g opacity="1" transform="matrix(1,0,0,1,0,0)"><path stroke-linecap="round" stroke-linejoin="round" fill-opacity="0" stroke-dasharray=" 0 8" stroke-dashoffset="0" stroke="rgb(8,0,0)" stroke-opacity="1" stroke-width="2" d=" M-52.45000076293945,0 C-53.84700012207031,0 -54.60900115966797,0 -54.60900115966797,0"></path></g></g><g clip-path="url(#__lottie_element_2092)" style="display: none;" transform="matrix(1,0,0,1,0,0)" opacity="1"><g clip-path="url(#__lottie_element_2093)"><g style="display: block;" transform="matrix(1,0,0,1,33.688995361328125,41.720001220703125)" opacity="1"><g opacity="1" transform="matrix(1,0,0,1,0,0)"><path stroke-linecap="round" stroke-linejoin="round" fill-opacity="0" stroke-dasharray=" 0 8" stroke-dashoffset="0" stroke="rgb(8,0,0)" stroke-opacity="1" stroke-width="2" d="M0 0"></path></g></g></g></g><g clip-path="url(#__lottie_element_2085)" style="display: none;" transform="matrix(-1,0,0,1,444,0)" opacity="1"><g clip-path="url(#__lottie_element_2086)"><g style="display: block;" transform="matrix(1,0,0,1,33.688995361328125,41.720001220703125)" opacity="1"><g opacity="1" transform="matrix(1,0,0,1,0,0)"><path stroke-linecap="round" stroke-linejoin="round" fill-opacity="0" stroke-dasharray=" 0 8" stroke-dashoffset="0" stroke="rgb(8,0,0)" stroke-opacity="1" stroke-width="2" d="M0 0"></path></g></g></g></g><g style="display: block;" transform="matrix(1,0,0,1,153.1820068359375,188.76699829101562)" opacity="1"><g opacity="1" transform="matrix(1,0,0,1,0,0)"><path stroke-linecap="round" stroke-linejoin="round" fill-opacity="0" stroke-dasharray=" 0 8" stroke-dashoffset="0" stroke="rgb(8,0,0)" stroke-opacity="1" stroke-width="2" d="M0 0"></path></g></g><g style="display: block;" transform="matrix(1,0,0,1,258.47601318359375,161.86300659179688)" opacity="1"><g opacity="1" transform="matrix(1,0,0,1,0,0)"><path stroke-linecap="round" stroke-linejoin="round" fill-opacity="0" stroke-dasharray=" 0 8" stroke-dashoffset="0" stroke="rgb(8,0,0)" stroke-opacity="1" stroke-width="2" d="M0 0"></path></g></g><g style="display: block;" transform="matrix(1,0,0,1,164.1320037841797,369.86199951171875)" opacity="1"><g opacity="1" transform="matrix(1,0,0,1,0,0)"><path stroke-linecap="round" stroke-linejoin="round" fill-opacity="0" stroke-dasharray=" 0 8" stroke-dashoffset="0" stroke="rgb(8,0,0)" stroke-opacity="1" stroke-width="2" d="M0 0"></path></g></g></g><g transform="matrix(1,0,0,1,502.0746154785156,396.3600769042969)" opacity="1" style="display: block;"><g opacity="1" transform="matrix(1,0,0,1,0,0)"><path fill="rgb(0,0,0)" fill-opacity="1" d=" M0,-8.300000190734863 C4.580770015716553,-8.300000190734863 8.300000190734863,-4.580770015716553 8.300000190734863,0 C8.300000190734863,4.580770015716553 4.580770015716553,8.300000190734863 0,8.300000190734863 C-4.580770015716553,8.300000190734863 -8.300000190734863,4.580770015716553 -8.300000190734863,0 C-8.300000190734863,-4.580770015716553 -4.580770015716553,-8.300000190734863 0,-8.300000190734863z"></path></g></g><g style="display: none;" transform="matrix(1.0107094049453735,0,0,1.0107094049453735,499.9460144042969,386.0906066894531)" opacity="0.019471698113192465"><g opacity="1" transform="matrix(1,0,0,1,0,0)"><path fill="rgb(80,34,98)" fill-opacity="1" d=" M0,-8.300000190734863 C4.580770015716553,-8.300000190734863 8.300000190734863,-4.580770015716553 8.300000190734863,0 C8.300000190734863,4.580770015716553 4.580770015716553,8.300000190734863 0,8.300000190734863 C-4.580770015716553,8.300000190734863 -8.300000190734863,4.580770015716553 -8.300000190734863,0 C-8.300000190734863,-4.580770015716553 -4.580770015716553,-8.300000190734863 0,-8.300000190734863z"></path></g></g><g style="display: none;" transform="matrix(1,0,0,1,500.09490966796875,500.2500305175781)" opacity="1"><g opacity="1" transform="matrix(1,0,0,1,0,0)"><path fill="rgb(116,42,166)" fill-opacity="1" d=" M0,-8.300000190734863 C4.580770015716553,-8.300000190734863 8.300000190734863,-4.580770015716553 8.300000190734863,0 C8.300000190734863,4.580770015716553 4.580770015716553,8.300000190734863 0,8.300000190734863 C-4.580770015716553,8.300000190734863 -8.300000190734863,4.580770015716553 -8.300000190734863,0 C-8.300000190734863,-4.580770015716553 -4.580770015716553,-8.300000190734863 0,-8.300000190734863z"></path></g></g><g style="display: none;" transform="matrix(1,0,0,1,500.09521484375,500.24981689453125)" opacity="0.49154716981130614"><g opacity="1" transform="matrix(1,0,0,1,0,0)"><path fill="rgb(116,42,166)" fill-opacity="1" d=" M0,-8.300000190734863 C4.580770015716553,-8.300000190734863 8.300000190734863,-4.580770015716553 8.300000190734863,0 C8.300000190734863,4.580770015716553 4.580770015716553,8.300000190734863 0,8.300000190734863 C-4.580770015716553,8.300000190734863 -8.300000190734863,4.580770015716553 -8.300000190734863,0 C-8.300000190734863,-4.580770015716553 -4.580770015716553,-8.300000190734863 0,-8.300000190734863z"></path></g></g><g transform="matrix(1,0,0,1,502.60650634765625,599.1210327148438)" opacity="1" style="display: block;"><g opacity="1" transform="matrix(1,0,0,1,0,0)"><path fill="rgb(0,0,0)" fill-opacity="1" d=" M0,-8.300000190734863 C4.580770015716553,-8.300000190734863 8.300000190734863,-4.580770015716553 8.300000190734863,0 C8.300000190734863,4.580770015716553 4.580770015716553,8.300000190734863 0,8.300000190734863 C-4.580770015716553,8.300000190734863 -8.300000190734863,4.580770015716553 -8.300000190734863,0 C-8.300000190734863,-4.580770015716553 -4.580770015716553,-8.300000190734863 0,-8.300000190734863z"></path></g></g><g style="display: none;" transform="matrix(1.0060175657272339,0,0,1.0060175657272339,499.9460144042969,613.5093994140625)" opacity="0.019471698113192465"><g opacity="1" transform="matrix(1,0,0,1,0,0)"><path fill="rgb(80,34,98)" fill-opacity="1" d=" M0,-8.300000190734863 C4.580770015716553,-8.300000190734863 8.300000190734863,-4.580770015716553 8.300000190734863,0 C8.300000190734863,4.580770015716553 4.580770015716553,8.300000190734863 0,8.300000190734863 C-4.580770015716553,8.300000190734863 -8.300000190734863,4.580770015716553 -8.300000190734863,0 C-8.300000190734863,-4.580770015716553 -4.580770015716553,-8.300000190734863 0,-8.300000190734863z"></path></g></g><g style="display: none;" transform="matrix(1.0060175657272339,0,0,1.0060175657272339,499.9460144042969,613.5093994140625)" opacity="0.019471698113192465"><g opacity="1" transform="matrix(1,0,0,1,0,0)"><path fill="rgb(80,34,98)" fill-opacity="1" d=" M0,-8.300000190734863 C4.580770015716553,-8.300000190734863 8.300000190734863,-4.580770015716553 8.300000190734863,0 C8.300000190734863,4.580770015716553 4.580770015716553,8.300000190734863 0,8.300000190734863 C-4.580770015716553,8.300000190734863 -8.300000190734863,4.580770015716553 -8.300000190734863,0 C-8.300000190734863,-4.580770015716553 -4.580770015716553,-8.300000190734863 0,-8.300000190734863z"></path></g></g><g style="display: none;" transform="matrix(1.0060175657272339,0,0,1.0060175657272339,499.9460144042969,613.5093994140625)" opacity="0.019471698113192465"><g opacity="1" transform="matrix(1,0,0,1,0,0)"><path fill="rgb(80,34,98)" fill-opacity="1" d=" M0,-8.300000190734863 C4.580770015716553,-8.300000190734863 8.300000190734863,-4.580770015716553 8.300000190734863,0 C8.300000190734863,4.580770015716553 4.580770015716553,8.300000190734863 0,8.300000190734863 C-4.580770015716553,8.300000190734863 -8.300000190734863,4.580770015716553 -8.300000190734863,0 C-8.300000190734863,-4.580770015716553 -4.580770015716553,-8.300000190734863 0,-8.300000190734863z"></path></g></g><g style="display: none;" transform="matrix(1.0060175657272339,0,0,1.0060175657272339,499.9460144042969,613.5093994140625)" opacity="0.019471698113192465"><g opacity="1" transform="matrix(1,0,0,1,0,0)"><path fill="rgb(80,34,98)" fill-opacity="1" d=" M0,-8.300000190734863 C4.580770015716553,-8.300000190734863 8.300000190734863,-4.580770015716553 8.300000190734863,0 C8.300000190734863,4.580770015716553 4.580770015716553,8.300000190734863 0,8.300000190734863 C-4.580770015716553,8.300000190734863 -8.300000190734863,4.580770015716553 -8.300000190734863,0 C-8.300000190734863,-4.580770015716553 -4.580770015716553,-8.300000190734863 0,-8.300000190734863z"></path></g></g><g transform="matrix(0.7071067690849304,0.7071067690849304,-0.7071067690849304,0.7071067690849304,573.230224609375,568.0685424804688)" opacity="1" style="display: block;"><g opacity="1" transform="matrix(1,0,0,1,0,0)"><path fill="rgb(0,0,0)" fill-opacity="1" d=" M0,-8.300000190734863 C4.580770015716553,-8.300000190734863 8.300000190734863,-4.580770015716553 8.300000190734863,0 C8.300000190734863,4.580770015716553 4.580770015716553,8.300000190734863 0,8.300000190734863 C-4.580770015716553,8.300000190734863 -8.300000190734863,4.580770015716553 -8.300000190734863,0 C-8.300000190734863,-4.580770015716553 -4.580770015716553,-8.300000190734863 0,-8.300000190734863z"></path></g></g><g style="display: none;" transform="matrix(1,0,0,1,585.9773559570312,586.037353515625)" opacity="0.019471698113192465"><g opacity="1" transform="matrix(1,0,0,1,0,0)"><path fill="rgb(79,35,98)" fill-opacity="1" d=" M0,-8.300000190734863 C4.580770015716553,-8.300000190734863 8.300000190734863,-4.580770015716553 8.300000190734863,0 C8.300000190734863,4.580770015716553 4.580770015716553,8.300000190734863 0,8.300000190734863 C-4.580770015716553,8.300000190734863 -8.300000190734863,4.580770015716553 -8.300000190734863,0 C-8.300000190734863,-4.580770015716553 -4.580770015716553,-8.300000190734863 0,-8.300000190734863z"></path></g></g><g style="display: none;" transform="matrix(1,0,0,1,585.9773559570312,586.037353515625)" opacity="0.019471698113192465"><g opacity="1" transform="matrix(1,0,0,1,0,0)"><path fill="rgb(79,35,98)" fill-opacity="1" d=" M0,-8.300000190734863 C4.580770015716553,-8.300000190734863 8.300000190734863,-4.580770015716553 8.300000190734863,0 C8.300000190734863,4.580770015716553 4.580770015716553,8.300000190734863 0,8.300000190734863 C-4.580770015716553,8.300000190734863 -8.300000190734863,4.580770015716553 -8.300000190734863,0 C-8.300000190734863,-4.580770015716553 -4.580770015716553,-8.300000190734863 0,-8.300000190734863z"></path></g></g><g style="display: none;" transform="matrix(1.0107094049453735,0,0,1.0107094049453735,585.9773559570312,586.037353515625)" opacity="0.019471698113192465"><g opacity="1" transform="matrix(1,0,0,1,0,0)"><path fill="rgb(79,35,98)" fill-opacity="1" d=" M0,-8.300000190734863 C4.580770015716553,-8.300000190734863 8.300000190734863,-4.580770015716553 8.300000190734863,0 C8.300000190734863,4.580770015716553 4.580770015716553,8.300000190734863 0,8.300000190734863 C-4.580770015716553,8.300000190734863 -8.300000190734863,4.580770015716553 -8.300000190734863,0 C-8.300000190734863,-4.580770015716553 -4.580770015716553,-8.300000190734863 0,-8.300000190734863z"></path></g></g><g style="display: none;" transform="matrix(1,0,0,1,585.9773559570312,586.037353515625)" opacity="0.019471698113192465"><g opacity="1" transform="matrix(1,0,0,1,0,0)"><path fill="rgb(80,34,98)" fill-opacity="1" d=" M0,-8.300000190734863 C4.580770015716553,-8.300000190734863 8.300000190734863,-4.580770015716553 8.300000190734863,0 C8.300000190734863,4.580770015716553 4.580770015716553,8.300000190734863 0,8.300000190734863 C-4.580770015716553,8.300000190734863 -8.300000190734863,4.580770015716553 -8.300000190734863,0 C-8.300000190734863,-4.580770015716553 -4.580770015716553,-8.300000190734863 0,-8.300000190734863z"></path></g></g><g style="display: none;" transform="matrix(1.0107094049453735,0,0,1.0107094049453735,585.9773559570312,586.037353515625)" opacity="0.019471698113192465"><g opacity="1" transform="matrix(1,0,0,1,0,0)"><path fill="rgb(80,34,98)" fill-opacity="1" d=" M0,-8.300000190734863 C4.580770015716553,-8.300000190734863 8.300000190734863,-4.580770015716553 8.300000190734863,0 C8.300000190734863,4.580770015716553 4.580770015716553,8.300000190734863 0,8.300000190734863 C-4.580770015716553,8.300000190734863 -8.300000190734863,4.580770015716553 -8.300000190734863,0 C-8.300000190734863,-4.580770015716553 -4.580770015716553,-8.300000190734863 0,-8.300000190734863z"></path></g></g><g transform="matrix(0.7071067690849304,-0.7071067690849304,0.7071067690849304,0.7071067690849304,572.7605590820312,430.7084045410156)" opacity="1" style="display: block;"><g opacity="1" transform="matrix(1,0,0,1,0,0)"><path fill="rgb(0,0,0)" fill-opacity="1" d=" M0,-8.300000190734863 C4.580770015716553,-8.300000190734863 8.300000190734863,-4.580770015716553 8.300000190734863,0 C8.300000190734863,4.580770015716553 4.580770015716553,8.300000190734863 0,8.300000190734863 C-4.580770015716553,8.300000190734863 -8.300000190734863,4.580770015716553 -8.300000190734863,0 C-8.300000190734863,-4.580770015716553 -4.580770015716553,-8.300000190734863 0,-8.300000190734863z"></path></g></g><g style="display: none;" transform="matrix(1.0107094049453735,0,0,1.0107094049453735,585.9773559570312,412.6971435546875)" opacity="0.019471698113192465"><g opacity="1" transform="matrix(1,0,0,1,0,0)"><path fill="rgb(79,35,98)" fill-opacity="1" d=" M0,-8.300000190734863 C4.580770015716553,-8.300000190734863 8.300000190734863,-4.580770015716553 8.300000190734863,0 C8.300000190734863,4.580770015716553 4.580770015716553,8.300000190734863 0,8.300000190734863 C-4.580770015716553,8.300000190734863 -8.300000190734863,4.580770015716553 -8.300000190734863,0 C-8.300000190734863,-4.580770015716553 -4.580770015716553,-8.300000190734863 0,-8.300000190734863z"></path></g></g><g style="display: none;" transform="matrix(1.0107094049453735,0,0,1.0107094049453735,585.9773559570312,412.6971435546875)" opacity="0.019471698113192465"><g opacity="1" transform="matrix(1,0,0,1,0,0)"><path fill="rgb(79,35,98)" fill-opacity="1" d=" M0,-8.300000190734863 C4.580770015716553,-8.300000190734863 8.300000190734863,-4.580770015716553 8.300000190734863,0 C8.300000190734863,4.580770015716553 4.580770015716553,8.300000190734863 0,8.300000190734863 C-4.580770015716553,8.300000190734863 -8.300000190734863,4.580770015716553 -8.300000190734863,0 C-8.300000190734863,-4.580770015716553 -4.580770015716553,-8.300000190734863 0,-8.300000190734863z"></path></g></g><g style="display: none;" transform="matrix(1.0107094049453735,0,0,1.0107094049453735,585.9773559570312,412.6971435546875)" opacity="0.019471698113192465"><g opacity="1" transform="matrix(1,0,0,1,0,0)"><path fill="rgb(79,35,98)" fill-opacity="1" d=" M0,-8.300000190734863 C4.580770015716553,-8.300000190734863 8.300000190734863,-4.580770015716553 8.300000190734863,0 C8.300000190734863,4.580770015716553 4.580770015716553,8.300000190734863 0,8.300000190734863 C-4.580770015716553,8.300000190734863 -8.300000190734863,4.580770015716553 -8.300000190734863,0 C-8.300000190734863,-4.580770015716553 -4.580770015716553,-8.300000190734863 0,-8.300000190734863z"></path></g></g><g style="display: none;" transform="matrix(1,0,0,1,585.9773559570312,412.6971435546875)" opacity="0.019471698113192465"><g opacity="1" transform="matrix(1,0,0,1,0,0)"><path fill="rgb(79,35,98)" fill-opacity="1" d=" M0,-8.300000190734863 C4.580770015716553,-8.300000190734863 8.300000190734863,-4.580770015716553 8.300000190734863,0 C8.300000190734863,4.580770015716553 4.580770015716553,8.300000190734863 0,8.300000190734863 C-4.580770015716553,8.300000190734863 -8.300000190734863,4.580770015716553 -8.300000190734863,0 C-8.300000190734863,-4.580770015716553 -4.580770015716553,-8.300000190734863 0,-8.300000190734863z"></path></g></g><g style="display: none;" transform="matrix(1,0,0,1,613.5093994140625,499.8599853515625)" opacity="0.019471698113192465"><g opacity="1" transform="matrix(1,0,0,1,0,0)"><path fill="rgb(79,35,98)" fill-opacity="1" d=" M0,-8.300000190734863 C4.580770015716553,-8.300000190734863 8.300000190734863,-4.580770015716553 8.300000190734863,0 C8.300000190734863,4.580770015716553 4.580770015716553,8.300000190734863 0,8.300000190734863 C-4.580770015716553,8.300000190734863 -8.300000190734863,4.580770015716553 -8.300000190734863,0 C-8.300000190734863,-4.580770015716553 -4.580770015716553,-8.300000190734863 0,-8.300000190734863z"></path></g></g><g transform="matrix(1,0,0,1,602.0299682617188,498.945556640625)" opacity="1" style="display: block;"><g opacity="1" transform="matrix(1,0,0,1,0,0)"><path fill="rgb(0,0,0)" fill-opacity="1" d=" M0,-8.300000190734863 C4.580770015716553,-8.300000190734863 8.300000190734863,-4.580770015716553 8.300000190734863,0 C8.300000190734863,4.580770015716553 4.580770015716553,8.300000190734863 0,8.300000190734863 C-4.580770015716553,8.300000190734863 -8.300000190734863,4.580770015716553 -8.300000190734863,0 C-8.300000190734863,-4.580770015716553 -4.580770015716553,-8.300000190734863 0,-8.300000190734863z"></path></g></g><g style="display: none;" transform="matrix(1.0107094049453735,0,0,1.0107094049453735,613.5093994140625,499.8599853515625)" opacity="0.019471698113192465"><g opacity="1" transform="matrix(1,0,0,1,0,0)"><path fill="rgb(79,35,98)" fill-opacity="1" d=" M0,-8.300000190734863 C4.580770015716553,-8.300000190734863 8.300000190734863,-4.580770015716553 8.300000190734863,0 C8.300000190734863,4.580770015716553 4.580770015716553,8.300000190734863 0,8.300000190734863 C-4.580770015716553,8.300000190734863 -8.300000190734863,4.580770015716553 -8.300000190734863,0 C-8.300000190734863,-4.580770015716553 -4.580770015716553,-8.300000190734863 0,-8.300000190734863z"></path></g></g><g style="display: none;" transform="matrix(1.0107094049453735,0,0,1.0107094049453735,613.5093994140625,499.8599853515625)" opacity="0.019471698113192465"><g opacity="1" transform="matrix(1,0,0,1,0,0)"><path fill="rgb(79,35,98)" fill-opacity="1" d=" M0,-8.300000190734863 C4.580770015716553,-8.300000190734863 8.300000190734863,-4.580770015716553 8.300000190734863,0 C8.300000190734863,4.580770015716553 4.580770015716553,8.300000190734863 0,8.300000190734863 C-4.580770015716553,8.300000190734863 -8.300000190734863,4.580770015716553 -8.300000190734863,0 C-8.300000190734863,-4.580770015716553 -4.580770015716553,-8.300000190734863 0,-8.300000190734863z"></path></g></g><g style="display: none;" transform="matrix(1.0107094049453735,0,0,1.0107094049453735,613.5093994140625,499.8599853515625)" opacity="0.019471698113192465"><g opacity="1" transform="matrix(1,0,0,1,0,0)"><path fill="rgb(79,35,98)" fill-opacity="1" d=" M0,-8.300000190734863 C4.580770015716553,-8.300000190734863 8.300000190734863,-4.580770015716553 8.300000190734863,0 C8.300000190734863,4.580770015716553 4.580770015716553,8.300000190734863 0,8.300000190734863 C-4.580770015716553,8.300000190734863 -8.300000190734863,4.580770015716553 -8.300000190734863,0 C-8.300000190734863,-4.580770015716553 -4.580770015716553,-8.300000190734863 0,-8.300000190734863z"></path></g></g><g style="display: none;" transform="matrix(0.714679479598999,0.714679479598999,-0.714679479598999,0.714679479598999,413.62261962890625,413.6826171875)" opacity="0.019471698113192465"><g opacity="1" transform="matrix(1,0,0,1,0,0)"><path fill="rgb(82,34,95)" fill-opacity="1" d=" M0,-8.300000190734863 C4.580770015716553,-8.300000190734863 8.300000190734863,-4.580770015716553 8.300000190734863,0 C8.300000190734863,4.580770015716553 4.580770015716553,8.300000190734863 0,8.300000190734863 C-4.580770015716553,8.300000190734863 -8.300000190734863,4.580770015716553 -8.300000190734863,0 C-8.300000190734863,-4.580770015716553 -4.580770015716553,-8.300000190734863 0,-8.300000190734863z"></path></g></g><g style="display: none;" transform="matrix(0.714679479598999,0.714679479598999,-0.714679479598999,0.714679479598999,413.62261962890625,413.6826171875)" opacity="0.019471698113192465"><g opacity="1" transform="matrix(1,0,0,1,0,0)"><path fill="rgb(82,34,95)" fill-opacity="1" d=" M0,-8.300000190734863 C4.580770015716553,-8.300000190734863 8.300000190734863,-4.580770015716553 8.300000190734863,0 C8.300000190734863,4.580770015716553 4.580770015716553,8.300000190734863 0,8.300000190734863 C-4.580770015716553,8.300000190734863 -8.300000190734863,4.580770015716553 -8.300000190734863,0 C-8.300000190734863,-4.580770015716553 -4.580770015716553,-8.300000190734863 0,-8.300000190734863z"></path></g></g><g style="display: none;" transform="matrix(0.714679479598999,0.714679479598999,-0.714679479598999,0.714679479598999,413.62261962890625,413.6826171875)" opacity="0.019471698113192465"><g opacity="1" transform="matrix(1,0,0,1,0,0)"><path fill="rgb(82,34,95)" fill-opacity="1" d=" M0,-8.300000190734863 C4.580770015716553,-8.300000190734863 8.300000190734863,-4.580770015716553 8.300000190734863,0 C8.300000190734863,4.580770015716553 4.580770015716553,8.300000190734863 0,8.300000190734863 C-4.580770015716553,8.300000190734863 -8.300000190734863,4.580770015716553 -8.300000190734863,0 C-8.300000190734863,-4.580770015716553 -4.580770015716553,-8.300000190734863 0,-8.300000190734863z"></path></g></g><g style="display: none;" transform="matrix(0.7071067690849304,0.7071067690849304,-0.7071067690849304,0.7071067690849304,413.62261962890625,413.6826171875)" opacity="0.019471698113192465"><g opacity="1" transform="matrix(1,0,0,1,0,0)"><path fill="rgb(82,34,95)" fill-opacity="1" d=" M0,-8.300000190734863 C4.580770015716553,-8.300000190734863 8.300000190734863,-4.580770015716553 8.300000190734863,0 C8.300000190734863,4.580770015716553 4.580770015716553,8.300000190734863 0,8.300000190734863 C-4.580770015716553,8.300000190734863 -8.300000190734863,4.580770015716553 -8.300000190734863,0 C-8.300000190734863,-4.580770015716553 -4.580770015716553,-8.300000190734863 0,-8.300000190734863z"></path></g></g><g style="display: none;" transform="matrix(0.7071067690849304,0.7071067690849304,-0.7071067690849304,0.7071067690849304,413.62261962890625,413.6826171875)" opacity="0.019471698113192465"><g opacity="1" transform="matrix(1,0,0,1,0,0)"><path fill="rgb(82,34,95)" fill-opacity="1" d=" M0,-8.300000190734863 C4.580770015716553,-8.300000190734863 8.300000190734863,-4.580770015716553 8.300000190734863,0 C8.300000190734863,4.580770015716553 4.580770015716553,8.300000190734863 0,8.300000190734863 C-4.580770015716553,8.300000190734863 -8.300000190734863,4.580770015716553 -8.300000190734863,0 C-8.300000190734863,-4.580770015716553 -4.580770015716553,-8.300000190734863 0,-8.300000190734863z"></path></g></g><g transform="matrix(0.6946583986282349,0.7193397879600525,-0.7193397879600525,0.6946583986282349,433.3320007324219,429.44085693359375)" opacity="1" style="display: block;"><g opacity="1" transform="matrix(1,0,0,1,0,0)"><path fill="rgb(0,0,0)" fill-opacity="1" d=" M0,-8.300000190734863 C4.580770015716553,-8.300000190734863 8.300000190734863,-4.580770015716553 8.300000190734863,0 C8.300000190734863,4.580770015716553 4.580770015716553,8.300000190734863 0,8.300000190734863 C-4.580770015716553,8.300000190734863 -8.300000190734863,4.580770015716553 -8.300000190734863,0 C-8.300000190734863,-4.580770015716553 -4.580770015716553,-8.300000190734863 0,-8.300000190734863z"></path></g></g><g transform="matrix(0.7071067690849304,-0.7071067690849304,0.7071067690849304,0.7071067690849304,429.1600341796875,569.6655883789062)" opacity="1" style="display: block;"><g opacity="1" transform="matrix(1,0,0,1,0,0)"><path fill="rgb(0,0,0)" fill-opacity="1" d=" M0,-8.300000190734863 C4.580770015716553,-8.300000190734863 8.300000190734863,-4.580770015716553 8.300000190734863,0 C8.300000190734863,4.580770015716553 4.580770015716553,8.300000190734863 0,8.300000190734863 C-4.580770015716553,8.300000190734863 -8.300000190734863,4.580770015716553 -8.300000190734863,0 C-8.300000190734863,-4.580770015716553 -4.580770015716553,-8.300000190734863 0,-8.300000190734863z"></path></g></g><g style="display: none;" transform="matrix(0.7071067690849304,-0.7071067690849304,0.7071067690849304,0.7071067690849304,413.62261962890625,586.037353515625)" opacity="0.019471698113192465"><g opacity="1" transform="matrix(1,0,0,1,0,0)"><path fill="rgb(82,34,95)" fill-opacity="1" d=" M0,-8.300000190734863 C4.580770015716553,-8.300000190734863 8.300000190734863,-4.580770015716553 8.300000190734863,0 C8.300000190734863,4.580770015716553 4.580770015716553,8.300000190734863 0,8.300000190734863 C-4.580770015716553,8.300000190734863 -8.300000190734863,4.580770015716553 -8.300000190734863,0 C-8.300000190734863,-4.580770015716553 -4.580770015716553,-8.300000190734863 0,-8.300000190734863z"></path></g></g><g style="display: none;" transform="matrix(0.714679479598999,-0.714679479598999,0.714679479598999,0.714679479598999,413.62261962890625,586.037353515625)" opacity="0.019471698113192465"><g opacity="1" transform="matrix(1,0,0,1,0,0)"><path fill="rgb(82,34,95)" fill-opacity="1" d=" M0,-8.300000190734863 C4.580770015716553,-8.300000190734863 8.300000190734863,-4.580770015716553 8.300000190734863,0 C8.300000190734863,4.580770015716553 4.580770015716553,8.300000190734863 0,8.300000190734863 C-4.580770015716553,8.300000190734863 -8.300000190734863,4.580770015716553 -8.300000190734863,0 C-8.300000190734863,-4.580770015716553 -4.580770015716553,-8.300000190734863 0,-8.300000190734863z"></path></g></g><g style="display: none;" transform="matrix(0.7071067690849304,-0.7071067690849304,0.7071067690849304,0.7071067690849304,413.62261962890625,586.037353515625)" opacity="0.019471698113192465"><g opacity="1" transform="matrix(1,0,0,1,0,0)"><path fill="rgb(82,34,95)" fill-opacity="1" d=" M0,-8.300000190734863 C4.580770015716553,-8.300000190734863 8.300000190734863,-4.580770015716553 8.300000190734863,0 C8.300000190734863,4.580770015716553 4.580770015716553,8.300000190734863 0,8.300000190734863 C-4.580770015716553,8.300000190734863 -8.300000190734863,4.580770015716553 -8.300000190734863,0 C-8.300000190734863,-4.580770015716553 -4.580770015716553,-8.300000190734863 0,-8.300000190734863z"></path></g></g><g style="display: none;" transform="matrix(1,0,0,1,413.62261962890625,586.037353515625)" opacity="0.019471698113192465"><g opacity="1" transform="matrix(1,0,0,1,0,0)"><path fill="rgb(82,34,95)" fill-opacity="1" d="M0 0"></path></g><g opacity="1" transform="matrix(1,0,0,1,0,0)"><path fill="rgb(80,34,98)" fill-opacity="1" d=" M0,-8.300000190734863 C4.580770015716553,-8.300000190734863 8.300000190734863,-4.580770015716553 8.300000190734863,0 C8.300000190734863,4.580770015716553 4.580770015716553,8.300000190734863 0,8.300000190734863 C-4.580770015716553,8.300000190734863 -8.300000190734863,4.580770015716553 -8.300000190734863,0 C-8.300000190734863,-4.580770015716553 -4.580770015716553,-8.300000190734863 0,-8.300000190734863z"></path></g></g><g style="display: none;" transform="matrix(1.0107094049453735,0,0,1.0107094049453735,413.62261962890625,586.037353515625)" opacity="0.019471698113192465"><g opacity="1" transform="matrix(1,0,0,1,0,0)"><path fill="rgb(82,34,95)" fill-opacity="1" d="M0 0"></path></g><g opacity="1" transform="matrix(1,0,0,1,0,0)"><path fill="rgb(80,34,98)" fill-opacity="1" d=" M0,-8.300000190734863 C4.580770015716553,-8.300000190734863 8.300000190734863,-4.580770015716553 8.300000190734863,0 C8.300000190734863,4.580770015716553 4.580770015716553,8.300000190734863 0,8.300000190734863 C-4.580770015716553,8.300000190734863 -8.300000190734863,4.580770015716553 -8.300000190734863,0 C-8.300000190734863,-4.580770015716553 -4.580770015716553,-8.300000190734863 0,-8.300000190734863z"></path></g></g><g transform="matrix(1,0,0,1,393.5653991699219,496.09552001953125)" opacity="1" style="display: block;"><g opacity="1" transform="matrix(1,0,0,1,0,0)"><path fill="rgb(0,0,0)" fill-opacity="1" d=" M0,-8.300000190734863 C4.580770015716553,-8.300000190734863 8.300000190734863,-4.580770015716553 8.300000190734863,0 C8.300000190734863,4.580770015716553 4.580770015716553,8.300000190734863 0,8.300000190734863 C-4.580770015716553,8.300000190734863 -8.300000190734863,4.580770015716553 -8.300000190734863,0 C-8.300000190734863,-4.580770015716553 -4.580770015716553,-8.300000190734863 0,-8.300000190734863z"></path></g></g><g style="display: none;" transform="matrix(1,0,0,1,386.0906066894531,499.8599853515625)" opacity="0.019471698113192465"><g opacity="1" transform="matrix(1,0,0,1,0,0)"><path fill="rgb(82,34,95)" fill-opacity="1" d=" M0,-8.300000190734863 C4.580770015716553,-8.300000190734863 8.300000190734863,-4.580770015716553 8.300000190734863,0 C8.300000190734863,4.580770015716553 4.580770015716553,8.300000190734863 0,8.300000190734863 C-4.580770015716553,8.300000190734863 -8.300000190734863,4.580770015716553 -8.300000190734863,0 C-8.300000190734863,-4.580770015716553 -4.580770015716553,-8.300000190734863 0,-8.300000190734863z"></path></g></g><g style="display: none;" transform="matrix(1,0,0,1,386.0906066894531,499.8599853515625)" opacity="0.019471698113192465"><g opacity="1" transform="matrix(1,0,0,1,0,0)"><path fill="rgb(82,34,95)" fill-opacity="1" d=" M0,-8.300000190734863 C4.580770015716553,-8.300000190734863 8.300000190734863,-4.580770015716553 8.300000190734863,0 C8.300000190734863,4.580770015716553 4.580770015716553,8.300000190734863 0,8.300000190734863 C-4.580770015716553,8.300000190734863 -8.300000190734863,4.580770015716553 -8.300000190734863,0 C-8.300000190734863,-4.580770015716553 -4.580770015716553,-8.300000190734863 0,-8.300000190734863z"></path></g></g><g style="display: none;" transform="matrix(1.0107094049453735,0,0,1.0107094049453735,386.0906066894531,499.8599853515625)" opacity="0.019471698113192465"><g opacity="1" transform="matrix(1,0,0,1,0,0)"><path fill="rgb(82,34,95)" fill-opacity="1" d=" M0,-8.300000190734863 C4.580770015716553,-8.300000190734863 8.300000190734863,-4.580770015716553 8.300000190734863,0 C8.300000190734863,4.580770015716553 4.580770015716553,8.300000190734863 0,8.300000190734863 C-4.580770015716553,8.300000190734863 -8.300000190734863,4.580770015716553 -8.300000190734863,0 C-8.300000190734863,-4.580770015716553 -4.580770015716553,-8.300000190734863 0,-8.300000190734863z"></path></g></g><g style="display: none;" transform="matrix(1.0107094049453735,0,0,1.0107094049453735,386.0906066894531,499.8599853515625)" opacity="0.019471698113192465"><g opacity="1" transform="matrix(1,0,0,1,0,0)"><path fill="rgb(82,34,95)" fill-opacity="1" d=" M0,-8.300000190734863 C4.580770015716553,-8.300000190734863 8.300000190734863,-4.580770015716553 8.300000190734863,0 C8.300000190734863,4.580770015716553 4.580770015716553,8.300000190734863 0,8.300000190734863 C-4.580770015716553,8.300000190734863 -8.300000190734863,4.580770015716553 -8.300000190734863,0 C-8.300000190734863,-4.580770015716553 -4.580770015716553,-8.300000190734863 0,-8.300000190734863z"></path></g></g><g style="display: none;" transform="matrix(1,0,0,1,386.0906066894531,499.8599853515625)" opacity="0.019471698113192465"><g opacity="1" transform="matrix(1,0,0,1,0,0)"><path fill="rgb(82,34,95)" fill-opacity="1" d=" M0,-8.300000190734863 C4.580770015716553,-8.300000190734863 8.300000190734863,-4.580770015716553 8.300000190734863,0 C8.300000190734863,4.580770015716553 4.580770015716553,8.300000190734863 0,8.300000190734863 C-4.580770015716553,8.300000190734863 -8.300000190734863,4.580770015716553 -8.300000190734863,0 C-8.300000190734863,-4.580770015716553 -4.580770015716553,-8.300000190734863 0,-8.300000190734863z"></path></g></g><g transform="matrix(1,0,0,1,500,500)" opacity="1" style="display: block;"><g opacity="1" transform="matrix(1,0,0,1,0,0)"><path fill="rgb(0,0,0)" fill-opacity="1" d=" M0,-8.300000190734863 C4.580770015716553,-8.300000190734863 8.300000190734863,-4.580770015716553 8.300000190734863,0 C8.300000190734863,4.580770015716553 4.580770015716553,8.300000190734863 0,8.300000190734863 C-4.580770015716553,8.300000190734863 -8.300000190734863,4.580770015716553 -8.300000190734863,0 C-8.300000190734863,-4.580770015716553 -4.580770015716553,-8.300000190734863 0,-8.300000190734863z"></path></g></g><g style="display: none;" transform="matrix(1.0107094049453735,0,0,1.0107094049453735,500,500)" opacity="0.019471698113192465"><g opacity="1" transform="matrix(1,0,0,1,0,0)"><path fill="rgb(80,34,98)" fill-opacity="1" d=" M0,-8.300000190734863 C4.580770015716553,-8.300000190734863 8.300000190734863,-4.580770015716553 8.300000190734863,0 C8.300000190734863,4.580770015716553 4.580770015716553,8.300000190734863 0,8.300000190734863 C-4.580770015716553,8.300000190734863 -8.300000190734863,4.580770015716553 -8.300000190734863,0 C-8.300000190734863,-4.580770015716553 -4.580770015716553,-8.300000190734863 0,-8.300000190734863z"></path></g></g><g style="display: none;" transform="matrix(1,0,0,1,500,500)" opacity="1"><g opacity="1" transform="matrix(1,0,0,1,0,0)"><path fill="rgb(116,42,166)" fill-opacity="1" d=" M0,-8.300000190734863 C4.580770015716553,-8.300000190734863 8.300000190734863,-4.580770015716553 8.300000190734863,0 C8.300000190734863,4.580770015716553 4.580770015716553,8.300000190734863 0,8.300000190734863 C-4.580770015716553,8.300000190734863 -8.300000190734863,4.580770015716553 -8.300000190734863,0 C-8.300000190734863,-4.580770015716553 -4.580770015716553,-8.300000190734863 0,-8.300000190734863z"></path></g></g></g><g clip-path="url(#__lottie_element_1743)" style="display: none;"><g clip-path="url(#__lottie_element_1885)" style="display: none;"><g style="display: none;"><g><path stroke-linecap="round" stroke-linejoin="round" fill-opacity="0"></path></g></g><g style="display: none;"><g><path stroke-linecap="round" stroke-linejoin="round" fill-opacity="0"></path></g></g><g style="display: none;"><g><path stroke-linecap="round" stroke-linejoin="round" fill-opacity="0"></path></g></g><g style="display: none;"><g><path stroke-linecap="round" stroke-linejoin="round" fill-opacity="0"></path></g></g><g style="display: none;"><g><path stroke-linecap="round" stroke-linejoin="round" fill-opacity="0"></path></g></g><g style="display: none;"><g><path stroke-linecap="round" stroke-linejoin="round" fill-opacity="0"></path></g></g><g clip-path="url(#__lottie_element_1905)" style="display: none;"><g clip-path="url(#__lottie_element_1906)"><g style="display: none;"><g><path stroke-linecap="round" stroke-linejoin="round" fill-opacity="0"></path></g></g></g></g><g clip-path="url(#__lottie_element_1898)" style="display: none;"><g clip-path="url(#__lottie_element_1899)"><g style="display: none;"><g><path stroke-linecap="round" stroke-linejoin="round" fill-opacity="0"></path></g></g></g></g><g style="display: none;"><g><path stroke-linecap="round" stroke-linejoin="round" fill-opacity="0"></path></g></g><g style="display: none;"><g><path stroke-linecap="round" stroke-linejoin="round" fill-opacity="0"></path></g></g><g style="display: none;"><g><path stroke-linecap="round" stroke-linejoin="round" fill-opacity="0"></path></g></g></g><g style="display: none;"><g><path></path></g></g><g style="display: none;"><g><path></path></g></g><g style="display: none;"><g><path></path></g></g><g style="display: none;"><g><path></path></g></g><g style="display: none;"><g><path></path></g></g><g style="display: none;"><g><path></path></g></g><g style="display: none;"><g><path></path></g></g><g style="display: none;"><g><path></path></g></g><g style="display: none;"><g><path></path></g></g><g style="display: none;"><g><path></path></g></g><g style="display: none;"><g><path></path></g></g><g style="display: none;"><g><path></path></g></g><g style="display: none;"><g><path></path></g></g><g style="display: none;"><g><path></path></g></g><g style="display: none;"><g><path></path></g></g><g style="display: none;"><g><path></path></g></g><g style="display: none;"><g><path></path></g></g><g style="display: none;"><g><path></path></g></g><g style="display: none;"><g><path></path></g></g><g style="display: none;"><g><path></path></g></g><g style="display: none;"><g><path></path></g></g><g style="display: none;"><g><path></path></g></g><g style="display: none;"><g><path></path></g></g><g style="display: none;"><g><path></path></g></g><g style="display: none;"><g><path></path></g></g><g style="display: none;"><g><path></path></g></g><g style="display: none;"><g><path></path></g></g><g style="display: none;"><g><path></path></g></g><g style="display: none;"><g><path></path></g></g><g style="display: none;"><g><path></path></g></g><g style="display: none;"><g><path></path></g></g><g style="display: none;"><g><path></path></g></g><g style="display: none;"><g><path></path></g></g><g style="display: none;"><g><path></path></g></g><g style="display: none;"><g><path></path></g></g><g style="display: none;"><g><path></path></g><g><path></path></g></g><g style="display: none;"><g><path></path></g><g><path></path></g></g><g style="display: none;"><g><path></path></g></g><g style="display: none;"><g><path></path></g></g><g style="display: none;"><g><path></path></g></g><g style="display: none;"><g><path></path></g></g><g style="display: none;"><g><path></path></g></g><g style="display: none;"><g><path></path></g></g><g style="display: none;"><g><path></path></g></g><g style="display: none;"><g><path></path></g></g><g style="display: none;"><g><path></path></g></g></g></g></svg>