<svg xmlns="http://www.w3.org/2000/svg" viewBox="0 0 900 900" width="100" height="100" preserveAspectRatio="xMidYMid meet" style="width: 100%; height: 100%; transform: translate3d(0px, 0px, 0px);"><defs><clipPath id="__lottie_element_1741"><rect width="900" height="900" x="0" y="0"></rect></clipPath><clipPath id="__lottie_element_1743"><path d="M0,0 L1000,0 L1000,1000 L0,1000z"></path></clipPath><clipPath id="__lottie_element_1885"><path d="M0,0 L444,0 L444,421 L0,421z"></path></clipPath><clipPath id="__lottie_element_1898"><path d="M0,0 L444,0 L444,421 L0,421z"></path></clipPath><clipPath id="__lottie_element_1899"><path fill="#ffffff" clip-rule="nonzero" d=" M814,-148 C814,-148 222,-148 222,-148 C222,-148 222,584 222,584 C222,584 814,584 814,584 C814,584 814,-148 814,-148"></path></clipPath><clipPath id="__lottie_element_1905"><path d="M0,0 L444,0 L444,421 L0,421z"></path></clipPath><clipPath id="__lottie_element_1906"><path fill="#ffffff" clip-rule="nonzero" d=" M814,-148 C814,-148 222,-148 222,-148 C222,-148 222,584 222,584 C222,584 814,584 814,584 C814,584 814,-148 814,-148"></path></clipPath><clipPath id="__lottie_element_1930"><path d="M0,0 L1000,0 L1000,1000 L0,1000z"></path></clipPath><clipPath id="__lottie_element_2072"><path d="M0,0 L444,0 L444,421 L0,421z"></path></clipPath><clipPath id="__lottie_element_2085"><path d="M0,0 L444,0 L444,421 L0,421z"></path></clipPath><clipPath id="__lottie_element_2086"><path fill="#ffffff" clip-rule="nonzero" d=" M814,-148 C814,-148 222,-148 222,-148 C222,-148 222,584 222,584 C222,584 814,584 814,584 C814,584 814,-148 814,-148" fill-opacity="1"></path></clipPath><clipPath id="__lottie_element_2092"><path d="M0,0 L444,0 L444,421 L0,421z"></path></clipPath><clipPath id="__lottie_element_2093"><path fill="#ffffff" clip-rule="nonzero" d=" M814,-148 C814,-148 222,-148 222,-148 C222,-148 222,584 222,584 C222,584 814,584 814,584 C814,584 814,-148 814,-148" fill-opacity="1"></path></clipPath></defs><g clip-path="url(#__lottie_element_1741)"><g clip-path="url(#__lottie_element_1930)" transform="matrix(1,0,0,1,-50,-50)" opacity="1" style="display: block;"><g clip-path="url(#__lottie_element_2072)" style="display: block;" transform="matrix(1.840000033378601,0,0,1.840000033378601,93.01998901367188,110.67999267578125)" opacity="1"><g style="display: block;" transform="matrix(1,0,0,1,58.59100341796875,53.11399841308594)" opacity="1"><g opacity="1" transform="matrix(1,0,0,1,0,0)"><path stroke-linecap="round" stroke-linejoin="round" fill-opacity="0" stroke-dasharray=" 0 8" stroke-dashoffset="0" stroke="rgb(8,0,0)" stroke-opacity="1" stroke-width="2" d=" M263.8630065917969,40.44300079345703 C254.83700561523438,40.67599868774414 200.20899963378906,42.084999084472656 200.20899963378906,42.084999084472656 C200.20899963378906,42.084999084472656 160.69200134277344,0 160.69200134277344,0 C160.69200134277344,0 122.28800201416016,45.08399963378906 122.28800201416016,45.08399963378906 C122.28800201416016,45.08399963378906 57.31399917602539,45.00699996948242 57.31399917602539,45.00699996948242 C57.31399917602539,45.00699996948242 38.44300079345703,98.61199951171875 38.44300079345703,98.61199951171875 C38.44300079345703,98.61199951171875 0,140.46400451660156 0,140.46400451660156 C0,140.46400451660156 43.62099838256836,197.5469970703125 43.62099838256836,197.5469970703125 C43.62099838256836,197.5469970703125 17.44700050354004,250.43299865722656 17.44700050354004,250.43299865722656 C60.73099899291992,263.52899169921875 91.76899719238281,286.5220031738281 105.54000091552734,323.4590148925781 C105.54000091552734,323.4590148925781 162.95199584960938,290.56500244140625 162.95199584960938,290.56500244140625 C162.95199584960938,290.56500244140625 162.95199584960938,290.56500244140625 162.95199584960938,290.56500244140625 C162.95199584960938,290.56500244140625 220.35899353027344,323.4590148925781 220.35899353027344,323.4590148925781 C237.1179962158203,284.9049987792969 263.52801513671875,257.2380065917969 308.447998046875,250.43299865722656 C308.447998046875,250.43299865722656 280.35400390625,193.6580047607422 280.35400390625,193.6580047607422 C280.35400390625,193.6580047607422 325.89898681640625,140.46400451660156 325.89898681640625,140.46400451660156 C325.89898681640625,140.46400451660156 287.4590148925781,98.61199951171875 287.4590148925781,98.61199951171875 C287.4590148925781,98.61199951171875 265.1189880371094,40.4109992980957 265.1189880371094,40.4109992980957 C265.1189880371094,40.4109992980957 264.6759948730469,40.422000885009766 263.8630065917969,40.44300079345703"></path></g></g><g style="display: block;" transform="matrix(1,0,0,1,1,2)" opacity="1"><g opacity="1" transform="matrix(1,0,0,1,0,0)"><path stroke-linecap="round" stroke-linejoin="round" fill-opacity="0" stroke-dasharray=" 0 8" stroke-dashoffset="0" stroke="rgb(8,0,0)" stroke-opacity="1" stroke-width="2" d=" M340.71099853515625,377.5199890136719 C328.302001953125,388.4020080566406 297.1440124511719,415.7279968261719 297.1440124511719,415.7279968261719 C297.1440124511719,415.7279968261719 220.5469970703125,418.6839904785156 220.5469970703125,418.6839904785156 C220.5469970703125,418.6839904785156 152.1840057373047,415.7279968261719 152.1840057373047,415.7279968261719 C152.1840057373047,415.7279968261719 95.37200164794922,373.125 95.37200164794922,373.125 C95.37200164794922,373.125 26.604000091552734,335.9200134277344 26.604000091552734,335.9200134277344 C26.604000091552734,335.9200134277344 28.76799964904785,257.7640075683594 28.76799964904785,257.7640075683594 C28.76799964904785,257.7640075683594 0,185.0570068359375 0,185.0570068359375 C0,185.0570068359375 51.902000427246094,126.58100128173828 51.902000427246094,126.58100128173828 C51.902000427246094,126.58100128173828 76.59600067138672,52.39099884033203 76.59600067138672,52.39099884033203 C76.59600067138672,52.39099884033203 153.94200134277344,40.957000732421875 153.94200134277344,40.957000732421875 C153.94200134277344,40.957000732421875 220.5469970703125,0 220.5469970703125,0 C220.5469970703125,0 220.5469970703125,0 220.5469970703125,0 C220.5469970703125,0 251.92799377441406,19.29800033569336 251.92799377441406,19.29800033569336 C251.92799377441406,19.29800033569336 287.1510009765625,40.957000732421875 287.1510009765625,40.957000732421875 C287.1510009765625,40.957000732421875 364.5,52.39099884033203 364.5,52.39099884033203 C364.5,52.39099884033203 389.1919860839844,126.58100128173828 389.1919860839844,126.58100128173828 C389.1919860839844,126.58100128173828 441.0920104980469,185.0570068359375 441.0920104980469,185.0570068359375 C441.0920104980469,185.0570068359375 427.0880126953125,220.4530029296875 427.0880126953125,220.4530029296875 C427.0880126953125,220.4530029296875 412.3240051269531,257.7640075683594 412.3240051269531,257.7640075683594 C412.3240051269531,257.7640075683594 414.4939880371094,335.9200134277344 414.4939880371094,335.9200134277344 C414.4939880371094,335.9200134277344 345.72198486328125,373.125 345.72198486328125,373.125 C345.72198486328125,373.125 343.7959899902344,374.8139953613281 340.71099853515625,377.5199890136719"></path></g></g><g style="display: block;" transform="matrix(1,0,0,1,97.03400421142578,151.72500610351562)" opacity="1"><g opacity="1" transform="matrix(1,0,0,1,0,0)"><path stroke-linecap="round" stroke-linejoin="round" fill-opacity="0" stroke-dasharray=" 0 8" stroke-dashoffset="0" stroke="rgb(8,0,0)" stroke-opacity="1" stroke-width="2" d=" M249.28500366210938,0 C249.28500366210938,0 153.61900329589844,39.24300003051758 153.61900329589844,39.24300003051758 C153.61900329589844,39.24300003051758 178.1699981689453,114.28500366210938 178.1699981689453,114.28500366210938 C178.1699981689453,114.28500366210938 124.7770004272461,142.89199829101562 124.7770004272461,142.89199829101562"></path></g></g><g style="display: block;" transform="matrix(1,0,0,1,97.03400421142578,151.72500610351562)" opacity="1"><g opacity="1" transform="matrix(1,0,0,1,0,0)"><path stroke-linecap="round" stroke-linejoin="round" fill-opacity="0" stroke-dasharray=" 0 8" stroke-dashoffset="0" stroke="rgb(8,0,0)" stroke-opacity="1" stroke-width="2" d=" M124.7770004272461,142.89199829101562 C124.7770004272461,142.89199829101562 71.11000061035156,114.28500366210938 71.11000061035156,114.28500366210938 C71.11000061035156,114.28500366210938 95.66100311279297,39.24300003051758 95.66100311279297,39.24300003051758 C95.66100311279297,39.24300003051758 31.886999130249023,13.081000328063965 0,0"></path></g></g><g style="display: block;" transform="matrix(1,0,0,1,221.81300354003906,318.0639953613281)" opacity="1"><g opacity="1" transform="matrix(1,0,0,1,0,0)"><path stroke-linecap="round" stroke-linejoin="round" fill-opacity="0" stroke-dasharray=" 0 8" stroke-dashoffset="0" stroke="rgb(8,0,0)" stroke-opacity="1" stroke-width="2" d=" M0,23.447999954223633 C0,23.447999954223633 0,-23.447999954223633 0,-23.447999954223633"></path></g></g><g style="display: block;" transform="matrix(1,0,0,1,221.6490020751953,264.31201171875)" opacity="1"><g opacity="1" transform="matrix(1,0,0,1,0,0)"><path stroke-linecap="round" stroke-linejoin="round" fill-opacity="0" stroke-dasharray=" 0 8" stroke-dashoffset="0" stroke="rgb(8,0,0)" stroke-opacity="1" stroke-width="2" d=" M54.60900115966797,0 C54.60900115966797,0 -54.60900115966797,0 -54.60900115966797,0"></path></g></g><g clip-path="url(#__lottie_element_2092)" style="display: block;" transform="matrix(1,0,0,1,0,0)" opacity="1"><g clip-path="url(#__lottie_element_2093)"><g style="display: block;" transform="matrix(1,0,0,1,33.688995361328125,41.720001220703125)" opacity="1"><g opacity="1" transform="matrix(1,0,0,1,0,0)"><path stroke-linecap="round" stroke-linejoin="round" fill-opacity="0" stroke-dasharray=" 0 8" stroke-dashoffset="0" stroke="rgb(8,0,0)" stroke-opacity="1" stroke-width="2" d=" M369.85400390625,225.9530029296875 C356.739013671875,240.95599365234375 335.91400146484375,264.77801513671875 335.91400146484375,264.77801513671875 C335.91400146484375,264.77801513671875 315.1059875488281,328.89801025390625 315.1059875488281,328.89801025390625 C315.1059875488281,328.89801025390625 248.49600219726562,339.2619934082031 248.49600219726562,339.2619934082031 C248.49600219726562,339.2619934082031 191.34300231933594,375.00799560546875 191.34300231933594,375.00799560546875 C191.34300231933594,375.00799560546875 133.656005859375,340.12799072265625 133.656005859375,340.12799072265625 C133.656005859375,340.12799072265625 66.89600372314453,330.77099609375 66.89600372314453,330.77099609375 C66.89600372314453,330.77099609375 45.125,266.97198486328125 45.125,266.97198486328125 C45.125,266.97198486328125 0,216.89199829101562 0,216.89199829101562 C0,216.89199829101562 24.329999923706055,154.0260009765625 24.329999923706055,154.0260009765625 C24.329999923706055,154.0260009765625 21.950000762939453,86.65299987792969 21.950000762939453,86.65299987792969 C21.950000762939453,86.65299987792969 81.00199890136719,54.13199996948242 81.00199890136719,54.13199996948242 C81.00199890136719,54.13199996948242 122.48600006103516,0.9990000128746033 122.48600006103516,0.9990000128746033 C122.48600006103516,0.9990000128746033 122.48600006103516,0.9990000128746033 122.48600006103516,0.9990000128746033 C122.48600006103516,0.9990000128746033 190.13999938964844,6.49399995803833 190.13999938964844,6.49399995803833 C190.13999938964844,6.49399995803833 254.55499267578125,0 254.55499267578125,0 C254.55499267578125,0 296.8349914550781,52.507999420166016 296.8349914550781,52.507999420166016 C296.8349914550781,52.507999420166016 356.3659973144531,84.13500213623047 356.3659973144531,84.13500213623047 C356.3659973144531,84.13500213623047 355.0050048828125,151.5330047607422 355.0050048828125,151.5330047607422 C355.0050048828125,151.5330047607422 380.281005859375,214.0260009765625 380.281005859375,214.0260009765625 C380.281005859375,214.0260009765625 375.8819885253906,219.05799865722656 369.85400390625,225.9530029296875"></path></g></g></g></g><g clip-path="url(#__lottie_element_2085)" style="display: block;" transform="matrix(-1,0,0,1,444,0)" opacity="1"><g clip-path="url(#__lottie_element_2086)"><g style="display: block;" transform="matrix(1,0,0,1,33.688995361328125,41.720001220703125)" opacity="1"><g opacity="1" transform="matrix(1,0,0,1,0,0)"><path stroke-linecap="round" stroke-linejoin="round" fill-opacity="0" stroke-dasharray=" 0 8" stroke-dashoffset="0" stroke="rgb(8,0,0)" stroke-opacity="1" stroke-width="2" d=" M369.85400390625,225.9530029296875 C356.739013671875,240.95599365234375 335.91400146484375,264.77801513671875 335.91400146484375,264.77801513671875 C335.91400146484375,264.77801513671875 315.1059875488281,328.89801025390625 315.1059875488281,328.89801025390625 C315.1059875488281,328.89801025390625 248.49600219726562,339.2619934082031 248.49600219726562,339.2619934082031 C248.49600219726562,339.2619934082031 191.34300231933594,375.00799560546875 191.34300231933594,375.00799560546875 C191.34300231933594,375.00799560546875 133.656005859375,340.12799072265625 133.656005859375,340.12799072265625 C133.656005859375,340.12799072265625 66.89600372314453,330.77099609375 66.89600372314453,330.77099609375 C66.89600372314453,330.77099609375 45.125,266.97198486328125 45.125,266.97198486328125 C45.125,266.97198486328125 0,216.89199829101562 0,216.89199829101562 C0,216.89199829101562 24.329999923706055,154.0260009765625 24.329999923706055,154.0260009765625 C24.329999923706055,154.0260009765625 21.950000762939453,86.65299987792969 21.950000762939453,86.65299987792969 C21.950000762939453,86.65299987792969 81.00199890136719,54.13199996948242 81.00199890136719,54.13199996948242 C81.00199890136719,54.13199996948242 122.48600006103516,0.9990000128746033 122.48600006103516,0.9990000128746033 C122.48600006103516,0.9990000128746033 122.48600006103516,0.9990000128746033 122.48600006103516,0.9990000128746033 C122.48600006103516,0.9990000128746033 190.13999938964844,6.49399995803833 190.13999938964844,6.49399995803833 C190.13999938964844,6.49399995803833 254.55499267578125,0 254.55499267578125,0 C254.55499267578125,0 296.8349914550781,52.507999420166016 296.8349914550781,52.507999420166016 C296.8349914550781,52.507999420166016 356.3659973144531,84.13500213623047 356.3659973144531,84.13500213623047 C356.3659973144531,84.13500213623047 355.0050048828125,151.5330047607422 355.0050048828125,151.5330047607422 C355.0050048828125,151.5330047607422 380.281005859375,214.0260009765625 380.281005859375,214.0260009765625 C380.281005859375,214.0260009765625 375.8819885253906,219.05799865722656 369.85400390625,225.9530029296875"></path></g></g></g></g><g style="display: block;" transform="matrix(1,0,0,1,153.1820068359375,188.76699829101562)" opacity="1"><g opacity="1" transform="matrix(1,0,0,1,0,0)"><path stroke-linecap="round" stroke-linejoin="round" fill-opacity="0" stroke-dasharray=" 0 8" stroke-dashoffset="0" stroke="rgb(8,0,0)" stroke-opacity="1" stroke-width="2" d=" M31.43400001525879,26.90399932861328 C31.43400001525879,26.90399932861328 -31.43400001525879,-26.90399932861328 -31.43400001525879,-26.90399932861328"></path></g></g><g style="display: block;" transform="matrix(1,0,0,1,258.47601318359375,161.86300659179688)" opacity="1"><g opacity="1" transform="matrix(1,0,0,1,0,0)"><path stroke-linecap="round" stroke-linejoin="round" fill-opacity="0" stroke-dasharray=" 0 8" stroke-dashoffset="0" stroke="rgb(8,0,0)" stroke-opacity="1" stroke-width="2" d=" M0,53.80799865722656 C0,53.80799865722656 62.86899948120117,0 62.86899948120117,0"></path></g></g><g style="display: block;" transform="matrix(1,0,0,1,164.1320037841797,369.86199951171875)" opacity="1"><g opacity="1" transform="matrix(1,0,0,1,0,0)"><path stroke-linecap="round" stroke-linejoin="round" fill-opacity="0" stroke-dasharray=" 0 8" stroke-dashoffset="0" stroke="rgb(8,0,0)" stroke-opacity="1" stroke-width="2" d=" M114.81900024414062,6.710000038146973 C65.91300201416016,-8.387999534606934 0,6.710000038146973 0,6.710000038146973"></path></g></g></g><g transform="matrix(1.5499999523162842,0,0,1.5499999523162842,447.9460144042969,466.0799865722656)" opacity="1" style="display: block;"><g opacity="1" transform="matrix(1,0,0,1,0,0)"><path fill="rgb(0,0,0)" fill-opacity="1" d=" M0,-8.300000190734863 C4.580770015716553,-8.300000190734863 8.300000190734863,-4.580770015716553 8.300000190734863,0 C8.300000190734863,4.580770015716553 4.580770015716553,8.300000190734863 0,8.300000190734863 C-4.580770015716553,8.300000190734863 -8.300000190734863,4.580770015716553 -8.300000190734863,0 C-8.300000190734863,-4.580770015716553 -4.580770015716553,-8.300000190734863 0,-8.300000190734863z"></path></g></g><g style="display: block;" transform="matrix(1.5499999523162842,0,0,1.5499999523162842,427.4460144042969,290.3299865722656)" opacity="1"><g opacity="1" transform="matrix(1,0,0,1,0,0)"><path fill="rgb(156,52,240)" fill-opacity="1" d=" M0,-8.300000190734863 C4.580770015716553,-8.300000190734863 8.300000190734863,-4.580770015716553 8.300000190734863,0 C8.300000190734863,4.580770015716553 4.580770015716553,8.300000190734863 0,8.300000190734863 C-4.580770015716553,8.300000190734863 -8.300000190734863,4.580770015716553 -8.300000190734863,0 C-8.300000190734863,-4.580770015716553 -4.580770015716553,-8.300000190734863 0,-8.300000190734863z"></path></g></g><g style="display: block;" transform="matrix(1,0,0,1,375.3210144042969,185.4550018310547)" opacity="1"><g opacity="1" transform="matrix(1,0,0,1,0,0)"><path fill="rgb(156,52,240)" fill-opacity="1" d=" M0,-8.300000190734863 C4.580770015716553,-8.300000190734863 8.300000190734863,-4.580770015716553 8.300000190734863,0 C8.300000190734863,4.580770015716553 4.580770015716553,8.300000190734863 0,8.300000190734863 C-4.580770015716553,8.300000190734863 -8.300000190734863,4.580770015716553 -8.300000190734863,0 C-8.300000190734863,-4.580770015716553 -4.580770015716553,-8.300000190734863 0,-8.300000190734863z"></path></g></g><g style="display: block;" transform="matrix(1,0,0,1,375.1960144042969,185.5800018310547)" opacity="1"><g opacity="1" transform="matrix(1,0,0,1,0,0)"><path fill="rgb(156,52,240)" fill-opacity="1" d=" M0,-8.300000190734863 C4.580770015716553,-8.300000190734863 8.300000190734863,-4.580770015716553 8.300000190734863,0 C8.300000190734863,4.580770015716553 4.580770015716553,8.300000190734863 0,8.300000190734863 C-4.580770015716553,8.300000190734863 -8.300000190734863,4.580770015716553 -8.300000190734863,0 C-8.300000190734863,-4.580770015716553 -4.580770015716553,-8.300000190734863 0,-8.300000190734863z"></path></g></g><g transform="matrix(1.5499999523162842,0,0,1.5499999523162842,499.9460144042969,655.0499877929688)" opacity="1" style="display: block;"><g opacity="1" transform="matrix(1,0,0,1,0,0)"><path fill="rgb(0,0,0)" fill-opacity="1" d=" M0,-8.300000190734863 C4.580770015716553,-8.300000190734863 8.300000190734863,-4.580770015716553 8.300000190734863,0 C8.300000190734863,4.580770015716553 4.580770015716553,8.300000190734863 0,8.300000190734863 C-4.580770015716553,8.300000190734863 -8.300000190734863,4.580770015716553 -8.300000190734863,0 C-8.300000190734863,-4.580770015716553 -4.580770015716553,-8.300000190734863 0,-8.300000190734863z"></path></g></g><g style="display: block;" transform="matrix(1.3090400695800781,0,0,1.3090400695800781,499.9460144042969,745.7999877929688)" opacity="1"><g opacity="1" transform="matrix(1,0,0,1,0,0)"><path fill="rgb(156,52,240)" fill-opacity="1" d=" M0,-8.300000190734863 C4.580770015716553,-8.300000190734863 8.300000190734863,-4.580770015716553 8.300000190734863,0 C8.300000190734863,4.580770015716553 4.580770015716553,8.300000190734863 0,8.300000190734863 C-4.580770015716553,8.300000190734863 -8.300000190734863,4.580770015716553 -8.300000190734863,0 C-8.300000190734863,-4.580770015716553 -4.580770015716553,-8.300000190734863 0,-8.300000190734863z"></path></g></g><g style="display: block;" transform="matrix(1.3090400695800781,0,0,1.3090400695800781,496.4460144042969,201.8000030517578)" opacity="1"><g opacity="1" transform="matrix(1,0,0,1,0,0)"><path fill="rgb(156,52,240)" fill-opacity="1" d=" M0,-8.300000190734863 C4.580770015716553,-8.300000190734863 8.300000190734863,-4.580770015716553 8.300000190734863,0 C8.300000190734863,4.580770015716553 4.580770015716553,8.300000190734863 0,8.300000190734863 C-4.580770015716553,8.300000190734863 -8.300000190734863,4.580770015716553 -8.300000190734863,0 C-8.300000190734863,-4.580770015716553 -4.580770015716553,-8.300000190734863 0,-8.300000190734863z"></path></g></g><g style="display: block;" transform="matrix(1.3090400695800781,0,0,1.3090400695800781,500.1960144042969,113.05000305175781)" opacity="1"><g opacity="1" transform="matrix(1,0,0,1,0,0)"><path fill="rgb(156,52,240)" fill-opacity="1" d=" M0,-8.300000190734863 C4.580770015716553,-8.300000190734863 8.300000190734863,-4.580770015716553 8.300000190734863,0 C8.300000190734863,4.580770015716553 4.580770015716553,8.300000190734863 0,8.300000190734863 C-4.580770015716553,8.300000190734863 -8.300000190734863,4.580770015716553 -8.300000190734863,0 C-8.300000190734863,-4.580770015716553 -4.580770015716553,-8.300000190734863 0,-8.300000190734863z"></path></g></g><g style="display: block;" transform="matrix(1.3090400695800781,0,0,1.3090400695800781,499.9460144042969,886.1749877929688)" opacity="1"><g opacity="1" transform="matrix(1,0,0,1,0,0)"><path fill="rgb(156,52,240)" fill-opacity="1" d=" M0,-8.300000190734863 C4.580770015716553,-8.300000190734863 8.300000190734863,-4.580770015716553 8.300000190734863,0 C8.300000190734863,4.580770015716553 4.580770015716553,8.300000190734863 0,8.300000190734863 C-4.580770015716553,8.300000190734863 -8.300000190734863,4.580770015716553 -8.300000190734863,0 C-8.300000190734863,-4.580770015716553 -4.580770015716553,-8.300000190734863 0,-8.300000190734863z"></path></g></g><g transform="matrix(0.7071067690849304,0.7071067690849304,-0.7071067690849304,0.7071067690849304,599.2680053710938,597.0780029296875)" opacity="1" style="display: block;"><g opacity="1" transform="matrix(1,0,0,1,0,0)"><path fill="rgb(0,0,0)" fill-opacity="1" d=" M0,-8.300000190734863 C4.580770015716553,-8.300000190734863 8.300000190734863,-4.580770015716553 8.300000190734863,0 C8.300000190734863,4.580770015716553 4.580770015716553,8.300000190734863 0,8.300000190734863 C-4.580770015716553,8.300000190734863 -8.300000190734863,4.580770015716553 -8.300000190734863,0 C-8.300000190734863,-4.580770015716553 -4.580770015716553,-8.300000190734863 0,-8.300000190734863z"></path></g></g><g style="display: block;" transform="matrix(1,0,0,1,774.5180053710938,665.7030029296875)" opacity="1"><g opacity="1" transform="matrix(1,0,0,1,0,0)"><path fill="rgb(88,87,249)" fill-opacity="1" d=" M0,-8.300000190734863 C4.580770015716553,-8.300000190734863 8.300000190734863,-4.580770015716553 8.300000190734863,0 C8.300000190734863,4.580770015716553 4.580770015716553,8.300000190734863 0,8.300000190734863 C-4.580770015716553,8.300000190734863 -8.300000190734863,4.580770015716553 -8.300000190734863,0 C-8.300000190734863,-4.580770015716553 -4.580770015716553,-8.300000190734863 0,-8.300000190734863z"></path></g></g><g style="display: block;" transform="matrix(1,0,0,1,731.7680053710938,798.7030029296875)" opacity="1"><g opacity="1" transform="matrix(1,0,0,1,0,0)"><path fill="rgb(88,87,249)" fill-opacity="1" d=" M0,-8.300000190734863 C4.580770015716553,-8.300000190734863 8.300000190734863,-4.580770015716553 8.300000190734863,0 C8.300000190734863,4.580770015716553 4.580770015716553,8.300000190734863 0,8.300000190734863 C-4.580770015716553,8.300000190734863 -8.300000190734863,4.580770015716553 -8.300000190734863,0 C-8.300000190734863,-4.580770015716553 -4.580770015716553,-8.300000190734863 0,-8.300000190734863z"></path></g></g><g style="display: block;" transform="matrix(1.5499999523162842,0,0,1.5499999523162842,855.6430053710938,720.9530029296875)" opacity="1"><g opacity="1" transform="matrix(1,0,0,1,0,0)"><path fill="rgb(88,87,249)" fill-opacity="1" d=" M0,-8.300000190734863 C4.580770015716553,-8.300000190734863 8.300000190734863,-4.580770015716553 8.300000190734863,0 C8.300000190734863,4.580770015716553 4.580770015716553,8.300000190734863 0,8.300000190734863 C-4.580770015716553,8.300000190734863 -8.300000190734863,4.580770015716553 -8.300000190734863,0 C-8.300000190734863,-4.580770015716553 -4.580770015716553,-8.300000190734863 0,-8.300000190734863z"></path></g></g><g style="display: block;" transform="matrix(1,0,0,1,604.5180053710938,808.3280029296875)" opacity="1"><g opacity="1" transform="matrix(1,0,0,1,0,0)"><path fill="rgb(156,52,240)" fill-opacity="1" d=" M0,-8.300000190734863 C4.580770015716553,-8.300000190734863 8.300000190734863,-4.580770015716553 8.300000190734863,0 C8.300000190734863,4.580770015716553 4.580770015716553,8.300000190734863 0,8.300000190734863 C-4.580770015716553,8.300000190734863 -8.300000190734863,4.580770015716553 -8.300000190734863,0 C-8.300000190734863,-4.580770015716553 -4.580770015716553,-8.300000190734863 0,-8.300000190734863z"></path></g></g><g style="display: block;" transform="matrix(1.5499999523162842,0,0,1.5499999523162842,637.0180053710938,885.8280029296875)" opacity="1"><g opacity="1" transform="matrix(1,0,0,1,0,0)"><path fill="rgb(156,52,240)" fill-opacity="1" d=" M0,-8.300000190734863 C4.580770015716553,-8.300000190734863 8.300000190734863,-4.580770015716553 8.300000190734863,0 C8.300000190734863,4.580770015716553 4.580770015716553,8.300000190734863 0,8.300000190734863 C-4.580770015716553,8.300000190734863 -8.300000190734863,4.580770015716553 -8.300000190734863,0 C-8.300000190734863,-4.580770015716553 -4.580770015716553,-8.300000190734863 0,-8.300000190734863z"></path></g></g><g transform="matrix(1.096015453338623,-1.096015453338623,1.096015453338623,1.096015453338623,680.7680053710938,414.3919982910156)" opacity="1" style="display: block;"><g opacity="1" transform="matrix(1,0,0,1,0,0)"><path fill="rgb(0,0,0)" fill-opacity="1" d=" M0,-8.300000190734863 C4.580770015716553,-8.300000190734863 8.300000190734863,-4.580770015716553 8.300000190734863,0 C8.300000190734863,4.580770015716553 4.580770015716553,8.300000190734863 0,8.300000190734863 C-4.580770015716553,8.300000190734863 -8.300000190734863,4.580770015716553 -8.300000190734863,0 C-8.300000190734863,-4.580770015716553 -4.580770015716553,-8.300000190734863 0,-8.300000190734863z"></path></g></g><g style="display: block;" transform="matrix(1.5499999523162842,0,0,1.5499999523162842,730.2680053710938,383.6419982910156)" opacity="1"><g opacity="1" transform="matrix(1,0,0,1,0,0)"><path fill="rgb(88,87,249)" fill-opacity="1" d=" M0,-8.300000190734863 C4.580770015716553,-8.300000190734863 8.300000190734863,-4.580770015716553 8.300000190734863,0 C8.300000190734863,4.580770015716553 4.580770015716553,8.300000190734863 0,8.300000190734863 C-4.580770015716553,8.300000190734863 -8.300000190734863,4.580770015716553 -8.300000190734863,0 C-8.300000190734863,-4.580770015716553 -4.580770015716553,-8.300000190734863 0,-8.300000190734863z"></path></g></g><g style="display: block;" transform="matrix(1.5499999523162842,0,0,1.5499999523162842,691.6430053710938,286.6419982910156)" opacity="1"><g opacity="1" transform="matrix(1,0,0,1,0,0)"><path fill="rgb(88,87,249)" fill-opacity="1" d=" M0,-8.300000190734863 C4.580770015716553,-8.300000190734863 8.300000190734863,-4.580770015716553 8.300000190734863,0 C8.300000190734863,4.580770015716553 4.580770015716553,8.300000190734863 0,8.300000190734863 C-4.580770015716553,8.300000190734863 -8.300000190734863,4.580770015716553 -8.300000190734863,0 C-8.300000190734863,-4.580770015716553 -4.580770015716553,-8.300000190734863 0,-8.300000190734863z"></path></g></g><g style="display: block;" transform="matrix(1.5499999523162842,0,0,1.5499999523162842,761.6430053710938,204.14199829101562)" opacity="1"><g opacity="1" transform="matrix(1,0,0,1,0,0)"><path fill="rgb(88,87,249)" fill-opacity="1" d=" M0,-8.300000190734863 C4.580770015716553,-8.300000190734863 8.300000190734863,-4.580770015716553 8.300000190734863,0 C8.300000190734863,4.580770015716553 4.580770015716553,8.300000190734863 0,8.300000190734863 C-4.580770015716553,8.300000190734863 -8.300000190734863,4.580770015716553 -8.300000190734863,0 C-8.300000190734863,-4.580770015716553 -4.580770015716553,-8.300000190734863 0,-8.300000190734863z"></path></g></g><g style="display: block;" transform="matrix(1,0,0,1,811.8930053710938,343.3919982910156)" opacity="1"><g opacity="1" transform="matrix(1,0,0,1,0,0)"><path fill="rgb(88,87,249)" fill-opacity="1" d=" M0,-8.300000190734863 C4.580770015716553,-8.300000190734863 8.300000190734863,-4.580770015716553 8.300000190734863,0 C8.300000190734863,4.580770015716553 4.580770015716553,8.300000190734863 0,8.300000190734863 C-4.580770015716553,8.300000190734863 -8.300000190734863,4.580770015716553 -8.300000190734863,0 C-8.300000190734863,-4.580770015716553 -4.580770015716553,-8.300000190734863 0,-8.300000190734863z"></path></g></g><g style="display: block;" transform="matrix(1,0,0,1,802.9249877929688,463.4849853515625)" opacity="1"><g opacity="1" transform="matrix(1,0,0,1,0,0)"><path fill="rgb(88,87,249)" fill-opacity="1" d=" M0,-8.300000190734863 C4.580770015716553,-8.300000190734863 8.300000190734863,-4.580770015716553 8.300000190734863,0 C8.300000190734863,4.580770015716553 4.580770015716553,8.300000190734863 0,8.300000190734863 C-4.580770015716553,8.300000190734863 -8.300000190734863,4.580770015716553 -8.300000190734863,0 C-8.300000190734863,-4.580770015716553 -4.580770015716553,-8.300000190734863 0,-8.300000190734863z"></path></g></g><g transform="matrix(1,0,0,1,566.6749877929688,507.6099853515625)" opacity="1" style="display: block;"><g opacity="1" transform="matrix(1,0,0,1,0,0)"><path fill="rgb(0,0,0)" fill-opacity="1" d=" M0,-8.300000190734863 C4.580770015716553,-8.300000190734863 8.300000190734863,-4.580770015716553 8.300000190734863,0 C8.300000190734863,4.580770015716553 4.580770015716553,8.300000190734863 0,8.300000190734863 C-4.580770015716553,8.300000190734863 -8.300000190734863,4.580770015716553 -8.300000190734863,0 C-8.300000190734863,-4.580770015716553 -4.580770015716553,-8.300000190734863 0,-8.300000190734863z"></path></g></g><g style="display: block;" transform="matrix(1.5499999523162842,0,0,1.5499999523162842,720.9249877929688,562.8599853515625)" opacity="1"><g opacity="1" transform="matrix(1,0,0,1,0,0)"><path fill="rgb(88,87,249)" fill-opacity="1" d=" M0,-8.300000190734863 C4.580770015716553,-8.300000190734863 8.300000190734863,-4.580770015716553 8.300000190734863,0 C8.300000190734863,4.580770015716553 4.580770015716553,8.300000190734863 0,8.300000190734863 C-4.580770015716553,8.300000190734863 -8.300000190734863,4.580770015716553 -8.300000190734863,0 C-8.300000190734863,-4.580770015716553 -4.580770015716553,-8.300000190734863 0,-8.300000190734863z"></path></g></g><g style="display: block;" transform="matrix(1.5499999523162842,0,0,1.5499999523162842,855.6749877929688,580.3599853515625)" opacity="1"><g opacity="1" transform="matrix(1,0,0,1,0,0)"><path fill="rgb(88,87,249)" fill-opacity="1" d=" M0,-8.300000190734863 C4.580770015716553,-8.300000190734863 8.300000190734863,-4.580770015716553 8.300000190734863,0 C8.300000190734863,4.580770015716553 4.580770015716553,8.300000190734863 0,8.300000190734863 C-4.580770015716553,8.300000190734863 -8.300000190734863,4.580770015716553 -8.300000190734863,0 C-8.300000190734863,-4.580770015716553 -4.580770015716553,-8.300000190734863 0,-8.300000190734863z"></path></g></g><g style="display: block;" transform="matrix(1.5499999523162842,0,0,1.5499999523162842,906.6749877929688,445.6099853515625)" opacity="1"><g opacity="1" transform="matrix(1,0,0,1,0,0)"><path fill="rgb(88,87,249)" fill-opacity="1" d=" M0,-8.300000190734863 C4.580770015716553,-8.300000190734863 8.300000190734863,-4.580770015716553 8.300000190734863,0 C8.300000190734863,4.580770015716553 4.580770015716553,8.300000190734863 0,8.300000190734863 C-4.580770015716553,8.300000190734863 -8.300000190734863,4.580770015716553 -8.300000190734863,0 C-8.300000190734863,-4.580770015716553 -4.580770015716553,-8.300000190734863 0,-8.300000190734863z"></path></g></g><g style="display: block;" transform="matrix(1.096015453338623,1.096015453338623,-1.096015453338623,1.096015453338623,269.5820007324219,386.6419982910156)" opacity="1"><g opacity="1" transform="matrix(1,0,0,1,0,0)"><path fill="rgb(251,84,87)" fill-opacity="1" d=" M0,-8.300000190734863 C4.580770015716553,-8.300000190734863 8.300000190734863,-4.580770015716553 8.300000190734863,0 C8.300000190734863,4.580770015716553 4.580770015716553,8.300000190734863 0,8.300000190734863 C-4.580770015716553,8.300000190734863 -8.300000190734863,4.580770015716553 -8.300000190734863,0 C-8.300000190734863,-4.580770015716553 -4.580770015716553,-8.300000190734863 0,-8.300000190734863z"></path></g></g><g style="display: block;" transform="matrix(1.096015453338623,1.096015453338623,-1.096015453338623,1.096015453338623,309.7070007324219,294.0169982910156)" opacity="1"><g opacity="1" transform="matrix(1,0,0,1,0,0)"><path fill="rgb(251,84,87)" fill-opacity="1" d=" M0,-8.300000190734863 C4.580770015716553,-8.300000190734863 8.300000190734863,-4.580770015716553 8.300000190734863,0 C8.300000190734863,4.580770015716553 4.580770015716553,8.300000190734863 0,8.300000190734863 C-4.580770015716553,8.300000190734863 -8.300000190734863,4.580770015716553 -8.300000190734863,0 C-8.300000190734863,-4.580770015716553 -4.580770015716553,-8.300000190734863 0,-8.300000190734863z"></path></g></g><g style="display: block;" transform="matrix(1.096015453338623,1.096015453338623,-1.096015453338623,1.096015453338623,229.95700073242188,207.51699829101562)" opacity="1"><g opacity="1" transform="matrix(1,0,0,1,0,0)"><path fill="rgb(251,84,87)" fill-opacity="1" d=" M0,-8.300000190734863 C4.580770015716553,-8.300000190734863 8.300000190734863,-4.580770015716553 8.300000190734863,0 C8.300000190734863,4.580770015716553 4.580770015716553,8.300000190734863 0,8.300000190734863 C-4.580770015716553,8.300000190734863 -8.300000190734863,4.580770015716553 -8.300000190734863,0 C-8.300000190734863,-4.580770015716553 -4.580770015716553,-8.300000190734863 0,-8.300000190734863z"></path></g></g><g style="display: block;" transform="matrix(0.7071067690849304,0.7071067690849304,-0.7071067690849304,0.7071067690849304,196.95700073242188,468.5169982910156)" opacity="1"><g opacity="1" transform="matrix(1,0,0,1,0,0)"><path fill="rgb(251,84,87)" fill-opacity="1" d=" M0,-8.300000190734863 C4.580770015716553,-8.300000190734863 8.300000190734863,-4.580770015716553 8.300000190734863,0 C8.300000190734863,4.580770015716553 4.580770015716553,8.300000190734863 0,8.300000190734863 C-4.580770015716553,8.300000190734863 -8.300000190734863,4.580770015716553 -8.300000190734863,0 C-8.300000190734863,-4.580770015716553 -4.580770015716553,-8.300000190734863 0,-8.300000190734863z"></path></g></g><g style="display: block;" transform="matrix(0.7071067690849304,0.7071067690849304,-0.7071067690849304,0.7071067690849304,192.20700073242188,344.7669982910156)" opacity="1"><g opacity="1" transform="matrix(1,0,0,1,0,0)"><path fill="rgb(251,84,87)" fill-opacity="1" d=" M0,-8.300000190734863 C4.580770015716553,-8.300000190734863 8.300000190734863,-4.580770015716553 8.300000190734863,0 C8.300000190734863,4.580770015716553 4.580770015716553,8.300000190734863 0,8.300000190734863 C-4.580770015716553,8.300000190734863 -8.300000190734863,4.580770015716553 -8.300000190734863,0 C-8.300000190734863,-4.580770015716553 -4.580770015716553,-8.300000190734863 0,-8.300000190734863z"></path></g></g><g transform="matrix(1.0767204761505127,1.1149766445159912,-1.1149766445159912,1.0767204761505127,321.3320007324219,414.8919982910156)" opacity="1" style="display: block;"><g opacity="1" transform="matrix(1,0,0,1,0,0)"><path fill="rgb(0,0,0)" fill-opacity="1" d=" M0,-8.300000190734863 C4.580770015716553,-8.300000190734863 8.300000190734863,-4.580770015716553 8.300000190734863,0 C8.300000190734863,4.580770015716553 4.580770015716553,8.300000190734863 0,8.300000190734863 C-4.580770015716553,8.300000190734863 -8.300000190734863,4.580770015716553 -8.300000190734863,0 C-8.300000190734863,-4.580770015716553 -4.580770015716553,-8.300000190734863 0,-8.300000190734863z"></path></g></g><g transform="matrix(0.7071067690849304,-0.7071067690849304,0.7071067690849304,0.7071067690849304,398.5820007324219,596.0780029296875)" opacity="1" style="display: block;"><g opacity="1" transform="matrix(1,0,0,1,0,0)"><path fill="rgb(0,0,0)" fill-opacity="1" d=" M0,-8.300000190734863 C4.580770015716553,-8.300000190734863 8.300000190734863,-4.580770015716553 8.300000190734863,0 C8.300000190734863,4.580770015716553 4.580770015716553,8.300000190734863 0,8.300000190734863 C-4.580770015716553,8.300000190734863 -8.300000190734863,4.580770015716553 -8.300000190734863,0 C-8.300000190734863,-4.580770015716553 -4.580770015716553,-8.300000190734863 0,-8.300000190734863z"></path></g></g><g style="display: block;" transform="matrix(0.7071067690849304,-0.7071067690849304,0.7071067690849304,0.7071067690849304,232.58200073242188,670.0780029296875)" opacity="1"><g opacity="1" transform="matrix(1,0,0,1,0,0)"><path fill="rgb(251,84,87)" fill-opacity="1" d=" M0,-8.300000190734863 C4.580770015716553,-8.300000190734863 8.300000190734863,-4.580770015716553 8.300000190734863,0 C8.300000190734863,4.580770015716553 4.580770015716553,8.300000190734863 0,8.300000190734863 C-4.580770015716553,8.300000190734863 -8.300000190734863,4.580770015716553 -8.300000190734863,0 C-8.300000190734863,-4.580770015716553 -4.580770015716553,-8.300000190734863 0,-8.300000190734863z"></path></g></g><g style="display: block;" transform="matrix(1.096015453338623,-1.096015453338623,1.096015453338623,1.096015453338623,139.08200073242188,734.8280029296875)" opacity="1"><g opacity="1" transform="matrix(1,0,0,1,0,0)"><path fill="rgb(251,84,87)" fill-opacity="1" d=" M0,-8.300000190734863 C4.580770015716553,-8.300000190734863 8.300000190734863,-4.580770015716553 8.300000190734863,0 C8.300000190734863,4.580770015716553 4.580770015716553,8.300000190734863 0,8.300000190734863 C-4.580770015716553,8.300000190734863 -8.300000190734863,4.580770015716553 -8.300000190734863,0 C-8.300000190734863,-4.580770015716553 -4.580770015716553,-8.300000190734863 0,-8.300000190734863z"></path></g></g><g style="display: block;" transform="matrix(0.7071067690849304,-0.7071067690849304,0.7071067690849304,0.7071067690849304,277.3320007324219,803.2030029296875)" opacity="1"><g opacity="1" transform="matrix(1,0,0,1,0,0)"><path fill="rgb(251,84,87)" fill-opacity="1" d=" M0,-8.300000190734863 C4.580770015716553,-8.300000190734863 8.300000190734863,-4.580770015716553 8.300000190734863,0 C8.300000190734863,4.580770015716553 4.580770015716553,8.300000190734863 0,8.300000190734863 C-4.580770015716553,8.300000190734863 -8.300000190734863,4.580770015716553 -8.300000190734863,0 C-8.300000190734863,-4.580770015716553 -4.580770015716553,-8.300000190734863 0,-8.300000190734863z"></path></g></g><g style="display: block;" transform="matrix(1,0,0,1,392.5820007324219,807.9530029296875)" opacity="1"><g opacity="1" transform="matrix(1,0,0,1,0,0)"><path fill="rgb(251,84,87)" fill-opacity="1" d="M0 0"></path></g><g opacity="1" transform="matrix(1,0,0,1,0,0)"><path fill="rgb(156,52,240)" fill-opacity="1" d=" M0,-8.300000190734863 C4.580770015716553,-8.300000190734863 8.300000190734863,-4.580770015716553 8.300000190734863,0 C8.300000190734863,4.580770015716553 4.580770015716553,8.300000190734863 0,8.300000190734863 C-4.580770015716553,8.300000190734863 -8.300000190734863,4.580770015716553 -8.300000190734863,0 C-8.300000190734863,-4.580770015716553 -4.580770015716553,-8.300000190734863 0,-8.300000190734863z"></path></g></g><g style="display: block;" transform="matrix(1.5499999523162842,0,0,1.5499999523162842,374.2070007324219,880.0780029296875)" opacity="1"><g opacity="1" transform="matrix(1,0,0,1,0,0)"><path fill="rgb(251,84,87)" fill-opacity="1" d="M0 0"></path></g><g opacity="1" transform="matrix(1,0,0,1,0,0)"><path fill="rgb(156,52,240)" fill-opacity="1" d=" M0,-8.300000190734863 C4.580770015716553,-8.300000190734863 8.300000190734863,-4.580770015716553 8.300000190734863,0 C8.300000190734863,4.580770015716553 4.580770015716553,8.300000190734863 0,8.300000190734863 C-4.580770015716553,8.300000190734863 -8.300000190734863,4.580770015716553 -8.300000190734863,0 C-8.300000190734863,-4.580770015716553 -4.580770015716553,-8.300000190734863 0,-8.300000190734863z"></path></g></g><g transform="matrix(1,0,0,1,431.17498779296875,506.1099853515625)" opacity="1" style="display: block;"><g opacity="1" transform="matrix(1,0,0,1,0,0)"><path fill="rgb(0,0,0)" fill-opacity="1" d=" M0,-8.300000190734863 C4.580770015716553,-8.300000190734863 8.300000190734863,-4.580770015716553 8.300000190734863,0 C8.300000190734863,4.580770015716553 4.580770015716553,8.300000190734863 0,8.300000190734863 C-4.580770015716553,8.300000190734863 -8.300000190734863,4.580770015716553 -8.300000190734863,0 C-8.300000190734863,-4.580770015716553 -4.580770015716553,-8.300000190734863 0,-8.300000190734863z"></path></g></g><g style="display: block;" transform="matrix(1,0,0,1,196.9250030517578,467.9849853515625)" opacity="1"><g opacity="1" transform="matrix(1,0,0,1,0,0)"><path fill="rgb(251,84,87)" fill-opacity="1" d=" M0,-8.300000190734863 C4.580770015716553,-8.300000190734863 8.300000190734863,-4.580770015716553 8.300000190734863,0 C8.300000190734863,4.580770015716553 4.580770015716553,8.300000190734863 0,8.300000190734863 C-4.580770015716553,8.300000190734863 -8.300000190734863,4.580770015716553 -8.300000190734863,0 C-8.300000190734863,-4.580770015716553 -4.580770015716553,-8.300000190734863 0,-8.300000190734863z"></path></g></g><g style="display: block;" transform="matrix(1,0,0,1,196.9250030517578,467.9849853515625)" opacity="1"><g opacity="1" transform="matrix(1,0,0,1,0,0)"><path fill="rgb(251,84,87)" fill-opacity="1" d=" M0,-8.300000190734863 C4.580770015716553,-8.300000190734863 8.300000190734863,-4.580770015716553 8.300000190734863,0 C8.300000190734863,4.580770015716553 4.580770015716553,8.300000190734863 0,8.300000190734863 C-4.580770015716553,8.300000190734863 -8.300000190734863,4.580770015716553 -8.300000190734863,0 C-8.300000190734863,-4.580770015716553 -4.580770015716553,-8.300000190734863 0,-8.300000190734863z"></path></g></g><g style="display: block;" transform="matrix(1.5499999523162842,0,0,1.5499999523162842,90.30000305175781,457.9849853515625)" opacity="1"><g opacity="1" transform="matrix(1,0,0,1,0,0)"><path fill="rgb(251,84,87)" fill-opacity="1" d=" M0,-8.300000190734863 C4.580770015716553,-8.300000190734863 8.300000190734863,-4.580770015716553 8.300000190734863,0 C8.300000190734863,4.580770015716553 4.580770015716553,8.300000190734863 0,8.300000190734863 C-4.580770015716553,8.300000190734863 -8.300000190734863,4.580770015716553 -8.300000190734863,0 C-8.300000190734863,-4.580770015716553 -4.580770015716553,-8.300000190734863 0,-8.300000190734863z"></path></g></g><g style="display: block;" transform="matrix(1.5499999523162842,0,0,1.5499999523162842,275.42498779296875,569.9849853515625)" opacity="1"><g opacity="1" transform="matrix(1,0,0,1,0,0)"><path fill="rgb(251,84,87)" fill-opacity="1" d=" M0,-8.300000190734863 C4.580770015716553,-8.300000190734863 8.300000190734863,-4.580770015716553 8.300000190734863,0 C8.300000190734863,4.580770015716553 4.580770015716553,8.300000190734863 0,8.300000190734863 C-4.580770015716553,8.300000190734863 -8.300000190734863,4.580770015716553 -8.300000190734863,0 C-8.300000190734863,-4.580770015716553 -4.580770015716553,-8.300000190734863 0,-8.300000190734863z"></path></g></g><g style="display: block;" transform="matrix(1,0,0,1,150.5500030517578,586.4849853515625)" opacity="1"><g opacity="1" transform="matrix(1,0,0,1,0,0)"><path fill="rgb(251,84,87)" fill-opacity="1" d=" M0,-8.300000190734863 C4.580770015716553,-8.300000190734863 8.300000190734863,-4.580770015716553 8.300000190734863,0 C8.300000190734863,4.580770015716553 4.580770015716553,8.300000190734863 0,8.300000190734863 C-4.580770015716553,8.300000190734863 -8.300000190734863,4.580770015716553 -8.300000190734863,0 C-8.300000190734863,-4.580770015716553 -4.580770015716553,-8.300000190734863 0,-8.300000190734863z"></path></g></g><g transform="matrix(1.5499999523162842,0,0,1.5499999523162842,556.1959838867188,466.0799865722656)" opacity="1" style="display: block;"><g opacity="1" transform="matrix(1,0,0,1,0,0)"><path fill="rgb(0,0,0)" fill-opacity="1" d=" M0,-8.300000190734863 C4.580770015716553,-8.300000190734863 8.300000190734863,-4.580770015716553 8.300000190734863,0 C8.300000190734863,4.580770015716553 4.580770015716553,8.300000190734863 0,8.300000190734863 C-4.580770015716553,8.300000190734863 -8.300000190734863,4.580770015716553 -8.300000190734863,0 C-8.300000190734863,-4.580770015716553 -4.580770015716553,-8.300000190734863 0,-8.300000190734863z"></path></g></g><g style="display: block;" transform="matrix(1.5499999523162842,0,0,1.5499999523162842,568.4459838867188,290.3299865722656)" opacity="1"><g opacity="1" transform="matrix(1,0,0,1,0,0)"><path fill="rgb(156,52,240)" fill-opacity="1" d=" M0,-8.300000190734863 C4.580770015716553,-8.300000190734863 8.300000190734863,-4.580770015716553 8.300000190734863,0 C8.300000190734863,4.580770015716553 4.580770015716553,8.300000190734863 0,8.300000190734863 C-4.580770015716553,8.300000190734863 -8.300000190734863,4.580770015716553 -8.300000190734863,0 C-8.300000190734863,-4.580770015716553 -4.580770015716553,-8.300000190734863 0,-8.300000190734863z"></path></g></g><g style="display: block;" transform="matrix(1,0,0,1,623.0709838867188,186.4550018310547)" opacity="1"><g opacity="1" transform="matrix(1,0,0,1,0,0)"><path fill="rgb(156,52,240)" fill-opacity="1" d=" M0,-8.300000190734863 C4.580770015716553,-8.300000190734863 8.300000190734863,-4.580770015716553 8.300000190734863,0 C8.300000190734863,4.580770015716553 4.580770015716553,8.300000190734863 0,8.300000190734863 C-4.580770015716553,8.300000190734863 -8.300000190734863,4.580770015716553 -8.300000190734863,0 C-8.300000190734863,-4.580770015716553 -4.580770015716553,-8.300000190734863 0,-8.300000190734863z"></path></g></g></g><g clip-path="url(#__lottie_element_1743)" style="display: none;"><g clip-path="url(#__lottie_element_1885)" style="display: none;"><g style="display: none;"><g><path stroke-linecap="round" stroke-linejoin="round" fill-opacity="0"></path></g></g><g style="display: none;"><g><path stroke-linecap="round" stroke-linejoin="round" fill-opacity="0"></path></g></g><g style="display: none;"><g><path stroke-linecap="round" stroke-linejoin="round" fill-opacity="0"></path></g></g><g style="display: none;"><g><path stroke-linecap="round" stroke-linejoin="round" fill-opacity="0"></path></g></g><g style="display: none;"><g><path stroke-linecap="round" stroke-linejoin="round" fill-opacity="0"></path></g></g><g style="display: none;"><g><path stroke-linecap="round" stroke-linejoin="round" fill-opacity="0"></path></g></g><g clip-path="url(#__lottie_element_1905)" style="display: none;"><g clip-path="url(#__lottie_element_1906)"><g style="display: none;"><g><path stroke-linecap="round" stroke-linejoin="round" fill-opacity="0"></path></g></g></g></g><g clip-path="url(#__lottie_element_1898)" style="display: none;"><g clip-path="url(#__lottie_element_1899)"><g style="display: none;"><g><path stroke-linecap="round" stroke-linejoin="round" fill-opacity="0"></path></g></g></g></g><g style="display: none;"><g><path stroke-linecap="round" stroke-linejoin="round" fill-opacity="0"></path></g></g><g style="display: none;"><g><path stroke-linecap="round" stroke-linejoin="round" fill-opacity="0"></path></g></g><g style="display: none;"><g><path stroke-linecap="round" stroke-linejoin="round" fill-opacity="0"></path></g></g></g><g style="display: none;"><g><path></path></g></g><g style="display: none;"><g><path></path></g></g><g style="display: none;"><g><path></path></g></g><g style="display: none;"><g><path></path></g></g><g style="display: none;"><g><path></path></g></g><g style="display: none;"><g><path></path></g></g><g style="display: none;"><g><path></path></g></g><g style="display: none;"><g><path></path></g></g><g style="display: none;"><g><path></path></g></g><g style="display: none;"><g><path></path></g></g><g style="display: none;"><g><path></path></g></g><g style="display: none;"><g><path></path></g></g><g style="display: none;"><g><path></path></g></g><g style="display: none;"><g><path></path></g></g><g style="display: none;"><g><path></path></g></g><g style="display: none;"><g><path></path></g></g><g style="display: none;"><g><path></path></g></g><g style="display: none;"><g><path></path></g></g><g style="display: none;"><g><path></path></g></g><g style="display: none;"><g><path></path></g></g><g style="display: none;"><g><path></path></g></g><g style="display: none;"><g><path></path></g></g><g style="display: none;"><g><path></path></g></g><g style="display: none;"><g><path></path></g></g><g style="display: none;"><g><path></path></g></g><g style="display: none;"><g><path></path></g></g><g style="display: none;"><g><path></path></g></g><g style="display: none;"><g><path></path></g></g><g style="display: none;"><g><path></path></g></g><g style="display: none;"><g><path></path></g></g><g style="display: none;"><g><path></path></g></g><g style="display: none;"><g><path></path></g></g><g style="display: none;"><g><path></path></g></g><g style="display: none;"><g><path></path></g></g><g style="display: none;"><g><path></path></g></g><g style="display: none;"><g><path></path></g><g><path></path></g></g><g style="display: none;"><g><path></path></g><g><path></path></g></g><g style="display: none;"><g><path></path></g></g><g style="display: none;"><g><path></path></g></g><g style="display: none;"><g><path></path></g></g><g style="display: none;"><g><path></path></g></g><g style="display: none;"><g><path></path></g></g><g style="display: none;"><g><path></path></g></g><g style="display: none;"><g><path></path></g></g><g style="display: none;"><g><path></path></g></g><g style="display: none;"><g><path></path></g></g></g></g></svg>