<svg xmlns="http://www.w3.org/2000/svg" viewBox="0 0 813 300" width="813" height="300" preserveAspectRatio="xMidYMid meet" style="width: 100%; height: 100%; transform: translate3d(0px, 0px, 0px);"><defs><clipPath id="__lottie_element_187"><rect width="813" height="300" x="0" y="0"></rect></clipPath><clipPath id="__lottie_element_219"><path d="M0,0 L904,0 L904,450 L0,450z"></path></clipPath><clipPath id="__lottie_element_220"><path fill="#ffffff" clip-rule="nonzero" d=" M382.7159118652344,152 C320.7899169921875,152 270.58953857421875,200.74765014648438 270.58953857421875,260.8805236816406 C270.58953857421875,321.0133972167969 320.7899169921875,369.76104736328125 382.7159118652344,369.76104736328125 C444.6419372558594,369.76104736328125 494.84228515625,321.0133972167969 494.84228515625,260.8805236816406 C494.84228515625,200.74765014648438 444.6419372558594,152 382.7159118652344,152" fill-opacity="1"></path></clipPath><clipPath id="__lottie_element_226"><path d="M0,0 L904,0 L904,450 L0,450z"></path></clipPath><clipPath id="__lottie_element_227"><path fill="#ffffff" clip-rule="nonzero" d=" M618.5,127 C571.280029296875,127 533,165.27999877929688 533,212.5 C533,259.7200012207031 571.280029296875,298 618.5,298 C665.719970703125,298 704,259.7200012207031 704,212.5 C704,165.27999877929688 665.719970703125,127 618.5,127" fill-opacity="1"></path></clipPath><clipPath id="__lottie_element_233"><path d="M0,0 L904,0 L904,450 L0,450z"></path></clipPath><clipPath id="__lottie_element_234"><path fill="#ffffff" clip-rule="nonzero" d=" M449.5010070800781,336.7699890136719 C432.12799072265625,304.8869934082031 405.92498779296875,321.3299865722656 405.92498779296875,345.39599609375 C405.92498779296875,369.4620056152344 425.43499755859375,388.97198486328125 449.5010070800781,388.97198486328125 C473.5669860839844,388.97198486328125 493.0769958496094,369.4620056152344 493.0769958496094,345.39599609375 C493.0769958496094,321.3299865722656 466.8739929199219,368.65301513671875 449.5010070800781,336.7699890136719" fill-opacity="1"></path></clipPath><clipPath id="__lottie_element_274"><path d="M0,0 L792,0 L792,218 L0,218z"></path></clipPath></defs><g clip-path="url(#__lottie_element_187)"><g style="display: block;" transform="matrix(1,0,0,1,599.447998046875,150.22000122070312)" opacity="1"><g opacity="1" transform="matrix(1,0,0,1,0,0)"><path stroke-linecap="round" stroke-linejoin="round" fill-opacity="0" stroke-dasharray=" 0 0" stroke-dashoffset="46.68571472167969" stroke="rgb(0,0,0)" stroke-opacity="1" stroke-width="1" d=" M-114.12300109863281,0 C-114.12300109863281,0 92.12300109863281,-0.029999999329447746 92.12300109863281,-0.029999999329447746"></path></g></g><g style="display: block;" transform="matrix(1,0,0,1,220.1929931640625,148.52000427246094)" opacity="1"><g opacity="1" transform="matrix(1,0,0,1,0,0)"><path stroke-linecap="round" stroke-linejoin="round" fill-opacity="0" stroke-dasharray=" 0 0" stroke-dashoffset="46.68571472167969" stroke="rgb(0,0,0)" stroke-opacity="1" stroke-width="1.1" d=" M109.13200378417969,0 C109.13200378417969,0 -92.13200378417969,0.019999999552965164 -92.13200378417969,0.019999999552965164"></path></g></g><g transform="matrix(1,0,0,1,59.5109977722168,158.12399291992188)" opacity="1" style="display: block;"><g opacity="1" transform="matrix(1,0,0,1,0,0)"><path fill="rgb(16,14,14)" fill-opacity="1" d=" M0,-58.51100158691406 C32.29222106933594,-58.51100158691406 58.51100158691406,-32.29222106933594 58.51100158691406,0 C58.51100158691406,32.29222106933594 32.29222106933594,58.51100158691406 0,58.51100158691406 C-32.29222106933594,58.51100158691406 -58.51100158691406,32.29222106933594 -58.51100158691406,0 C-58.51100158691406,-32.29222106933594 -32.29222106933594,-58.51100158691406 0,-58.51100158691406z"></path><path stroke-linecap="round" stroke-linejoin="round" fill-opacity="0" stroke="rgb(0,0,0)" stroke-opacity="1" stroke-width="1" d=" M0,-58.51100158691406 C32.29222106933594,-58.51100158691406 58.51100158691406,-32.29222106933594 58.51100158691406,0 C58.51100158691406,32.29222106933594 32.29222106933594,58.51100158691406 0,58.51100158691406 C-32.29222106933594,58.51100158691406 -58.51100158691406,32.29222106933594 -58.51100158691406,0 C-58.51100158691406,-32.29222106933594 -32.29222106933594,-58.51100158691406 0,-58.51100158691406z"></path></g></g><g transform="matrix(1,0,0,1,68.00899505615234,149.87600708007812)" opacity="1" style="display: block;"><g opacity="1" transform="matrix(1,0,0,1,0,0)"><path fill="rgb(255,255,255)" fill-opacity="1" d=" M0,-58.51100158691406 C32.29222106933594,-58.51100158691406 58.51100158691406,-32.29222106933594 58.51100158691406,0 C58.51100158691406,32.29222106933594 32.29222106933594,58.51100158691406 0,58.51100158691406 C-32.29222106933594,58.51100158691406 -58.51100158691406,32.29222106933594 -58.51100158691406,0 C-58.51100158691406,-32.29222106933594 -32.29222106933594,-58.51100158691406 0,-58.51100158691406z"></path><path stroke-linecap="round" stroke-linejoin="round" fill-opacity="0" stroke="rgb(0,0,0)" stroke-opacity="1" stroke-width="1" d=" M0,-58.51100158691406 C32.29222106933594,-58.51100158691406 58.51100158691406,-32.29222106933594 58.51100158691406,0 C58.51100158691406,32.29222106933594 32.29222106933594,58.51100158691406 0,58.51100158691406 C-32.29222106933594,58.51100158691406 -58.51100158691406,32.29222106933594 -58.51100158691406,0 C-58.51100158691406,-32.29222106933594 -32.29222106933594,-58.51100158691406 0,-58.51100158691406z"></path></g></g><g transform="matrix(1,0,0,1,63.7599983215332,154)" opacity="1" style="display: block;"></g><g transform="matrix(1,0,0,1,745.510986328125,158.12399291992188)" opacity="1" style="display: block;"><g opacity="1" transform="matrix(1,0,0,1,0,0)"><path fill="rgb(16,14,14)" fill-opacity="1" d=" M0,-58.51100158691406 C32.29222106933594,-58.51100158691406 58.51100158691406,-32.29222106933594 58.51100158691406,0 C58.51100158691406,32.29222106933594 32.29222106933594,58.51100158691406 0,58.51100158691406 C-32.29222106933594,58.51100158691406 -58.51100158691406,32.29222106933594 -58.51100158691406,0 C-58.51100158691406,-32.29222106933594 -32.29222106933594,-58.51100158691406 0,-58.51100158691406z"></path><path stroke-linecap="round" stroke-linejoin="round" fill-opacity="0" stroke="rgb(0,0,0)" stroke-opacity="1" stroke-width="1" d=" M0,-58.51100158691406 C32.29222106933594,-58.51100158691406 58.51100158691406,-32.29222106933594 58.51100158691406,0 C58.51100158691406,32.29222106933594 32.29222106933594,58.51100158691406 0,58.51100158691406 C-32.29222106933594,58.51100158691406 -58.51100158691406,32.29222106933594 -58.51100158691406,0 C-58.51100158691406,-32.29222106933594 -32.29222106933594,-58.51100158691406 0,-58.51100158691406z"></path></g></g><g transform="matrix(1,0,0,1,754.009033203125,149.87600708007812)" opacity="1" style="display: block;"><g opacity="1" transform="matrix(1,0,0,1,0,0)"><path fill="rgb(255,255,255)" fill-opacity="1" d=" M0,-58.51100158691406 C32.29222106933594,-58.51100158691406 58.51100158691406,-32.29222106933594 58.51100158691406,0 C58.51100158691406,32.29222106933594 32.29222106933594,58.51100158691406 0,58.51100158691406 C-32.29222106933594,58.51100158691406 -58.51100158691406,32.29222106933594 -58.51100158691406,0 C-58.51100158691406,-32.29222106933594 -32.29222106933594,-58.51100158691406 0,-58.51100158691406z"></path><path stroke-linecap="round" stroke-linejoin="round" fill-opacity="0" stroke="rgb(0,0,0)" stroke-opacity="1" stroke-width="1" d=" M0,-58.51100158691406 C32.29222106933594,-58.51100158691406 58.51100158691406,-32.29222106933594 58.51100158691406,0 C58.51100158691406,32.29222106933594 32.29222106933594,58.51100158691406 0,58.51100158691406 C-32.29222106933594,58.51100158691406 -58.51100158691406,32.29222106933594 -58.51100158691406,0 C-58.51100158691406,-32.29222106933594 -32.29222106933594,-58.51100158691406 0,-58.51100158691406z"></path></g></g><g transform="matrix(1,0,0,1,749.760009765625,154)" opacity="1" style="display: block;"></g><g transform="matrix(1,0,0,1,393.51300048828125,160.2469940185547)" opacity="1" style="display: block;"><g opacity="1" transform="matrix(1,0,0,1,0,0)"><path fill="rgb(16,14,14)" fill-opacity="1" d=" M0,-103.51100158691406 C57.12771987915039,-103.51100158691406 103.51100158691406,-57.12771987915039 103.51100158691406,0 C103.51100158691406,57.12771987915039 57.12771987915039,103.51100158691406 0,103.51100158691406 C-57.12771987915039,103.51100158691406 -103.51100158691406,57.12771987915039 -103.51100158691406,0 C-103.51100158691406,-57.12771987915039 -57.12771987915039,-103.51100158691406 0,-103.51100158691406z"></path><path stroke-linecap="round" stroke-linejoin="round" fill-opacity="0" stroke="rgb(0,0,0)" stroke-opacity="1" stroke-width="1" d=" M0,-103.51100158691406 C57.12771987915039,-103.51100158691406 103.51100158691406,-57.12771987915039 103.51100158691406,0 C103.51100158691406,57.12771987915039 57.12771987915039,103.51100158691406 0,103.51100158691406 C-57.12771987915039,103.51100158691406 -103.51100158691406,57.12771987915039 -103.51100158691406,0 C-103.51100158691406,-57.12771987915039 -57.12771987915039,-103.51100158691406 0,-103.51100158691406z"></path></g></g><g transform="matrix(1,0,0,1,407.5,150)" opacity="1" style="display: block;"><g opacity="1" transform="matrix(1,0,0,1,0,0)"><path fill="rgb(255,255,255)" fill-opacity="1" d=" M0,-102.38700103759766 C56.50738525390625,-102.38700103759766 102.38700103759766,-56.50738525390625 102.38700103759766,0 C102.38700103759766,56.50738525390625 56.50738525390625,102.38700103759766 0,102.38700103759766 C-56.50738525390625,102.38700103759766 -102.38700103759766,56.50738525390625 -102.38700103759766,0 C-102.38700103759766,-56.50738525390625 -56.50738525390625,-102.38700103759766 0,-102.38700103759766z"></path><path stroke-linecap="round" stroke-linejoin="round" fill-opacity="0" stroke="rgb(0,0,0)" stroke-opacity="1" stroke-width="1" d=" M0,-102.38700103759766 C56.50738525390625,-102.38700103759766 102.38700103759766,-56.50738525390625 102.38700103759766,0 C102.38700103759766,56.50738525390625 56.50738525390625,102.38700103759766 0,102.38700103759766 C-56.50738525390625,102.38700103759766 -102.38700103759766,56.50738525390625 -102.38700103759766,0 C-102.38700103759766,-56.50738525390625 -56.50738525390625,-102.38700103759766 0,-102.38700103759766z"></path></g></g><g clip-path="url(#__lottie_element_274)" transform="matrix(1.0099999904632568,0,0,1.0099999904632568,30.993011474609375,6.790000915527344)" opacity="1" style="display: block;"></g><g transform="matrix(1,0,0,1,754.0089721679688,149.9720001220703)" opacity="1" style="display: block;"></g><g transform="matrix(1,0,0,1,67.00399780273438,149.9720001220703)" opacity="1" style="display: block;"></g><g style="display: none;" transform="matrix(1.5948573350906372,0,0,1.5948573350906372,67.00399780273438,149.9720001220703)" opacity="0.03155555555489698"><path stroke-linecap="butt" stroke-linejoin="miter" fill-opacity="0" stroke-miterlimit="4" stroke="rgb(251,84,87)" stroke-opacity="1" stroke-width="1" d=" M0,-36.25149917602539 C20.0072021484375,-36.25149917602539 36.25149917602539,-20.0072021484375 36.25149917602539,0 C36.25149917602539,20.0072021484375 20.0072021484375,36.25149917602539 0,36.25149917602539 C-20.0072021484375,36.25149917602539 -36.25149917602539,20.0072021484375 -36.25149917602539,0 C-36.25149917602539,-20.0072021484375 -20.0072021484375,-36.25149917602539 0,-36.25149917602539z"></path><g opacity="1" transform="matrix(1,0,0,1,0,0)"></g></g><g style="display: none;" transform="matrix(1,0,0,0.699999988079071,468.3819885253906,151.4720001220703)" opacity="1"><g opacity="1" transform="matrix(1,0,0,1,0,0)"><path fill="rgb(88,87,249)" fill-opacity="1" d=" M0,-10.175999641418457 C5.616134166717529,-10.175999641418457 10.175999641418457,-5.616134166717529 10.175999641418457,0 C10.175999641418457,5.616134166717529 5.616134166717529,10.175999641418457 0,10.175999641418457 C-5.616134166717529,10.175999641418457 -10.175999641418457,5.616134166717529 -10.175999641418457,0 C-10.175999641418457,-5.616134166717529 -5.616134166717529,-10.175999641418457 0,-10.175999641418457z"></path></g></g><g style="display: none;" transform="matrix(1,0,0,0.699999988079071,468.3819885253906,151.4720001220703)" opacity="1"><g opacity="1" transform="matrix(1,0,0,1,0,0)"><path fill="rgb(88,87,249)" fill-opacity="1" d=" M0,-10.175999641418457 C5.616134166717529,-10.175999641418457 10.175999641418457,-5.616134166717529 10.175999641418457,0 C10.175999641418457,5.616134166717529 5.616134166717529,10.175999641418457 0,10.175999641418457 C-5.616134166717529,10.175999641418457 -10.175999641418457,5.616134166717529 -10.175999641418457,0 C-10.175999641418457,-5.616134166717529 -5.616134166717529,-10.175999641418457 0,-10.175999641418457z"></path></g></g><g style="display: none;" transform="matrix(1.5948573350906372,0,0,1.5948573350906372,753.8820190429688,149.9720001220703)" opacity="0.03155555555489698"><g opacity="1" transform="matrix(1,0,0,1,0,0)"><path stroke-linecap="butt" stroke-linejoin="miter" fill-opacity="0" stroke-miterlimit="4" stroke="rgb(88,87,249)" stroke-opacity="1" stroke-width="1" d=" M0,-36.25149917602539 C20.0072021484375,-36.25149917602539 36.25149917602539,-20.0072021484375 36.25149917602539,0 C36.25149917602539,20.0072021484375 20.0072021484375,36.25149917602539 0,36.25149917602539 C-20.0072021484375,36.25149917602539 -36.25149917602539,20.0072021484375 -36.25149917602539,0 C-36.25149917602539,-20.0072021484375 -20.0072021484375,-36.25149917602539 0,-36.25149917602539z"></path></g></g><g transform="matrix(1.0220184326171875,0,0,1.0220184326171875,407.49700927734375,149.9720001220703)" opacity="1" style="display: block;"><g opacity="1" transform="matrix(1,0,0,1,0,0)"><path fill="rgb(79,34,96)" fill-opacity="1" d=" M0,-76.64450073242188 C42.30009841918945,-76.64450073242188 76.64450073242188,-42.30009841918945 76.64450073242188,0 C76.64450073242188,42.30009841918945 42.30009841918945,76.64450073242188 0,76.64450073242188 C-42.30009841918945,76.64450073242188 -76.64450073242188,42.30009841918945 -76.64450073242188,0 C-76.64450073242188,-42.30009841918945 -42.30009841918945,-76.64450073242188 0,-76.64450073242188z"></path></g></g><g style="display: none;" transform="matrix(0.9999980926513672,0.001950370380654931,-0.0013374804984778166,0.6857558488845825,342.5039978027344,149.4720001220703)" opacity="1"><g opacity="1" transform="matrix(1,0,0,1,0,0)"><path fill="rgb(251,84,87)" fill-opacity="1" d=" M0,-10.175999641418457 C5.616134166717529,-10.175999641418457 10.175999641418457,-5.616134166717529 10.175999641418457,0 C10.175999641418457,5.616134166717529 5.616134166717529,10.175999641418457 0,10.175999641418457 C-5.616134166717529,10.175999641418457 -10.175999641418457,5.616134166717529 -10.175999641418457,0 C-10.175999641418457,-5.616134166717529 -5.616134166717529,-10.175999641418457 0,-10.175999641418457z"></path></g></g><g style="display: none;" transform="matrix(0.9943365454673767,-0.10627742111682892,0.09201319515705109,0.8608797192573547,708.4447021484375,111.75499725341797)" opacity="1"><g opacity="1" transform="matrix(1,0,0,1,0,0)"><path fill="rgb(88,87,249)" fill-opacity="1" d=" M0,-10.175999641418457 C5.616134166717529,-10.175999641418457 10.175999641418457,-5.616134166717529 10.175999641418457,0 C10.175999641418457,5.616134166717529 5.616134166717529,10.175999641418457 0,10.175999641418457 C-5.616134166717529,10.175999641418457 -10.175999641418457,5.616134166717529 -10.175999641418457,0 C-10.175999641418457,-5.616134166717529 -5.616134166717529,-10.175999641418457 0,-10.175999641418457z"></path></g></g><g style="display: none;" transform="matrix(1,0,0,0.699999988079071,342.5039978027344,149.4720001220703)" opacity="1"><g opacity="1" transform="matrix(1,0,0,1,0,0)"><path fill="rgb(251,84,87)" fill-opacity="1" d=" M0,-10.175999641418457 C5.616134166717529,-10.175999641418457 10.175999641418457,-5.616134166717529 10.175999641418457,0 C10.175999641418457,5.616134166717529 5.616134166717529,10.175999641418457 0,10.175999641418457 C-5.616134166717529,10.175999641418457 -10.175999641418457,5.616134166717529 -10.175999641418457,0 C-10.175999641418457,-5.616134166717529 -5.616134166717529,-10.175999641418457 0,-10.175999641418457z"></path></g></g><g style="display: none;" transform="matrix(1,0,0,0.699999988079071,342.5039978027344,149.4720001220703)" opacity="1"><g opacity="1" transform="matrix(1,0,0,1,0,0)"><path fill="rgb(251,84,87)" fill-opacity="1" d=" M0,-10.175999641418457 C5.616134166717529,-10.175999641418457 10.175999641418457,-5.616134166717529 10.175999641418457,0 C10.175999641418457,5.616134166717529 5.616134166717529,10.175999641418457 0,10.175999641418457 C-5.616134166717529,10.175999641418457 -10.175999641418457,5.616134166717529 -10.175999641418457,0 C-10.175999641418457,-5.616134166717529 -5.616134166717529,-10.175999641418457 0,-10.175999641418457z"></path></g></g><g transform="matrix(0.7665157318115234,0,0,0.7665157318115234,407.49700927734375,149.9720001220703)" opacity="1" style="display: block;"><g opacity="1" transform="matrix(1,0,0,1,0,0)"><path fill="rgb(255,255,255)" fill-opacity="1" d=" M0,-102.38700103759766 C56.50738525390625,-102.38700103759766 102.38700103759766,-56.50738525390625 102.38700103759766,0 C102.38700103759766,56.50738525390625 56.50738525390625,102.38700103759766 0,102.38700103759766 C-56.50738525390625,102.38700103759766 -102.38700103759766,56.50738525390625 -102.38700103759766,0 C-102.38700103759766,-56.50738525390625 -56.50738525390625,-102.38700103759766 0,-102.38700103759766z"></path></g></g><g clip-path="url(#__lottie_element_233)" style="display: block;" transform="matrix(1.0237737894058228,0,0,1.0237737894058228,-51.770267486572266,-80.3494873046875)" opacity="1"><g clip-path="url(#__lottie_element_234)"><g style="display: none;" transform="matrix(0.7499998211860657,0,0,0.7499998211860657,448.49700927734375,224.9720001220703)" opacity="1"><g opacity="1" transform="matrix(1,0,0,1,0,0)"><path fill="rgb(156,52,240)" fill-opacity="1" d=" M0,-102.38700103759766 C56.50738525390625,-102.38700103759766 102.38700103759766,-56.50738525390625 102.38700103759766,0 C102.38700103759766,56.50738525390625 56.50738525390625,102.38700103759766 0,102.38700103759766 C-56.50738525390625,102.38700103759766 -102.38700103759766,56.50738525390625 -102.38700103759766,0 C-102.38700103759766,-56.50738525390625 -56.50738525390625,-102.38700103759766 0,-102.38700103759766z"></path></g></g></g></g><g clip-path="url(#__lottie_element_226)" transform="matrix(0.9054467082023621,0,0,0.9054467082023621,9.627062797546387,-53.72822189331055)" opacity="1" style="display: block;"><g clip-path="url(#__lottie_element_227)"><g style="display: none;" transform="matrix(-1,0,0,1,525.1430053710938,214.1409912109375)" opacity="1"><g opacity="1" transform="matrix(1,0,0,1,0,0)"><path fill="rgb(88,87,249)" fill-opacity="1" d=" M76.6449966430664,87.47599792480469 C118.9739990234375,87.47599792480469 153.28900146484375,53.1609992980957 153.28900146484375,10.831999778747559 C153.28900146484375,10.218999862670898 153.2570037841797,9.61400032043457 153.2429962158203,9.005000114440918 C140.6616668701172,9.275341987609863 111.43289947509766,11.463688850402832 78.11000061035156,17.812999725341797 C44.2592658996582,23.73453140258789 9.878000259399414,0.11100000143051147 0.5419999957084656,1.843999981880188 C0.19699999690055847,4.794000148773193 0,7.789999961853027 0,10.831999778747559 C0,53.1609992980957 34.314998626708984,87.47599792480469 76.6449966430664,87.47599792480469z"></path></g></g></g></g><g clip-path="url(#__lottie_element_219)" transform="matrix(1.0222713947296143,0,0,1.0222713947296143,-50.9892463684082,-80.01069641113281)" opacity="1" style="display: block;"><g clip-path="url(#__lottie_element_220)"><g style="display: block;" transform="matrix(1,0,0,1,371.8529968261719,214.1409912109375)" opacity="1"><g opacity="1" transform="matrix(1,0,0,1,0,0)"><path fill="rgb(251,84,87)" fill-opacity="1" d=" M76.6449966430664,87.47599792480469 C118.9739990234375,87.47599792480469 153.28900146484375,53.1609992980957 153.28900146484375,10.831999778747559 C153.28900146484375,10.218999862670898 153.2570037841797,9.61400032043457 153.2429962158203,9.005000114440918 C141.48751831054688,13.302139282226562 108.40213012695312,26.44853401184082 78.11000061035156,17.812999725341797 C46.94534683227539,8.47033405303955 9.878000259399414,0.11100000143051147 0.5419999957084656,1.843999981880188 C0.19699999690055847,4.794000148773193 0,7.789999961853027 0,10.831999778747559 C0,53.1609992980957 34.314998626708984,87.47599792480469 76.6449966430664,87.47599792480469z"></path></g></g></g></g><g style="display: block;" transform="matrix(0.8762322068214417,0,0,0.8762322068214417,407.49700927734375,149.9720001220703)" opacity="0.6985555555552088"><g opacity="1" transform="matrix(1,0,0,1,0,0)"><path stroke-linecap="round" stroke-linejoin="round" fill-opacity="0" stroke-dasharray=" 0 0" stroke-dashoffset="0" stroke="rgb(156,52,240)" stroke-opacity="1" stroke-width="1" d=" M0,-102.38700103759766 C56.50738525390625,-102.38700103759766 102.38700103759766,-56.50738525390625 102.38700103759766,0 C102.38700103759766,56.50738525390625 56.50738525390625,102.38700103759766 0,102.38700103759766 C-56.50738525390625,102.38700103759766 -102.38700103759766,56.50738525390625 -102.38700103759766,0 C-102.38700103759766,-56.50738525390625 -56.50738525390625,-102.38700103759766 0,-102.38700103759766z"></path></g></g><g style="display: none;" transform="matrix(1.2737314701080322,0,0,1.2737314701080322,407.49700927734375,149.9720001220703)" opacity="0.04666666666624536"><g opacity="1" transform="matrix(1,0,0,1,0,0)"><path stroke-linecap="round" stroke-linejoin="round" fill-opacity="0" stroke-dasharray=" 0 0" stroke-dashoffset="0" stroke="rgb(156,52,240)" stroke-opacity="1" stroke-width="1" d=" M0,-102.38700103759766 C56.50738525390625,-102.38700103759766 102.38700103759766,-56.50738525390625 102.38700103759766,0 C102.38700103759766,56.50738525390625 56.50738525390625,102.38700103759766 0,102.38700103759766 C-56.50738525390625,102.38700103759766 -102.38700103759766,56.50738525390625 -102.38700103759766,0 C-102.38700103759766,-56.50738525390625 -56.50738525390625,-102.38700103759766 0,-102.38700103759766z"></path></g></g><g style="display: none;" transform="matrix(1.2363286018371582,0,0,1.2363286018371582,407.49700927734375,149.9720001220703)" opacity="0.04666666666624536"><g opacity="1" transform="matrix(1,0,0,1,0,0)"><path stroke-linecap="round" stroke-linejoin="round" fill-opacity="0" stroke-dasharray=" 0 0" stroke-dashoffset="0" stroke="rgb(156,52,240)" stroke-opacity="1" stroke-width="1" d=" M0,-102.38700103759766 C56.50738525390625,-102.38700103759766 102.38700103759766,-56.50738525390625 102.38700103759766,0 C102.38700103759766,56.50738525390625 56.50738525390625,102.38700103759766 0,102.38700103759766 C-56.50738525390625,102.38700103759766 -102.38700103759766,56.50738525390625 -102.38700103759766,0 C-102.38700103759766,-56.50738525390625 -56.50738525390625,-102.38700103759766 0,-102.38700103759766z"></path></g></g><g style="display: none;" transform="matrix(1.2724614143371582,0,0,1.2724614143371582,407.49700927734375,149.9720001220703)" opacity="0.04911111111085305"><g opacity="1" transform="matrix(1,0,0,1,0,0)"><path stroke-linecap="round" stroke-linejoin="round" fill-opacity="0" stroke-dasharray=" 0 0" stroke-dashoffset="0" stroke="rgb(156,52,240)" stroke-opacity="1" stroke-width="1" d=" M0,-102.38700103759766 C56.50738525390625,-102.38700103759766 102.38700103759766,-56.50738525390625 102.38700103759766,0 C102.38700103759766,56.50738525390625 56.50738525390625,102.38700103759766 0,102.38700103759766 C-56.50738525390625,102.38700103759766 -102.38700103759766,56.50738525390625 -102.38700103759766,0 C-102.38700103759766,-56.50738525390625 -56.50738525390625,-102.38700103759766 0,-102.38700103759766z"></path></g></g><g style="display: none;" transform="matrix(1.2363444566726685,0,0,1.2363444566726685,407.49700927734375,149.9720001220703)" opacity="0.04911111111085305"><g opacity="1" transform="matrix(1,0,0,1,0,0)"><path stroke-linecap="round" stroke-linejoin="round" fill-opacity="0" stroke-dasharray=" 0 0" stroke-dashoffset="0" stroke="rgb(156,52,240)" stroke-opacity="1" stroke-width="1" d=" M0,-102.38700103759766 C56.50738525390625,-102.38700103759766 102.38700103759766,-56.50738525390625 102.38700103759766,0 C102.38700103759766,56.50738525390625 56.50738525390625,102.38700103759766 0,102.38700103759766 C-56.50738525390625,102.38700103759766 -102.38700103759766,56.50738525390625 -102.38700103759766,0 C-102.38700103759766,-56.50738525390625 -56.50738525390625,-102.38700103759766 0,-102.38700103759766z"></path></g></g><g style="display: none;" transform="matrix(1.2811397314071655,0,0,1.2811397314071655,407.49700927734375,149.9720001220703)" opacity="0.031444444444528305"><g opacity="1" transform="matrix(1,0,0,1,0,0)"><path stroke-linecap="round" stroke-linejoin="round" fill-opacity="0" stroke-dasharray=" 0 0" stroke-dashoffset="0" stroke="rgb(156,52,240)" stroke-opacity="1" stroke-width="1" d=" M0,-102.38700103759766 C56.50738525390625,-102.38700103759766 102.38700103759766,-56.50738525390625 102.38700103759766,0 C102.38700103759766,56.50738525390625 56.50738525390625,102.38700103759766 0,102.38700103759766 C-56.50738525390625,102.38700103759766 -102.38700103759766,56.50738525390625 -102.38700103759766,0 C-102.38700103759766,-56.50738525390625 -56.50738525390625,-102.38700103759766 0,-102.38700103759766z"></path></g></g><g style="display: none;" transform="matrix(1.2357499599456787,0,0,1.2357499599456787,407.49700927734375,149.9720001220703)" opacity="0.03177777777662215"><g opacity="1" transform="matrix(1,0,0,1,0,0)"><path stroke-linecap="round" stroke-linejoin="round" fill-opacity="0" stroke-dasharray=" 0 0" stroke-dashoffset="0" stroke="rgb(156,52,240)" stroke-opacity="1" stroke-width="1" d=" M0,-102.38700103759766 C56.50738525390625,-102.38700103759766 102.38700103759766,-56.50738525390625 102.38700103759766,0 C102.38700103759766,56.50738525390625 56.50738525390625,102.38700103759766 0,102.38700103759766 C-56.50738525390625,102.38700103759766 -102.38700103759766,56.50738525390625 -102.38700103759766,0 C-102.38700103759766,-56.50738525390625 -56.50738525390625,-102.38700103759766 0,-102.38700103759766z"></path></g></g><g style="display: none;" transform="matrix(1.13486909866333,0,0,1.13486909866333,407.49700927734375,149.9720001220703)" opacity="0.04677777777752425"><g opacity="1" transform="matrix(1,0,0,1,0,0)"><path stroke-linecap="round" stroke-linejoin="round" fill-opacity="0" stroke-dasharray=" 0 0" stroke-dashoffset="0" stroke="rgb(156,52,240)" stroke-opacity="1" stroke-width="1" d=" M0,-102.38700103759766 C56.50738525390625,-102.38700103759766 102.38700103759766,-56.50738525390625 102.38700103759766,0 C102.38700103759766,56.50738525390625 56.50738525390625,102.38700103759766 0,102.38700103759766 C-56.50738525390625,102.38700103759766 -102.38700103759766,56.50738525390625 -102.38700103759766,0 C-102.38700103759766,-56.50738525390625 -56.50738525390625,-102.38700103759766 0,-102.38700103759766z"></path></g></g><g style="display: none;" transform="matrix(1.1143666505813599,0,0,1.1143666505813599,410.0450439453125,149.99237060546875)" opacity="0.04344444444418443"><g opacity="1" transform="matrix(1,0,0,1,0,0)"><path stroke-linecap="round" stroke-linejoin="round" fill-opacity="0" stroke-dasharray=" 0 0" stroke-dashoffset="0" stroke="rgb(156,52,240)" stroke-opacity="1" stroke-width="1" d=" M0,-102.38700103759766 C56.50738525390625,-102.38700103759766 102.38700103759766,-56.50738525390625 102.38700103759766,0 C102.38700103759766,56.50738525390625 56.50738525390625,102.38700103759766 0,102.38700103759766 C-56.50738525390625,102.38700103759766 -102.38700103759766,56.50738525390625 -102.38700103759766,0 C-102.38700103759766,-56.50738525390625 -56.50738525390625,-102.38700103759766 0,-102.38700103759766z"></path></g></g></g></svg>