<svg
              xmlns="http://www.w3.org/2000/svg"
              viewBox="0 0 813 300"
              width="813"
              height="300"
              preserveAspectRatio="xMidYMid meet"
              style="width: 100%; height: 100%; transform: translate3d(0px, 0px, 0px);"
            >
              <defs>
                <clipPath id="__lottie_element_311">
                  <rect width="813" height="300" x="0" y="0"></rect>
                </clipPath>
                <clipPath id="__lottie_element_346">
                  <path d="M0,0 L904,0 L904,450 L0,450z"></path>
                </clipPath>
                <clipPath id="__lottie_element_347">
                  <path
                    fill="#ffffff"
                    clip-rule="nonzero"
                    d=" M301.75,152 C263.2279968261719,152 232,183.22799682617188 232,221.75 C232,260.2720031738281 263.2279968261719,291.5 301.75,291.5 C340.2720031738281,291.5 371.5,260.2720031738281 371.5,221.75 C371.5,183.22799682617188 340.2720031738281,152 301.75,152"
                    fill-opacity="1"
                  ></path>
                </clipPath>
                <clipPath id="__lottie_element_353">
                  <path d="M0,0 L904,0 L904,450 L0,450z"></path>
                </clipPath>
                <clipPath id="__lottie_element_354">
                  <path
                    fill="#ffffff"
                    clip-rule="nonzero"
                    d=" M618.5,127 C571.280029296875,127 533,165.27999877929688 533,212.5 C533,259.7200012207031 571.280029296875,298 618.5,298 C665.719970703125,298 704,259.7200012207031 704,212.5 C704,165.27999877929688 665.719970703125,127 618.5,127"
                    fill-opacity="1"
                  ></path>
                </clipPath>
                <clipPath id="__lottie_element_360">
                  <path d="M0,0 L904,0 L904,450 L0,450z"></path>
                </clipPath>
                <clipPath id="__lottie_element_361">
                  <path
                    fill="#ffffff"
                    clip-rule="nonzero"
                    d=" M450.5,115.45600128173828 C337.44000244140625,224.05299377441406 339,190.9199981689453 339,252.5 C339,314.0799865722656 388.9200134277344,364 450.5,364 C512.0800170898438,364 562,314.0799865722656 562,252.5 C562,190.9199981689453 563.5599975585938,6.859000205993652 450.5,115.45600128173828"
                    fill-opacity="1"
                  ></path>
                </clipPath>
                <clipPath id="__lottie_element_401">
                  <path d="M0,0 L792,0 L792,218 L0,218z"></path>
                </clipPath>
              </defs>
              <g clip-path="url(#__lottie_element_311)">
                <g
                  style="display: none;"
                  transform="matrix(1,0,0,1,599.447998046875,150.22000122070312)"
                  opacity="0.01235897435899986"
                >
                  <g opacity="1" transform="matrix(1,0,0,1,0,0)">
                    <path
                      stroke-linecap="round"
                      stroke-linejoin="round"
                      fill-opacity="0"
                      stroke-dasharray=" 0 0"
                      stroke-dashoffset="200"
                      stroke="rgb(102,102,102)"
                      stroke-opacity="1"
                      stroke-width="1"
                      d=" M-114.12300109863281,0 C-114.12300109863281,0 92.12300109863281,-0.029999999329447746 92.12300109863281,-0.029999999329447746"
                    ></path>
                  </g>
                </g>
                <g
                  style="display: none;"
                  transform="matrix(1,0,0,1,220.1929931640625,148.52000427246094)"
                  opacity="0.01235897435899986"
                >
                  <g opacity="1" transform="matrix(1,0,0,1,0,0)">
                    <path
                      stroke-linecap="round"
                      stroke-linejoin="round"
                      fill-opacity="0"
                      stroke-dasharray=" 0 0"
                      stroke-dashoffset="200"
                      stroke="rgb(102,102,102)"
                      stroke-opacity="1"
                      stroke-width="1.1"
                      d=" M109.13200378417969,0 C109.13200378417969,0 -92.13200378417969,0.019999999552965164 -92.13200378417969,0.019999999552965164"
                    ></path>
                  </g>
                </g>
                <g
                  transform="matrix(1,0,0,1,59.5109977722168,158.12399291992188)"
                  opacity="1"
                  style="display: block;"
                >
                  <g opacity="1" transform="matrix(1,0,0,1,0,0)">
                    <path
                      fill="rgb(102,102,102)"
                      fill-opacity="1"
                      d=" M0,-58.51100158691406 C32.29222106933594,-58.51100158691406 58.51100158691406,-32.29222106933594 58.51100158691406,0 C58.51100158691406,32.29222106933594 32.29222106933594,58.51100158691406 0,58.51100158691406 C-32.29222106933594,58.51100158691406 -58.51100158691406,32.29222106933594 -58.51100158691406,0 C-58.51100158691406,-32.29222106933594 -32.29222106933594,-58.51100158691406 0,-58.51100158691406z"
                    ></path>
                    <path
                      stroke-linecap="round"
                      stroke-linejoin="round"
                      fill-opacity="0"
                      stroke="rgb(102,102,102)"
                      stroke-opacity="1"
                      stroke-width="1"
                      d=" M0,-58.51100158691406 C32.29222106933594,-58.51100158691406 58.51100158691406,-32.29222106933594 58.51100158691406,0 C58.51100158691406,32.29222106933594 32.29222106933594,58.51100158691406 0,58.51100158691406 C-32.29222106933594,58.51100158691406 -58.51100158691406,32.29222106933594 -58.51100158691406,0 C-58.51100158691406,-32.29222106933594 -32.29222106933594,-58.51100158691406 0,-58.51100158691406z"
                    ></path>
                  </g>
                </g>
                <g
                  transform="matrix(1,0,0,1,68.00899505615234,149.87600708007812)"
                  opacity="1"
                  style="display: block;"
                >
                  <g opacity="1" transform="matrix(1,0,0,1,0,0)">
                    <path
                      fill="rgb(18,18,18)"
                      fill-opacity="1"
                      d=" M0,-58.51100158691406 C32.29222106933594,-58.51100158691406 58.51100158691406,-32.29222106933594 58.51100158691406,0 C58.51100158691406,32.29222106933594 32.29222106933594,58.51100158691406 0,58.51100158691406 C-32.29222106933594,58.51100158691406 -58.51100158691406,32.29222106933594 -58.51100158691406,0 C-58.51100158691406,-32.29222106933594 -32.29222106933594,-58.51100158691406 0,-58.51100158691406z"
                    ></path>
                    <path
                      stroke-linecap="round"
                      stroke-linejoin="round"
                      fill-opacity="0"
                      stroke="rgb(255,255,255)"
                      stroke-opacity="1"
                      stroke-width="1"
                      d=" M0,-58.51100158691406 C32.29222106933594,-58.51100158691406 58.51100158691406,-32.29222106933594 58.51100158691406,0 C58.51100158691406,32.29222106933594 32.29222106933594,58.51100158691406 0,58.51100158691406 C-32.29222106933594,58.51100158691406 -58.51100158691406,32.29222106933594 -58.51100158691406,0 C-58.51100158691406,-32.29222106933594 -32.29222106933594,-58.51100158691406 0,-58.51100158691406z"
                    ></path>
                  </g>
                </g>
                <g
                  transform="matrix(1,0,0,1,63.7599983215332,154)"
                  opacity="1"
                  style="display: block;"
                ></g>
                <g
                  transform="matrix(1,0,0,1,745.510986328125,158.12399291992188)"
                  opacity="1"
                  style="display: block;"
                >
                  <g opacity="1" transform="matrix(1,0,0,1,0,0)">
                    <path
                      fill="rgb(102,102,102)"
                      fill-opacity="1"
                      d=" M0,-58.51100158691406 C32.29222106933594,-58.51100158691406 58.51100158691406,-32.29222106933594 58.51100158691406,0 C58.51100158691406,32.29222106933594 32.29222106933594,58.51100158691406 0,58.51100158691406 C-32.29222106933594,58.51100158691406 -58.51100158691406,32.29222106933594 -58.51100158691406,0 C-58.51100158691406,-32.29222106933594 -32.29222106933594,-58.51100158691406 0,-58.51100158691406z"
                    ></path>
                    <path
                      stroke-linecap="round"
                      stroke-linejoin="round"
                      fill-opacity="0"
                      stroke="rgb(102,102,102)"
                      stroke-opacity="1"
                      stroke-width="1"
                      d=" M0,-58.51100158691406 C32.29222106933594,-58.51100158691406 58.51100158691406,-32.29222106933594 58.51100158691406,0 C58.51100158691406,32.29222106933594 32.29222106933594,58.51100158691406 0,58.51100158691406 C-32.29222106933594,58.51100158691406 -58.51100158691406,32.29222106933594 -58.51100158691406,0 C-58.51100158691406,-32.29222106933594 -32.29222106933594,-58.51100158691406 0,-58.51100158691406z"
                    ></path>
                  </g>
                </g>
                <g
                  transform="matrix(1,0,0,1,754.009033203125,149.87600708007812)"
                  opacity="1"
                  style="display: block;"
                >
                  <g opacity="1" transform="matrix(1,0,0,1,0,0)">
                    <path
                      fill="rgb(18,18,18)"
                      fill-opacity="1"
                      d=" M0,-58.51100158691406 C32.29222106933594,-58.51100158691406 58.51100158691406,-32.29222106933594 58.51100158691406,0 C58.51100158691406,32.29222106933594 32.29222106933594,58.51100158691406 0,58.51100158691406 C-32.29222106933594,58.51100158691406 -58.51100158691406,32.29222106933594 -58.51100158691406,0 C-58.51100158691406,-32.29222106933594 -32.29222106933594,-58.51100158691406 0,-58.51100158691406z"
                    ></path>
                    <path
                      stroke-linecap="round"
                      stroke-linejoin="round"
                      fill-opacity="0"
                      stroke="rgb(255,255,255)"
                      stroke-opacity="1"
                      stroke-width="1"
                      d=" M0,-58.51100158691406 C32.29222106933594,-58.51100158691406 58.51100158691406,-32.29222106933594 58.51100158691406,0 C58.51100158691406,32.29222106933594 32.29222106933594,58.51100158691406 0,58.51100158691406 C-32.29222106933594,58.51100158691406 -58.51100158691406,32.29222106933594 -58.51100158691406,0 C-58.51100158691406,-32.29222106933594 -32.29222106933594,-58.51100158691406 0,-58.51100158691406z"
                    ></path>
                  </g>
                </g>
                <g
                  transform="matrix(1,0,0,1,749.760009765625,154)"
                  opacity="1"
                  style="display: block;"
                ></g>
                <g
                  transform="matrix(1,0,0,1,393.51300048828125,160.2469940185547)"
                  opacity="1"
                  style="display: block;"
                >
                  <g opacity="1" transform="matrix(1,0,0,1,0,0)">
                    <path
                      fill="rgb(102,102,102)"
                      fill-opacity="1"
                      d=" M0,-103.51100158691406 C57.12771987915039,-103.51100158691406 103.51100158691406,-57.12771987915039 103.51100158691406,0 C103.51100158691406,57.12771987915039 57.12771987915039,103.51100158691406 0,103.51100158691406 C-57.12771987915039,103.51100158691406 -103.51100158691406,57.12771987915039 -103.51100158691406,0 C-103.51100158691406,-57.12771987915039 -57.12771987915039,-103.51100158691406 0,-103.51100158691406z"
                    ></path>
                    <path
                      stroke-linecap="round"
                      stroke-linejoin="round"
                      fill-opacity="0"
                      stroke="rgb(102,102,102)"
                      stroke-opacity="1"
                      stroke-width="1"
                      d=" M0,-103.51100158691406 C57.12771987915039,-103.51100158691406 103.51100158691406,-57.12771987915039 103.51100158691406,0 C103.51100158691406,57.12771987915039 57.12771987915039,103.51100158691406 0,103.51100158691406 C-57.12771987915039,103.51100158691406 -103.51100158691406,57.12771987915039 -103.51100158691406,0 C-103.51100158691406,-57.12771987915039 -57.12771987915039,-103.51100158691406 0,-103.51100158691406z"
                    ></path>
                  </g>
                </g>
                <g
                  transform="matrix(1,0,0,1,407.5,150)"
                  opacity="1"
                  style="display: block;"
                >
                  <g opacity="1" transform="matrix(1,0,0,1,0,0)">
                    <path
                      fill="rgb(18,18,18)"
                      fill-opacity="1"
                      d=" M0,-102.38700103759766 C56.50738525390625,-102.38700103759766 102.38700103759766,-56.50738525390625 102.38700103759766,0 C102.38700103759766,56.50738525390625 56.50738525390625,102.38700103759766 0,102.38700103759766 C-56.50738525390625,102.38700103759766 -102.38700103759766,56.50738525390625 -102.38700103759766,0 C-102.38700103759766,-56.50738525390625 -56.50738525390625,-102.38700103759766 0,-102.38700103759766z"
                    ></path>
                    <path
                      stroke-linecap="round"
                      stroke-linejoin="round"
                      fill-opacity="0"
                      stroke="rgb(255,255,255)"
                      stroke-opacity="1"
                      stroke-width="1"
                      d=" M0,-102.38700103759766 C56.50738525390625,-102.38700103759766 102.38700103759766,-56.50738525390625 102.38700103759766,0 C102.38700103759766,56.50738525390625 56.50738525390625,102.38700103759766 0,102.38700103759766 C-56.50738525390625,102.38700103759766 -102.38700103759766,56.50738525390625 -102.38700103759766,0 C-102.38700103759766,-56.50738525390625 -56.50738525390625,-102.38700103759766 0,-102.38700103759766z"
                    ></path>
                  </g>
                </g>
                <g
                  clip-path="url(#__lottie_element_401)"
                  transform="matrix(1.0099999904632568,0,0,1.0099999904632568,30.993011474609375,6.790000915527344)"
                  opacity="1"
                  style="display: block;"
                ></g>
                <g
                  transform="matrix(1,0,0,1,754.0089721679688,149.9720001220703)"
                  opacity="1"
                  style="display: block;"
                ></g>
                <g
                  transform="matrix(1,0,0,1,67.00399780273438,149.9720001220703)"
                  opacity="1"
                  style="display: block;"
                ></g>
                <g
                  style="display: none;"
                  transform="matrix(1.587693452835083,0,0,1.587693452835083,67.00399780273438,149.9720001220703)"
                  opacity="0.052888888888974035"
                >
                  <path
                    stroke-linecap="butt"
                    stroke-linejoin="miter"
                    fill-opacity="0"
                    stroke-miterlimit="4"
                    stroke="rgb(251,84,87)"
                    stroke-opacity="1"
                    stroke-width="1"
                    d=" M0,-36.25149917602539 C20.0072021484375,-36.25149917602539 36.25149917602539,-20.0072021484375 36.25149917602539,0 C36.25149917602539,20.0072021484375 20.0072021484375,36.25149917602539 0,36.25149917602539 C-20.0072021484375,36.25149917602539 -36.25149917602539,20.0072021484375 -36.25149917602539,0 C-36.25149917602539,-20.0072021484375 -20.0072021484375,-36.25149917602539 0,-36.25149917602539z"
                  ></path>
                  <g opacity="1" transform="matrix(1,0,0,1,0,0)"></g>
                </g>
                <g
                  style="display: none;"
                  transform="matrix(1,0,0,0.699999988079071,468.3819885253906,151.4720001220703)"
                  opacity="1"
                >
                  <g opacity="1" transform="matrix(1,0,0,1,0,0)">
                    <path
                      fill="rgb(88,87,249)"
                      fill-opacity="1"
                      d=" M0,-10.175999641418457 C5.616134166717529,-10.175999641418457 10.175999641418457,-5.616134166717529 10.175999641418457,0 C10.175999641418457,5.616134166717529 5.616134166717529,10.175999641418457 0,10.175999641418457 C-5.616134166717529,10.175999641418457 -10.175999641418457,5.616134166717529 -10.175999641418457,0 C-10.175999641418457,-5.616134166717529 -5.616134166717529,-10.175999641418457 0,-10.175999641418457z"
                    ></path>
                  </g>
                </g>
                <g
                  style="display: none;"
                  transform="matrix(1,0,0,0.699999988079071,468.3819885253906,151.4720001220703)"
                  opacity="1"
                >
                  <g opacity="1" transform="matrix(1,0,0,1,0,0)">
                    <path
                      fill="rgb(88,87,249)"
                      fill-opacity="1"
                      d=" M0,-10.175999641418457 C5.616134166717529,-10.175999641418457 10.175999641418457,-5.616134166717529 10.175999641418457,0 C10.175999641418457,5.616134166717529 5.616134166717529,10.175999641418457 0,10.175999641418457 C-5.616134166717529,10.175999641418457 -10.175999641418457,5.616134166717529 -10.175999641418457,0 C-10.175999641418457,-5.616134166717529 -5.616134166717529,-10.175999641418457 0,-10.175999641418457z"
                    ></path>
                  </g>
                </g>
                <g
                  style="display: none;"
                  transform="matrix(1.587693452835083,0,0,1.587693452835083,753.8820190429688,149.9720001220703)"
                  opacity="0.052888888888974035"
                >
                  <g opacity="1" transform="matrix(1,0,0,1,0,0)">
                    <path
                      stroke-linecap="butt"
                      stroke-linejoin="miter"
                      fill-opacity="0"
                      stroke-miterlimit="4"
                      stroke="rgb(88,87,249)"
                      stroke-opacity="1"
                      stroke-width="1"
                      d=" M0,-36.25149917602539 C20.0072021484375,-36.25149917602539 36.25149917602539,-20.0072021484375 36.25149917602539,0 C36.25149917602539,20.0072021484375 20.0072021484375,36.25149917602539 0,36.25149917602539 C-20.0072021484375,36.25149917602539 -36.25149917602539,20.0072021484375 -36.25149917602539,0 C-36.25149917602539,-20.0072021484375 -20.0072021484375,-36.25149917602539 0,-36.25149917602539z"
                    ></path>
                  </g>
                </g>
                <g
                  transform="matrix(0,0,0,0,407.49700927734375,149.9720001220703)"
                  opacity="1"
                  style="display: block;"
                >
                  <g opacity="1" transform="matrix(1,0,0,1,0,0)">
                    <path
                      fill="rgb(79,34,96)"
                      fill-opacity="1"
                      d=" M0,-76.64450073242188 C42.30009841918945,-76.64450073242188 76.64450073242188,-42.30009841918945 76.64450073242188,0 C76.64450073242188,42.30009841918945 42.30009841918945,76.64450073242188 0,76.64450073242188 C-42.30009841918945,76.64450073242188 -76.64450073242188,42.30009841918945 -76.64450073242188,0 C-76.64450073242188,-42.30009841918945 -42.30009841918945,-76.64450073242188 0,-76.64450073242188z"
                    ></path>
                  </g>
                </g>
                <g
                  style="display: none;"
                  transform="matrix(0.9999949932098389,0.003157311584800482,-0.002176038920879364,0.6892028450965881,342.5039978027344,149.4720001220703)"
                  opacity="1"
                >
                  <g opacity="1" transform="matrix(1,0,0,1,0,0)">
                    <path
                      fill="rgb(251,84,87)"
                      fill-opacity="1"
                      d=" M0,-10.175999641418457 C5.616134166717529,-10.175999641418457 10.175999641418457,-5.616134166717529 10.175999641418457,0 C10.175999641418457,5.616134166717529 5.616134166717529,10.175999641418457 0,10.175999641418457 C-5.616134166717529,10.175999641418457 -10.175999641418457,5.616134166717529 -10.175999641418457,0 C-10.175999641418457,-5.616134166717529 -5.616134166717529,-10.175999641418457 0,-10.175999641418457z"
                    ></path>
                  </g>
                </g>
                <g
                  style="display: none;"
                  transform="matrix(1,0,0,0.699999988079071,468.3819885253906,151.4720001220703)"
                  opacity="1"
                >
                  <g opacity="1" transform="matrix(1,0,0,1,0,0)">
                    <path
                      fill="rgb(88,87,249)"
                      fill-opacity="1"
                      d=" M0,-10.175999641418457 C5.616134166717529,-10.175999641418457 10.175999641418457,-5.616134166717529 10.175999641418457,0 C10.175999641418457,5.616134166717529 5.616134166717529,10.175999641418457 0,10.175999641418457 C-5.616134166717529,10.175999641418457 -10.175999641418457,5.616134166717529 -10.175999641418457,0 C-10.175999641418457,-5.616134166717529 -5.616134166717529,-10.175999641418457 0,-10.175999641418457z"
                    ></path>
                  </g>
                </g>
                <g
                  style="display: none;"
                  transform="matrix(1,0,0,0.699999988079071,342.5039978027344,149.4720001220703)"
                  opacity="1"
                >
                  <g opacity="1" transform="matrix(1,0,0,1,0,0)">
                    <path
                      fill="rgb(251,84,87)"
                      fill-opacity="1"
                      d=" M0,-10.175999641418457 C5.616134166717529,-10.175999641418457 10.175999641418457,-5.616134166717529 10.175999641418457,0 C10.175999641418457,5.616134166717529 5.616134166717529,10.175999641418457 0,10.175999641418457 C-5.616134166717529,10.175999641418457 -10.175999641418457,5.616134166717529 -10.175999641418457,0 C-10.175999641418457,-5.616134166717529 -5.616134166717529,-10.175999641418457 0,-10.175999641418457z"
                    ></path>
                  </g>
                </g>
                <g
                  style="display: none;"
                  transform="matrix(1,0,0,0.699999988079071,342.5039978027344,149.4720001220703)"
                  opacity="1"
                >
                  <g opacity="1" transform="matrix(1,0,0,1,0,0)">
                    <path
                      fill="rgb(251,84,87)"
                      fill-opacity="1"
                      d=" M0,-10.175999641418457 C5.616134166717529,-10.175999641418457 10.175999641418457,-5.616134166717529 10.175999641418457,0 C10.175999641418457,5.616134166717529 5.616134166717529,10.175999641418457 0,10.175999641418457 C-5.616134166717529,10.175999641418457 -10.175999641418457,5.616134166717529 -10.175999641418457,0 C-10.175999641418457,-5.616134166717529 -5.616134166717529,-10.175999641418457 0,-10.175999641418457z"
                    ></path>
                  </g>
                </g>
                <g
                  transform="matrix(0,0,0,0,407.49700927734375,149.9720001220703)"
                  opacity="1"
                  style="display: block;"
                >
                  <g opacity="1" transform="matrix(1,0,0,1,0,0)">
                    <path
                      fill="rgb(18,18,18)"
                      fill-opacity="1"
                      d=" M0,-102.38700103759766 C56.50738525390625,-102.38700103759766 102.38700103759766,-56.50738525390625 102.38700103759766,0 C102.38700103759766,56.50738525390625 56.50738525390625,102.38700103759766 0,102.38700103759766 C-56.50738525390625,102.38700103759766 -102.38700103759766,56.50738525390625 -102.38700103759766,0 C-102.38700103759766,-56.50738525390625 -56.50738525390625,-102.38700103759766 0,-102.38700103759766z"
                    ></path>
                  </g>
                </g>
                <g
                  clip-path="url(#__lottie_element_360)"
                  transform="matrix(1.0020781755447388,0,0,1.0020781755447388,-42.0375862121582,-75.46856689453125)"
                  opacity="0"
                  style="display: none;"
                >
                  <g clip-path="url(#__lottie_element_361)">
                    <g
                      style="display: block;"
                      transform="matrix(0.7499998807907104,0,0,0.7499998807907104,448.49700927734375,224.9720001220703)"
                      opacity="1"
                    >
                      <g opacity="1" transform="matrix(1,0,0,1,0,0)">
                        <path
                          fill="rgb(156,52,240)"
                          fill-opacity="1"
                          d=" M0,-102.38700103759766 C56.50738525390625,-102.38700103759766 102.38700103759766,-56.50738525390625 102.38700103759766,0 C102.38700103759766,56.50738525390625 56.50738525390625,102.38700103759766 0,102.38700103759766 C-56.50738525390625,102.38700103759766 -102.38700103759766,56.50738525390625 -102.38700103759766,0 C-102.38700103759766,-56.50738525390625 -56.50738525390625,-102.38700103759766 0,-102.38700103759766z"
                        ></path>
                      </g>
                    </g>
                  </g>
                </g>
                <g
                  clip-path="url(#__lottie_element_353)"
                  transform="matrix(0,0,0,0,407.49700927734375,149.9720001220703)"
                  opacity="1"
                  style="display: block;"
                >
                  <g clip-path="url(#__lottie_element_354)">
                    <g
                      style="display: none;"
                      transform="matrix(-1,0,0,1,525.1430053710938,214.1409912109375)"
                      opacity="1"
                    >
                      <g opacity="1" transform="matrix(1,0,0,1,0,0)">
                        <path
                          fill="rgb(88,87,249)"
                          fill-opacity="1"
                          d=" M76.6449966430664,87.47599792480469 C118.9739990234375,87.47599792480469 153.28900146484375,53.1609992980957 153.28900146484375,10.831999778747559 C153.28900146484375,10.218999862670898 153.2570037841797,9.61400032043457 153.2429962158203,9.005000114440918 C140.63633728027344,9.151881217956543 111.52582550048828,11.004255294799805 78.11000061035156,17.812999725341797 C44.176910400390625,24.202529907226562 9.878000259399414,0.11100000143051147 0.5419999957084656,1.843999981880188 C0.19699999690055847,4.794000148773193 0,7.789999961853027 0,10.831999778747559 C0,53.1609992980957 34.314998626708984,87.47599792480469 76.6449966430664,87.47599792480469z"
                        ></path>
                      </g>
                    </g>
                  </g>
                </g>
                <g
                  clip-path="url(#__lottie_element_346)"
                  transform="matrix(0,0,0,0,407.49700927734375,149.9720001220703)"
                  opacity="1"
                  style="display: block;"
                >
                  <g clip-path="url(#__lottie_element_347)">
                    <g
                      style="display: none;"
                      transform="matrix(1,0,0,1,371.8529968261719,214.1409912109375)"
                      opacity="1"
                    >
                      <g opacity="1" transform="matrix(1,0,0,1,0,0)">
                        <path
                          fill="rgb(251,84,87)"
                          fill-opacity="1"
                          d=" M76.6449966430664,87.47599792480469 C118.9739990234375,87.47599792480469 153.28900146484375,53.1609992980957 153.28900146484375,10.831999778747559 C153.28900146484375,10.218999862670898 153.2570037841797,9.61400032043457 153.2429962158203,9.005000114440918 C141.0950469970703,11.388493537902832 109.84243774414062,19.327320098876953 78.11000061035156,17.812999725341797 C45.668846130371094,15.724303245544434 9.878000259399414,0.11100000143051147 0.5419999957084656,1.843999981880188 C0.19699999690055847,4.794000148773193 0,7.789999961853027 0,10.831999778747559 C0,53.1609992980957 34.314998626708984,87.47599792480469 76.6449966430664,87.47599792480469z"
                        ></path>
                      </g>
                    </g>
                  </g>
                </g>
                <g
                  style="display: none;"
                  transform="matrix(1.2105298042297363,0,0,1.2105298042297363,407.49700927734375,149.9720001220703)"
                  opacity="0.0532222222223011"
                >
                  <g opacity="1" transform="matrix(1,0,0,1,0,0)">
                    <path
                      stroke-linecap="round"
                      stroke-linejoin="round"
                      fill-opacity="0"
                      stroke-dasharray=" 0 0"
                      stroke-dashoffset="0"
                      stroke="rgb(156,52,240)"
                      stroke-opacity="1"
                      stroke-width="1"
                      d=" M0,-102.38700103759766 C56.50738525390625,-102.38700103759766 102.38700103759766,-56.50738525390625 102.38700103759766,0 C102.38700103759766,56.50738525390625 56.50738525390625,102.38700103759766 0,102.38700103759766 C-56.50738525390625,102.38700103759766 -102.38700103759766,56.50738525390625 -102.38700103759766,0 C-102.38700103759766,-56.50738525390625 -56.50738525390625,-102.38700103759766 0,-102.38700103759766z"
                    ></path>
                  </g>
                </g>
                <g
                  style="display: none;"
                  transform="matrix(1.2865989208221436,0,0,1.2865989208221436,407.49700927734375,149.9720001220703)"
                  opacity="0.05322222222229954"
                >
                  <g opacity="1" transform="matrix(1,0,0,1,0,0)">
                    <path
                      stroke-linecap="round"
                      stroke-linejoin="round"
                      fill-opacity="0"
                      stroke-dasharray=" 0 0"
                      stroke-dashoffset="0"
                      stroke="rgb(156,52,240)"
                      stroke-opacity="1"
                      stroke-width="1"
                      d=" M0,-102.38700103759766 C56.50738525390625,-102.38700103759766 102.38700103759766,-56.50738525390625 102.38700103759766,0 C102.38700103759766,56.50738525390625 56.50738525390625,102.38700103759766 0,102.38700103759766 C-56.50738525390625,102.38700103759766 -102.38700103759766,56.50738525390625 -102.38700103759766,0 C-102.38700103759766,-56.50738525390625 -56.50738525390625,-102.38700103759766 0,-102.38700103759766z"
                    ></path>
                  </g>
                </g>
                <g
                  style="display: none;"
                  transform="matrix(1.2921611070632935,0,0,1.2921611070632935,407.49700927734375,149.9720001220703)"
                  opacity="0.0010000000000174225"
                >
                  <g opacity="1" transform="matrix(1,0,0,1,0,0)">
                    <path
                      stroke-linecap="round"
                      stroke-linejoin="round"
                      fill-opacity="0"
                      stroke-dasharray=" 0 0"
                      stroke-dashoffset="0"
                      stroke="rgb(156,52,240)"
                      stroke-opacity="1"
                      stroke-width="1"
                      d=" M0,-102.38700103759766 C56.50738525390625,-102.38700103759766 102.38700103759766,-56.50738525390625 102.38700103759766,0 C102.38700103759766,56.50738525390625 56.50738525390625,102.38700103759766 0,102.38700103759766 C-56.50738525390625,102.38700103759766 -102.38700103759766,56.50738525390625 -102.38700103759766,0 C-102.38700103759766,-56.50738525390625 -56.50738525390625,-102.38700103759766 0,-102.38700103759766z"
                    ></path>
                  </g>
                </g>
                <g
                  style="display: none;"
                  transform="matrix(1.2307852506637573,0,0,1.2307852506637573,407.49700927734375,149.9720001220703)"
                  opacity="0.0006666666666824029"
                >
                  <g opacity="1" transform="matrix(1,0,0,1,0,0)">
                    <path
                      stroke-linecap="round"
                      stroke-linejoin="round"
                      fill-opacity="0"
                      stroke-dasharray=" 0 0"
                      stroke-dashoffset="0"
                      stroke="rgb(156,52,240)"
                      stroke-opacity="1"
                      stroke-width="1"
                      d=" M0,-102.38700103759766 C56.50738525390625,-102.38700103759766 102.38700103759766,-56.50738525390625 102.38700103759766,0 C102.38700103759766,56.50738525390625 56.50738525390625,102.38700103759766 0,102.38700103759766 C-56.50738525390625,102.38700103759766 -102.38700103759766,56.50738525390625 -102.38700103759766,0 C-102.38700103759766,-56.50738525390625 -56.50738525390625,-102.38700103759766 0,-102.38700103759766z"
                    ></path>
                  </g>
                </g>
                <g
                  style="display: none;"
                  transform="matrix(1.1345292329788208,0,0,1.1345292329788208,407.49700927734375,149.9720001220703)"
                  opacity="0.05344444444437429"
                >
                  <g opacity="1" transform="matrix(1,0,0,1,0,0)">
                    <path
                      stroke-linecap="round"
                      stroke-linejoin="round"
                      fill-opacity="0"
                      stroke-dasharray=" 0 0"
                      stroke-dashoffset="0"
                      stroke="rgb(156,52,240)"
                      stroke-opacity="1"
                      stroke-width="1"
                      d=" M0,-102.38700103759766 C56.50738525390625,-102.38700103759766 102.38700103759766,-56.50738525390625 102.38700103759766,0 C102.38700103759766,56.50738525390625 56.50738525390625,102.38700103759766 0,102.38700103759766 C-56.50738525390625,102.38700103759766 -102.38700103759766,56.50738525390625 -102.38700103759766,0 C-102.38700103759766,-56.50738525390625 -56.50738525390625,-102.38700103759766 0,-102.38700103759766z"
                    ></path>
                  </g>
                </g>
                <g
                  style="display: none;"
                  transform="matrix(1.1109607219696045,0,0,1.1109607219696045,410.042724609375,149.9923553466797)"
                  opacity="0.0534444444443713"
                >
                  <g opacity="1" transform="matrix(1,0,0,1,0,0)">
                    <path
                      stroke-linecap="round"
                      stroke-linejoin="round"
                      fill-opacity="0"
                      stroke-dasharray=" 0 0"
                      stroke-dashoffset="0"
                      stroke="rgb(156,52,240)"
                      stroke-opacity="1"
                      stroke-width="1"
                      d=" M0,-102.38700103759766 C56.50738525390625,-102.38700103759766 102.38700103759766,-56.50738525390625 102.38700103759766,0 C102.38700103759766,56.50738525390625 56.50738525390625,102.38700103759766 0,102.38700103759766 C-56.50738525390625,102.38700103759766 -102.38700103759766,56.50738525390625 -102.38700103759766,0 C-102.38700103759766,-56.50738525390625 -56.50738525390625,-102.38700103759766 0,-102.38700103759766z"
                    ></path>
                  </g>
                </g>
                <g
                  style="display: none;"
                  transform="matrix(1.294421672821045,0,0,1.294421672821045,407.49700927734375,149.9720001220703)"
                  opacity="0.053666666666603934"
                >
                  <g opacity="1" transform="matrix(1,0,0,1,0,0)">
                    <path
                      stroke-linecap="round"
                      stroke-linejoin="round"
                      fill-opacity="0"
                      stroke-dasharray=" 0 0"
                      stroke-dashoffset="0"
                      stroke="rgb(156,52,240)"
                      stroke-opacity="1"
                      stroke-width="1"
                      d=" M0,-102.38700103759766 C56.50738525390625,-102.38700103759766 102.38700103759766,-56.50738525390625 102.38700103759766,0 C102.38700103759766,56.50738525390625 56.50738525390625,102.38700103759766 0,102.38700103759766 C-56.50738525390625,102.38700103759766 -102.38700103759766,56.50738525390625 -102.38700103759766,0 C-102.38700103759766,-56.50738525390625 -56.50738525390625,-102.38700103759766 0,-102.38700103759766z"
                    ></path>
                  </g>
                </g>
                <g
                  style="display: none;"
                  transform="matrix(1.204870343208313,0,0,1.204870343208313,410.2580261230469,149.9940643310547)"
                  opacity="0.053666666666603934"
                >
                  <g opacity="1" transform="matrix(1,0,0,1,0,0)">
                    <path
                      stroke-linecap="round"
                      stroke-linejoin="round"
                      fill-opacity="0"
                      stroke-dasharray=" 0 0"
                      stroke-dashoffset="0"
                      stroke="rgb(156,52,240)"
                      stroke-opacity="1"
                      stroke-width="1"
                      d=" M0,-102.38700103759766 C56.50738525390625,-102.38700103759766 102.38700103759766,-56.50738525390625 102.38700103759766,0 C102.38700103759766,56.50738525390625 56.50738525390625,102.38700103759766 0,102.38700103759766 C-56.50738525390625,102.38700103759766 -102.38700103759766,56.50738525390625 -102.38700103759766,0 C-102.38700103759766,-56.50738525390625 -56.50738525390625,-102.38700103759766 0,-102.38700103759766z"
                    ></path>
                  </g>
                </g>
                <g
                  style="display: none;"
                  transform="matrix(1.295115351676941,0,0,1.295115351676941,407.49700927734375,149.9720001220703)"
                  opacity="0.053777777777731475"
                >
                  <g opacity="1" transform="matrix(1,0,0,1,0,0)">
                    <path
                      stroke-linecap="round"
                      stroke-linejoin="round"
                      fill-opacity="0"
                      stroke-dasharray=" 0 0"
                      stroke-dashoffset="0"
                      stroke="rgb(156,52,240)"
                      stroke-opacity="1"
                      stroke-width="1"
                      d=" M0,-102.38700103759766 C56.50738525390625,-102.38700103759766 102.38700103759766,-56.50738525390625 102.38700103759766,0 C102.38700103759766,56.50738525390625 56.50738525390625,102.38700103759766 0,102.38700103759766 C-56.50738525390625,102.38700103759766 -102.38700103759766,56.50738525390625 -102.38700103759766,0 C-102.38700103759766,-56.50738525390625 -56.50738525390625,-102.38700103759766 0,-102.38700103759766z"
                    ></path>
                  </g>
                </g>
                <g
                  style="display: none;"
                  transform="matrix(1.1712380647659302,0,0,1.1712380647659302,410.1808166503906,149.9934539794922)"
                  opacity="0.05344444444438068"
                >
                  <g opacity="1" transform="matrix(1,0,0,1,0,0)">
                    <path
                      stroke-linecap="round"
                      stroke-linejoin="round"
                      fill-opacity="0"
                      stroke-dasharray=" 0 0"
                      stroke-dashoffset="0"
                      stroke="rgb(156,52,240)"
                      stroke-opacity="1"
                      stroke-width="1"
                      d=" M0,-102.38700103759766 C56.50738525390625,-102.38700103759766 102.38700103759766,-56.50738525390625 102.38700103759766,0 C102.38700103759766,56.50738525390625 56.50738525390625,102.38700103759766 0,102.38700103759766 C-56.50738525390625,102.38700103759766 -102.38700103759766,56.50738525390625 -102.38700103759766,0 C-102.38700103759766,-56.50738525390625 -56.50738525390625,-102.38700103759766 0,-102.38700103759766z"
                    ></path>
                  </g>
                </g>
              </g>
            </svg>